<svg width="25" height="30" viewBox="0 0 25 30" fill="none" xmlns="http://www.w3.org/2000/svg">
<path d="M20.902 15.8533C20.8887 13.3953 21.9912 11.54 24.2229 10.1737C22.9742 8.37206 21.0879 7.38081 18.5972 7.18657C16.2394 6.99904 13.6623 8.57299 12.7192 8.57299C11.7229 8.57299 9.4381 7.25355 7.64479 7.25355C3.93863 7.31383 0 10.234 0 16.1748C0 17.9296 0.31881 19.7424 0.956429 21.6133C1.80659 24.0713 4.87513 30.0992 8.07651 29.9988C9.75027 29.9586 10.9325 28.7999 13.1111 28.7999C15.2232 28.7999 16.3191 29.9988 18.1854 29.9988C21.4134 29.9519 24.1897 24.4732 25 22.0085C20.6695 19.9523 20.902 15.9806 20.902 15.8533ZM17.1427 4.85579C18.9559 2.68576 18.7899 0.709951 18.7367 0C17.136 0.093767 15.2829 1.09841 14.2269 2.33748C13.0646 3.66361 12.3804 5.30454 12.5266 7.15309C14.2601 7.28704 15.8409 6.38955 17.1427 4.85579Z" fill="black"/>
</svg>
