<svg width="48" height="48" viewBox="0 0 48 48" fill="none" xmlns="http://www.w3.org/2000/svg">
<circle cx="24" cy="24" r="22" fill="#FBCB50" stroke="#0B0213" stroke-width="4"/>
<path fill-rule="evenodd" clip-rule="evenodd" d="M19.382 19H18.0001C16.897 19 16 19.897 16 21V29C16 30.103 16.897 31 18.0001 31H29.9999C31.103 31 32 30.1025 32 28.9995L31.9946 21.0025C31.9937 19.9019 31.0981 19.0054 29.998 19.0034L28.6181 19.001L27.6185 17H20.3825L19.382 19ZM28.0004 24.5C28.0004 26.7056 26.2059 28.5 24.0003 28.5C21.7946 28.5 20.0001 26.7056 20.0001 24.5C20.0001 22.2944 21.7946 20.5 24.0003 20.5C26.2059 20.5 28.0004 22.2944 28.0004 24.5ZM22.5858 26.4142C21.8047 25.6332 21.8047 24.3668 22.5858 23.5858C23.3668 22.8047 24.6332 22.8047 25.4142 23.5858C26.1953 24.3668 26.1953 25.6332 25.4142 26.4142C24.6332 27.1953 23.3668 27.1953 22.5858 26.4142Z" fill="#0B0213"/>
</svg>
