<svg width="54" height="39" viewBox="0 0 54 39" fill="none" xmlns="http://www.w3.org/2000/svg">
<path d="M12.8523 3.96775V5.84824H6.79004V3.96775C6.79004 3.6352 6.92214 3.31627 7.15729 3.08112C7.39244 2.84597 7.71137 2.71387 8.04392 2.71387H11.5984C11.931 2.71387 12.2499 2.84597 12.4851 3.08112C12.7202 3.31627 12.8523 3.6352 12.8523 3.96775Z" fill="white"/>
<path d="M41.6863 0.766662L44.0921 6.47586H25.8086L28.2144 0.766662C28.3103 0.539426 28.471 0.345493 28.6765 0.209128C28.8819 0.0727623 29.1231 1.90996e-05 29.3697 0H40.531C40.7776 1.90996e-05 41.0188 0.0727623 41.2242 0.209128C41.4297 0.345493 41.5904 0.539426 41.6863 0.766662Z" fill="white"/>
<path d="M53.9162 7.62885V14.3118H8.62504e-08V7.62885C-8.63002e-05 7.29951 0.0647201 6.97337 0.190716 6.66907C0.316712 6.36478 0.50143 6.08829 0.734314 5.85541C0.967198 5.62252 1.24369 5.43781 1.54798 5.31181C1.85228 5.18581 2.17841 5.12101 2.50776 5.12109H51.4084C51.7378 5.12101 52.0639 5.18581 52.3682 5.31181C52.6725 5.43781 52.949 5.62252 53.1819 5.85541C53.4148 6.08829 53.5995 6.36478 53.7255 6.66907C53.8515 6.97337 53.9163 7.29951 53.9162 7.62885Z" fill="white"/>
<path d="M53.9162 14.3125V36.0486C53.9163 36.378 53.8515 36.7041 53.7255 37.0084C53.5995 37.3127 53.4148 37.5892 53.1819 37.8221C52.949 38.055 52.6725 38.2397 52.3682 38.3657C52.0639 38.4917 51.7378 38.5565 51.4084 38.5564H2.50776C2.17841 38.5565 1.85228 38.4917 1.54798 38.3657C1.24369 38.2397 0.967198 38.055 0.734314 37.8221C0.50143 37.5892 0.316712 37.3127 0.190716 37.0084C0.0647201 36.7041 -8.63002e-05 36.378 8.62504e-08 36.0486V14.3125H53.9162Z" fill="#FCCC50"/>
<path d="M0 13.792H53.9162V14.8368H0V13.792Z" fill="white"/>
<path d="M39.8625 22.8897C39.8637 25.4422 39.1078 27.9377 37.6906 30.0606C36.2733 32.1835 34.2584 33.8384 31.9005 34.816C29.5426 35.7936 26.9478 36.05 24.4442 35.5527C21.9406 35.0555 19.6407 33.8269 17.8354 32.0225C16.0301 30.218 14.8005 27.9187 14.3021 25.4153C13.8037 22.9119 14.0589 20.317 15.0354 17.9587C16.012 15.6004 17.6659 13.5846 19.7882 12.1664C21.9104 10.7482 24.4056 9.99121 26.9581 9.99121C30.3796 9.99086 33.6612 11.3495 36.0812 13.7683C38.5011 16.1872 39.8613 19.4681 39.8625 22.8897Z" fill="white"/>
<path d="M26.9583 33.3402C24.8922 33.3395 22.8726 32.7263 21.155 31.578C19.4373 30.4297 18.0987 28.7979 17.3083 26.889C16.518 24.98 16.3114 22.8795 16.7146 20.8532C17.1178 18.8268 18.1128 16.9654 19.5738 15.5045C21.0348 14.0435 22.8961 13.0485 24.9225 12.6453C26.9489 12.242 29.0493 12.4486 30.9583 13.239C32.8673 14.0294 34.4991 15.368 35.6473 17.0857C36.7956 18.8033 37.4088 20.8228 37.4095 22.889C37.4065 25.6599 36.3045 28.3165 34.3451 30.2758C32.3858 32.2351 29.7292 33.3372 26.9583 33.3402Z" fill="#FCCC50"/>
<path d="M26.9579 28.3247C25.8838 28.3241 24.8339 28.005 23.9411 27.4078C23.0482 26.8107 22.3525 25.9622 21.9417 24.9697C21.5309 23.9772 21.4236 22.8852 21.6334 21.8317C21.8431 20.7783 22.3604 19.8106 23.1199 19.0511C23.8795 18.2915 24.8471 17.7742 25.9006 17.5645C26.9541 17.3548 28.0461 17.4621 29.0386 17.8729C30.0311 18.2836 30.8795 18.9794 31.4767 19.8722C32.0739 20.7651 32.3929 21.8149 32.3936 22.8891C32.392 24.3302 31.8188 25.7119 30.7998 26.7309C29.7807 27.75 28.3991 28.3232 26.9579 28.3247Z" fill="white"/>
<path d="M50.1548 7.91406H41.6906C41.3445 7.91406 41.064 8.19461 41.064 8.54068V10.9708C41.064 11.3169 41.3445 11.5975 41.6906 11.5975H50.1548C50.5008 11.5975 50.7814 11.3169 50.7814 10.9708V8.54068C50.7814 8.19461 50.5008 7.91406 50.1548 7.91406Z" fill="white"/>
<path d="M7.59841 19.9035C7.59841 20.2135 7.50648 20.5165 7.33424 20.7743C7.162 21.0321 6.91718 21.233 6.63076 21.3516C6.34433 21.4703 6.02916 21.5013 5.72509 21.4409C5.42102 21.3804 5.14172 21.2311 4.92249 21.0119C4.70327 20.7926 4.55398 20.5133 4.4935 20.2093C4.43302 19.9052 4.46406 19.59 4.5827 19.3036C4.70134 19.0172 4.90225 18.7724 5.16003 18.6001C5.41781 18.4279 5.72087 18.3359 6.0309 18.3359C6.23689 18.3354 6.44096 18.3756 6.63137 18.4542C6.82179 18.5328 6.9948 18.6482 7.14046 18.7939C7.28612 18.9396 7.40156 19.1126 7.48015 19.303C7.55874 19.4934 7.59893 19.6975 7.59841 19.9035Z" fill="white"/>
</svg>
