<svg width="16" height="16" viewBox="0 0 16 16" fill="none" xmlns="http://www.w3.org/2000/svg">
<path fill-rule="evenodd" clip-rule="evenodd" d="M8 16C4.22876 16 2.34314 16 1.17158 14.8284C-9.53674e-08 13.6569 0 11.7712 0 8C0 4.22876 -9.53674e-08 2.34314 1.17158 1.17158C2.34314 -9.53674e-08 4.22876 0 8 0C11.7712 0 13.6569 -9.53674e-08 14.8284 1.17158C16 2.34314 16 4.22876 16 8C16 11.7712 16 13.6569 14.8284 14.8284C13.6569 16 11.7712 16 8 16ZM11.2242 5.57574C11.4586 5.81005 11.4586 6.18995 11.2242 6.42424L7.22424 10.4242C6.98992 10.6586 6.61008 10.6586 6.37574 10.4242L4.77574 8.82424C4.54142 8.58992 4.54142 8.21008 4.77574 7.97576C5.01005 7.74144 5.38995 7.74144 5.62426 7.97576L6.8 9.15144L10.3758 5.57574C10.6101 5.34142 10.9899 5.34142 11.2242 5.57574Z" fill="white"/>
</svg>
