<svg width="15" height="15" viewBox="0 0 15 15" fill="none" xmlns="http://www.w3.org/2000/svg">
<path fill-rule="evenodd" clip-rule="evenodd" d="M13.8759 2.78483C14.3418 2.1727 14.2952 1.29523 13.7362 0.736168C13.1263 0.126285 12.1375 0.126285 11.5276 0.736169L7.2381 5.02565L2.94294 0.730489L2.78301 0.590724C2.17089 0.12484 1.29342 0.171428 0.734356 0.730488C0.124472 1.34037 0.124472 2.32919 0.734356 2.93907L5.02952 7.23423L0.740332 11.5234L0.600566 11.6833C0.134683 12.2955 0.181271 13.1729 0.740331 13.732C1.35021 14.3419 2.33903 14.3419 2.94892 13.732L7.2381 9.44282L11.5319 13.7366L11.6918 13.8764C12.3039 14.3422 13.1814 14.2957 13.7405 13.7366C14.3504 13.1267 14.3504 12.1379 13.7405 11.528L9.44669 7.23423L13.7362 2.94475L13.8759 2.78483Z" fill="white"/>
</svg>
