<svg width="13" height="13" viewBox="0 0 13 13" fill="none" xmlns="http://www.w3.org/2000/svg">
<path fill-rule="evenodd" clip-rule="evenodd" d="M5.07888 10.8484L9.83817 4.69378C10.0968 4.36188 10.1888 3.97816 10.1026 3.58745C10.0279 3.23226 9.80943 2.89454 9.4818 2.63834L8.68284 2.00366C7.98734 1.4505 7.12515 1.50872 6.63083 2.14341L6.09627 2.8369C6.02729 2.92366 6.04454 3.05176 6.13075 3.12163C6.13075 3.12163 7.48152 4.20467 7.51026 4.22796C7.60223 4.3153 7.6712 4.43175 7.68845 4.5715C7.71719 4.84517 7.5275 5.10137 7.24585 5.13631C7.11365 5.15378 6.9872 5.11302 6.89523 5.03732L5.47549 3.9077C5.40651 3.85588 5.30305 3.86695 5.24557 3.93682L1.87153 8.3039C1.65311 8.57757 1.57839 8.93275 1.65311 9.2763L2.08421 11.1454C2.1072 11.2444 2.19342 11.3143 2.29688 11.3143L4.1937 11.291C4.53858 11.2852 4.86046 11.1279 5.07888 10.8484ZM7.73483 10.2663H10.8278C11.1296 10.2663 11.375 10.515 11.375 10.8207C11.375 11.127 11.1296 11.375 10.8278 11.375H7.73483C7.43306 11.375 7.18763 11.127 7.18763 10.8207C7.18763 10.515 7.43306 10.2663 7.73483 10.2663Z" fill="white"/>
</svg>
