<svg width="36" height="36" viewBox="0 0 36 36" fill="none" xmlns="http://www.w3.org/2000/svg">
<g filter="url(#filter0_b_10479_9743)">
<rect width="35.6523" height="35.6523" rx="17.8262" fill="white" fill-opacity="0.2"/>
</g>
<path d="M24.2579 14.478L24.2579 14.478C23.6631 14.5213 22.9563 14.8848 22.1035 15.5607C20.573 16.7738 18.7559 18.8782 17.5684 20.4108C16.7228 20.2777 15.8302 20.6131 15.2826 21.2464L15.3583 21.3119L15.2826 21.2464C14.7668 21.843 14.7101 22.4241 14.6624 22.9493L14.6616 22.9586C14.6143 23.4798 14.573 23.9341 14.1417 24.3552L14.1417 24.3553C14.0928 24.4031 14.0563 24.4619 14.0354 24.5269C14.0145 24.5919 14.0098 24.6609 14.0219 24.7281C14.034 24.7953 14.0623 24.8585 14.1044 24.9124C14.1465 24.9662 14.201 25.0092 14.2633 25.0377L14.2634 25.0378C15.0093 25.3785 15.8646 25.4634 16.6483 25.351C17.4309 25.2387 18.1523 24.928 18.6255 24.466L18.5556 24.3944L18.6255 24.466C19.1865 23.9183 19.5159 23.0996 19.4118 22.3023C21.0197 21.1597 23.2259 19.4091 24.4985 17.9324C25.2085 17.1085 25.5933 16.4214 25.6424 15.838C25.7101 15.0328 25.0865 14.4177 24.2579 14.478ZM24.3222 15.3188L24.3222 15.3188C24.4836 15.3071 24.6049 15.353 24.6822 15.4283C24.7592 15.5032 24.8037 15.618 24.7912 15.7669C24.779 15.9129 24.7059 16.0998 24.5738 16.3223C24.4427 16.5429 24.2588 16.7899 24.0354 17.0543C23.5887 17.5829 22.9907 18.1732 22.3605 18.7496C21.1496 19.8573 19.8277 20.9069 19.2516 21.3587L18.2931 20.4908C18.3275 20.4539 18.3742 20.4041 18.4319 20.3428C18.5651 20.2013 18.7571 19.9989 18.9917 19.7558C19.4612 19.2695 20.1012 18.6202 20.7841 17.968C21.4674 17.3155 22.1919 16.6616 22.8306 16.1652C23.15 15.9168 23.4461 15.7094 23.7034 15.5615C23.9638 15.4117 24.1732 15.3297 24.3222 15.3188ZM18.0245 23.8661C17.7349 24.1488 17.2684 24.3723 16.7261 24.4818C16.2262 24.5828 15.6697 24.5853 15.1422 24.4535C15.4254 23.979 15.4665 23.5197 15.5042 23.099C15.5052 23.0878 15.5062 23.0766 15.5072 23.0655C15.5491 22.5992 15.5946 22.1855 15.9327 21.7944C16.4961 21.1429 17.5838 21.0026 18.1832 21.6282C18.5376 21.9982 18.6222 22.4321 18.5568 22.8376C18.4909 23.2466 18.2722 23.6243 18.0245 23.8661Z" fill="white" stroke="white" stroke-width="0.2"/>
<path fill-rule="evenodd" clip-rule="evenodd" d="M18.7887 19.4853C18.2317 19.4492 17.624 19.4311 16.966 19.4311C12.7335 19.4311 10.587 20.1726 10.587 21.6349C10.587 22.1131 10.7554 22.8063 12.2175 23.3052C12.5857 23.4305 12.7825 23.8318 12.6581 24.2015C12.5328 24.5713 12.1352 24.7735 11.766 24.6453C9.62923 23.9166 9.18073 22.6061 9.18073 21.6349C9.18073 18.457 13.4442 18.0317 16.76 18.0156L17.3366 18.0158C18.0765 18.0197 19.1514 18.0443 20.2542 18.204C19.7667 18.5764 19.2743 19.0056 18.7887 19.4853Z" fill="white"/>
<path d="M18.2784 12.8091C18.2784 14.4082 17.0016 15.6876 15.4474 15.6876C13.8932 15.6876 12.6165 14.4082 12.6165 12.8091C12.6165 11.21 13.8932 9.93066 15.4474 9.93066C17.0016 9.93066 18.2784 11.21 18.2784 12.8091Z" stroke="white" stroke-width="1.5"/>
<defs>
<filter id="filter0_b_10479_9743" x="-10" y="-10" width="55.6523" height="55.6523" filterUnits="userSpaceOnUse" color-interpolation-filters="sRGB">
<feFlood flood-opacity="0" result="BackgroundImageFix"/>
<feGaussianBlur in="BackgroundImageFix" stdDeviation="5"/>
<feComposite in2="SourceAlpha" operator="in" result="effect1_backgroundBlur_10479_9743"/>
<feBlend mode="normal" in="SourceGraphic" in2="effect1_backgroundBlur_10479_9743" result="shape"/>
</filter>
</defs>
</svg>
