<svg width="24" height="24" viewBox="0 0 24 24" fill="none" xmlns="http://www.w3.org/2000/svg">
<path d="M12 0C18.6251 0 24 5.41931 24 12C24 18.6075 18.6071 24 12 24C5.3925 24 0 18.6071 0 12C0 5.3925 5.39292 0 12 0ZM12 1.40625C10.8296 1.40625 9.70312 1.59745 8.64966 1.94953C8.84709 2.24114 8.97056 2.62664 8.97056 3.12403C8.97056 3.88355 8.63109 4.56244 8.30283 5.21902C8.03578 5.75311 7.78355 6.25758 7.78355 6.68512C7.78355 6.93234 7.84237 6.9893 8.04464 7.05675C8.43075 7.18547 9.1477 7.17023 9.63853 7.16864C10.7972 7.16475 12.1112 7.16053 13.5128 8.562C13.7063 8.75564 13.8111 8.76553 14.4816 8.43028C15.0951 8.12353 16.122 7.61016 17.0738 8.562C17.6305 9.11873 17.8504 9.90277 17.6964 10.6979C18.3844 10.4308 19.3357 10.3072 19.4521 10.0119C19.506 9.87539 19.5901 9.28102 18.4112 7.36711C17.974 6.65728 17.4488 5.61727 17.9333 4.78416C18.1684 4.38009 18.5621 4.16503 18.9969 4.05295C17.1293 2.4067 14.6795 1.40625 12 1.40625ZM12 22.5938C17.8414 22.5938 22.5938 17.8414 22.5938 12C22.5938 9.48244 21.7104 7.16761 20.2382 5.34792C19.4279 5.34098 19.209 5.43956 19.1505 5.49197C19.143 5.53805 19.1215 5.83898 19.6086 6.62963C20.7578 8.4953 21.1022 9.66113 20.7604 10.5279C20.2987 11.6987 18.8493 11.7005 18.0624 12.0698C17.5863 12.2933 15.1834 13.4001 14.9057 13.8126V14.9944C14.9057 15.8754 14.0738 16.3512 13.4055 16.7336C13.1347 16.8885 12.5712 17.2108 12.5317 17.3685C12.5317 20.1734 12.2617 21.7175 11.9136 22.5927C11.9424 22.5929 11.9711 22.5938 12 22.5938ZM10.1709 21.8335C10.1665 21.975 10.3143 22.263 10.4418 22.3919C10.6211 22.1431 11.1254 21.1105 11.1254 17.3684C11.1254 16.4177 12.0024 15.916 12.7072 15.5129C12.9552 15.371 13.4149 15.1107 13.5041 14.9672V13.8074C13.5041 13.618 13.5346 13.449 13.5954 13.2969C12.4269 13.1895 11.8576 12.7779 11.4259 12.4657C11.1227 12.2465 10.9706 12.1365 10.6415 12.1365C10.632 12.1365 10.6272 12.1371 10.6273 12.137C10.5533 12.1732 10.3962 12.4359 10.3022 12.5931C9.50489 13.9253 8.72714 14.4014 7.20225 14.7353C6.99783 14.7801 6.6938 14.8467 6.60361 14.9068C6.60056 14.9211 6.59649 14.9488 6.59649 14.9943C6.59649 16.4453 7.71333 17.4965 8.69873 18.4239C9.48886 19.1676 10.1713 19.8098 10.1713 20.6248C10.1713 20.7386 10.1728 21.7715 10.1709 21.8335ZM8.7862 22.0949C8.77012 21.9931 8.76727 21.8927 8.76989 21.7957C8.77092 21.7004 8.7697 20.6319 8.7697 20.625C8.76966 20.624 8.75911 20.5225 8.54583 20.2644C8.34741 20.0243 8.04989 19.7443 7.73489 19.4478C6.66098 18.4371 5.19024 17.0528 5.19024 14.9942C5.19024 14.2894 5.54578 13.9144 5.84405 13.7239C6.15586 13.5248 6.51797 13.4455 6.90141 13.3615C8.04028 13.1121 8.499 12.8679 9.09539 11.871C9.38344 11.3895 9.77794 10.73 10.6415 10.73C11.4257 10.73 11.8827 11.0605 12.2499 11.326C12.6702 11.63 13.0673 11.917 14.2025 11.917C15.3301 11.917 16.0008 11.2637 16.2326 10.7042C16.3202 10.4927 16.4806 9.95752 16.0794 9.55627C15.8857 9.36267 15.781 9.35273 15.1105 9.68798C14.497 9.99473 13.4702 10.5082 12.5183 9.55627C11.5306 8.56856 10.6974 8.57133 9.64308 8.57475C8.96831 8.57691 8.20022 8.59083 7.59994 8.39067C6.8115 8.12784 6.37725 7.52208 6.37725 6.68498C6.37725 5.92547 6.71672 5.24658 7.04498 4.59C7.31203 4.05591 7.56427 3.55144 7.56427 3.12389C7.56427 2.79398 7.49259 2.60939 7.12866 2.59458C3.73186 4.3612 1.40625 7.91395 1.40625 12C1.40625 16.7214 4.5112 20.7308 8.7862 22.0949Z" fill="#9B9B9B"/>
</svg>
