<svg width="24" height="25" viewBox="0 0 24 25" fill="none" xmlns="http://www.w3.org/2000/svg">
<g clip-path="url(#clip0_10449_7133)">
<circle cx="12" cy="12.1719" r="12" fill="#FFCD2F"/>
<path d="M12 0.171875C18.6251 0.171875 24 5.59119 24 12.1719C24 18.7793 18.6071 24.1719 12 24.1719C5.3925 24.1719 0 18.779 0 12.1719C0 5.56437 5.39292 0.171875 12 0.171875ZM12 1.57812C10.8296 1.57812 9.70312 1.76933 8.64966 2.12141C8.84709 2.41302 8.97056 2.79852 8.97056 3.29591C8.97056 4.05542 8.63109 4.73431 8.30283 5.39089C8.03578 5.92498 7.78355 6.42945 7.78355 6.857C7.78355 7.10422 7.84237 7.16117 8.04464 7.22863C8.43075 7.35734 9.1477 7.34211 9.63853 7.34052C10.7972 7.33663 12.1112 7.33241 13.5128 8.73388C13.7063 8.92752 13.8111 8.93741 14.4816 8.60216C15.0951 8.29541 16.122 7.78203 17.0738 8.73388C17.6305 9.29061 17.8504 10.0746 17.6964 10.8698C18.3844 10.6027 19.3357 10.479 19.4521 10.1838C19.506 10.0473 19.5901 9.45289 18.4112 7.53898C17.974 6.82916 17.4488 5.78914 17.9333 4.95603C18.1684 4.55197 18.5621 4.33691 18.9969 4.22483C17.1293 2.57858 14.6795 1.57812 12 1.57812ZM12 22.7656C17.8414 22.7656 22.5938 18.0133 22.5938 12.1719C22.5938 9.65431 21.7104 7.33948 20.2382 5.5198C19.4279 5.51286 19.209 5.61144 19.1505 5.66384C19.143 5.70992 19.1215 6.01086 19.6086 6.8015C20.7578 8.66717 21.1022 9.833 20.7604 10.6998C20.2987 11.8706 18.8493 11.8723 18.0624 12.2417C17.5863 12.4651 15.1834 13.572 14.9057 13.9844V15.1663C14.9057 16.0473 14.0738 16.5231 13.4055 16.9055C13.1347 17.0603 12.5712 17.3827 12.5317 17.5403C12.5317 20.3452 12.2617 21.8894 11.9136 22.7646C11.9424 22.7648 11.9711 22.7656 12 22.7656ZM10.1709 22.0054C10.1665 22.1469 10.3143 22.4349 10.4418 22.5637C10.6211 22.315 11.1254 21.2824 11.1254 17.5403C11.1254 16.5896 12.0024 16.0879 12.7072 15.6848C12.9552 15.5429 13.4149 15.2826 13.5041 15.1391V13.9792C13.5041 13.7899 13.5346 13.6208 13.5954 13.4688C12.4269 13.3614 11.8576 12.9498 11.4259 12.6376C11.1227 12.4183 10.9706 12.3083 10.6415 12.3083C10.632 12.3083 10.6272 12.309 10.6273 12.3089C10.5533 12.3451 10.3962 12.6078 10.3022 12.7649C9.50489 14.0972 8.72714 14.5732 7.20225 14.9072C6.99783 14.952 6.6938 15.0186 6.60361 15.0786C6.60056 15.093 6.59649 15.1206 6.59649 15.1662C6.59649 16.6172 7.71333 17.6683 8.69873 18.5958C9.48886 19.3394 10.1713 19.9817 10.1713 20.7966C10.1713 20.9105 10.1728 21.9433 10.1709 22.0054ZM8.7862 22.2667C8.77012 22.165 8.76727 22.0646 8.76989 21.9675C8.77092 21.8723 8.7697 20.8038 8.7697 20.7968C8.76966 20.7958 8.75911 20.6944 8.54583 20.4363C8.34741 20.1962 8.04989 19.9162 7.73489 19.6197C6.66098 18.6089 5.19024 17.2247 5.19024 15.1661C5.19024 14.4613 5.54578 14.0863 5.84405 13.8958C6.15586 13.6967 6.51797 13.6174 6.90141 13.5334C8.04028 13.2839 8.499 13.0398 9.09539 12.0429C9.38344 11.5614 9.77794 10.9019 10.6415 10.9019C11.4257 10.9019 11.8827 11.2324 12.2499 11.4979C12.6702 11.8018 13.0673 12.0889 14.2025 12.0889C15.3301 12.0889 16.0008 11.4356 16.2326 10.8761C16.3202 10.6646 16.4806 10.1294 16.0794 9.72814C15.8857 9.53455 15.781 9.52461 15.1105 9.85986C14.497 10.1666 13.4702 10.68 12.5183 9.72814C11.5306 8.74044 10.6974 8.7432 9.64308 8.74662C8.96831 8.74878 8.20022 8.7627 7.59994 8.56255C6.8115 8.29972 6.37725 7.69395 6.37725 6.85686C6.37725 6.09734 6.71672 5.41845 7.04498 4.76188C7.31203 4.22778 7.56427 3.72331 7.56427 3.29577C7.56427 2.96586 7.49259 2.78127 7.12866 2.76645C3.73186 4.53308 1.40625 8.08583 1.40625 12.1719C1.40625 16.8933 4.5112 20.9027 8.7862 22.2667Z" fill="#292929"/>
</g>
<defs>
<clipPath id="clip0_10449_7133">
<rect width="24" height="24" fill="white" transform="matrix(-1 0 0 1 24 0.171875)"/>
</clipPath>
</defs>
</svg>
