<svg width="16" height="16" viewBox="0 0 16 16" fill="none" xmlns="http://www.w3.org/2000/svg">
<path d="M16 8.04862C16.0003 6.51971 15.5625 5.02271 14.7385 3.7349C13.9144 2.44708 12.7385 1.42238 11.3501 0.782125C9.96173 0.141868 8.41893 -0.0871275 6.90442 0.122253C5.38991 0.331633 3.96712 0.970619 2.80451 1.96355C1.6419 2.95648 0.788165 4.26178 0.344396 5.72487C-0.0993733 7.18797 -0.114591 8.74759 0.300544 10.2191C0.71568 11.6905 1.54378 13.0122 2.68679 14.0277C3.82981 15.0431 5.23986 15.7097 6.75 15.9486V10.3606H4.719V8.04862H6.75V6.28562C6.70627 5.87407 6.7536 5.45793 6.88863 5.06671C7.02366 4.67549 7.24309 4.31876 7.53136 4.0218C7.81964 3.72484 8.1697 3.49493 8.55674 3.34835C8.94379 3.20177 9.35833 3.14212 9.771 3.17362C10.371 3.1815 10.9696 3.23364 11.562 3.32962V5.30062H10.554C10.3823 5.27817 10.2077 5.29461 10.0432 5.34874C9.87874 5.40286 9.72853 5.49328 9.6037 5.61331C9.47887 5.73333 9.38263 5.87989 9.3221 6.04214C9.26157 6.20438 9.23829 6.37816 9.254 6.55062V8.05062H11.473L11.118 10.3626H9.25V15.9536C11.1322 15.6559 12.8464 14.696 14.0838 13.2468C15.3213 11.7976 16.0008 9.95426 16 8.04862V8.04862Z" fill="#5090FF"/>
</svg>
