<svg width="25" height="25" viewBox="0 0 25 25" fill="none" xmlns="http://www.w3.org/2000/svg">
<path fill-rule="evenodd" clip-rule="evenodd" d="M8.68959 7.53994C8.68959 6.45298 7.79431 5.56809 6.69197 5.56809C5.59082 5.56809 4.69436 6.45298 4.69436 7.53994C4.69436 8.62689 5.59082 9.51178 6.69197 9.51178C7.79431 9.51178 8.68959 8.62689 8.68959 7.53994ZM10.4543 7.53994C10.4543 9.58727 8.76723 11.2537 6.69197 11.2537C4.61789 11.2537 2.92969 9.58727 2.92969 7.53994C2.92969 5.4926 4.61789 3.82617 6.69197 3.82617C8.76723 3.82617 10.4543 5.4926 10.4543 7.53994ZM22.9297 7.54017C22.9297 7.0594 22.5344 6.66921 22.0474 6.66921H14.8122C14.3251 6.66921 13.9298 7.0594 13.9298 7.54017C13.9298 8.02094 14.3251 8.41113 14.8122 8.41113H22.0474C22.5344 8.41113 22.9297 8.02094 22.9297 7.54017ZM17.1694 19.1124C17.1694 20.1994 18.0647 21.0843 19.167 21.0843C20.2694 21.0843 21.1647 20.1994 21.1647 19.1124C21.1647 18.0243 20.2694 17.1406 19.167 17.1406C18.0647 17.1406 17.1694 18.0243 17.1694 19.1124ZM15.4048 19.1124C15.4048 17.0639 17.0918 15.3986 19.167 15.3986C21.2423 15.3986 22.9293 17.0639 22.9293 19.1124C22.9293 21.1597 21.2423 22.8262 19.167 22.8262C17.0918 22.8262 15.4048 21.1597 15.4048 19.1124ZM3.81285 18.2411H11.0468C11.5339 18.2411 11.9292 18.6313 11.9292 19.1121C11.9292 19.5928 11.5339 19.983 11.0468 19.983H3.81285C3.3258 19.983 2.93051 19.5928 2.93051 19.1121C2.93051 18.6313 3.3258 18.2411 3.81285 18.2411Z" fill="white"/>
</svg>
