<svg width="340" height="140" viewBox="0 0 340 140" fill="none" xmlns="http://www.w3.org/2000/svg">
<rect width="340" height="140" rx="30" fill="#201E23"/>
<rect x="17.5" y="60.5" width="305" height="57" rx="28.5" stroke="#4A4A4A"/>
<path d="M79.1469 97H76.9389V79.816H79.1469V97ZM89.7083 79.816V97H87.5003V79.816H89.7083ZM91.6095 91.12C91.6095 89.312 92.1775 87.816 93.3135 86.632C94.4655 85.448 95.9135 84.856 97.6575 84.856C99.4015 84.856 100.842 85.448 101.978 86.632C103.13 87.816 103.706 89.312 103.706 91.12C103.706 92.944 103.13 94.44 101.978 95.608C100.842 96.792 99.4015 97.384 97.6575 97.384C95.9135 97.384 94.4655 96.792 93.3135 95.608C92.1775 94.424 91.6095 92.928 91.6095 91.12ZM93.8175 91.12C93.8175 92.384 94.1855 93.408 94.9215 94.192C95.6575 94.976 96.5695 95.368 97.6575 95.368C98.7455 95.368 99.6575 94.976 100.394 94.192C101.13 93.408 101.498 92.384 101.498 91.12C101.498 89.872 101.13 88.856 100.394 88.072C99.6415 87.272 98.7295 86.872 97.6575 86.872C96.5855 86.872 95.6735 87.272 94.9215 88.072C94.1855 88.856 93.8175 89.872 93.8175 91.12ZM111.189 97H108.981L104.229 85.24H106.629L110.085 94.36H110.133L113.637 85.24H115.989L111.189 97ZM122.358 97.384C120.63 97.384 119.206 96.792 118.086 95.608C116.966 94.424 116.406 92.928 116.406 91.12C116.406 89.328 116.95 87.84 118.038 86.656C119.126 85.456 120.518 84.856 122.214 84.856C123.958 84.856 125.342 85.424 126.366 86.56C127.406 87.68 127.926 89.256 127.926 91.288L127.902 91.528H118.662C118.694 92.68 119.078 93.608 119.814 94.312C120.55 95.016 121.43 95.368 122.454 95.368C123.862 95.368 124.966 94.664 125.766 93.256L127.734 94.216C127.206 95.208 126.47 95.984 125.526 96.544C124.598 97.104 123.542 97.384 122.358 97.384ZM118.83 89.704H125.574C125.51 88.888 125.174 88.216 124.566 87.688C123.974 87.144 123.174 86.872 122.166 86.872C121.334 86.872 120.614 87.128 120.006 87.64C119.414 88.152 119.022 88.84 118.83 89.704ZM137.427 97H135.219V85.24H137.331V86.872H137.427C137.763 86.296 138.275 85.816 138.963 85.432C139.667 85.048 140.363 84.856 141.051 84.856C141.915 84.856 142.675 85.056 143.331 85.456C143.987 85.856 144.467 86.408 144.771 87.112C145.747 85.608 147.099 84.856 148.827 84.856C150.187 84.856 151.235 85.272 151.971 86.104C152.707 86.936 153.075 88.12 153.075 89.656V97H150.867V89.992C150.867 88.888 150.667 88.096 150.267 87.616C149.867 87.12 149.195 86.872 148.251 86.872C147.403 86.872 146.691 87.232 146.115 87.952C145.539 88.672 145.251 89.52 145.251 90.496V97H143.043V89.992C143.043 88.888 142.843 88.096 142.443 87.616C142.043 87.12 141.371 86.872 140.427 86.872C139.579 86.872 138.867 87.232 138.291 87.952C137.715 88.672 137.427 89.52 137.427 90.496V97ZM160.937 97.384C159.209 97.384 157.785 96.792 156.665 95.608C155.545 94.424 154.985 92.928 154.985 91.12C154.985 89.328 155.529 87.84 156.617 86.656C157.705 85.456 159.097 84.856 160.793 84.856C162.537 84.856 163.921 85.424 164.945 86.56C165.985 87.68 166.505 89.256 166.505 91.288L166.481 91.528H157.241C157.273 92.68 157.657 93.608 158.393 94.312C159.129 95.016 160.009 95.368 161.033 95.368C162.441 95.368 163.545 94.664 164.345 93.256L166.312 94.216C165.785 95.208 165.049 95.984 164.105 96.544C163.177 97.104 162.121 97.384 160.937 97.384ZM157.409 89.704H164.153C164.089 88.888 163.753 88.216 163.145 87.688C162.553 87.144 161.753 86.872 160.745 86.872C159.913 86.872 159.193 87.128 158.585 87.64C157.993 88.152 157.601 88.84 157.409 89.704ZM170.732 97H168.524V85.24H170.636V86.872H170.732C171.068 86.296 171.58 85.816 172.268 85.432C172.972 85.048 173.668 84.856 174.356 84.856C175.22 84.856 175.98 85.056 176.636 85.456C177.292 85.856 177.772 86.408 178.076 87.112C179.052 85.608 180.404 84.856 182.132 84.856C183.492 84.856 184.54 85.272 185.276 86.104C186.012 86.936 186.38 88.12 186.38 89.656V97H184.172V89.992C184.172 88.888 183.972 88.096 183.572 87.616C183.172 87.12 182.5 86.872 181.556 86.872C180.708 86.872 179.996 87.232 179.42 87.952C178.844 88.672 178.556 89.52 178.556 90.496V97H176.348V89.992C176.348 88.888 176.148 88.096 175.748 87.616C175.348 87.12 174.676 86.872 173.732 86.872C172.884 86.872 172.172 87.232 171.596 87.952C171.02 88.672 170.732 89.52 170.732 90.496V97ZM194.241 97.384C192.513 97.384 191.089 96.792 189.969 95.608C188.849 94.424 188.289 92.928 188.289 91.12C188.289 89.328 188.833 87.84 189.921 86.656C191.009 85.456 192.401 84.856 194.097 84.856C195.841 84.856 197.225 85.424 198.249 86.56C199.289 87.68 199.809 89.256 199.809 91.288L199.785 91.528H190.545C190.577 92.68 190.961 93.608 191.697 94.312C192.433 95.016 193.313 95.368 194.337 95.368C195.745 95.368 196.849 94.664 197.649 93.256L199.617 94.216C199.089 95.208 198.353 95.984 197.409 96.544C196.481 97.104 195.425 97.384 194.241 97.384ZM190.713 89.704H197.457C197.393 88.888 197.057 88.216 196.449 87.688C195.857 87.144 195.057 86.872 194.049 86.872C193.217 86.872 192.497 87.128 191.889 87.64C191.297 88.152 190.905 88.84 190.713 89.704ZM207.226 97.384C205.498 97.384 204.074 96.792 202.954 95.608C201.834 94.424 201.274 92.928 201.274 91.12C201.274 89.328 201.818 87.84 202.906 86.656C203.994 85.456 205.386 84.856 207.082 84.856C208.826 84.856 210.21 85.424 211.234 86.56C212.274 87.68 212.794 89.256 212.794 91.288L212.77 91.528H203.53C203.562 92.68 203.946 93.608 204.682 94.312C205.418 95.016 206.298 95.368 207.322 95.368C208.73 95.368 209.834 94.664 210.634 93.256L212.602 94.216C212.074 95.208 211.338 95.984 210.394 96.544C209.466 97.104 208.41 97.384 207.226 97.384ZM203.698 89.704H210.442C210.378 88.888 210.042 88.216 209.434 87.688C208.842 87.144 208.042 86.872 207.034 86.872C206.202 86.872 205.482 87.128 204.874 87.64C204.282 88.152 203.89 88.84 203.698 89.704ZM221.694 93.4C221.694 93.976 221.934 94.456 222.414 94.84C222.91 95.224 223.486 95.416 224.142 95.416C225.07 95.416 225.894 95.072 226.614 94.384C227.35 93.696 227.718 92.888 227.718 91.96C227.03 91.416 226.07 91.144 224.838 91.144C223.942 91.144 223.19 91.36 222.582 91.792C221.99 92.224 221.694 92.76 221.694 93.4ZM224.55 84.856C226.182 84.856 227.47 85.296 228.414 86.176C229.358 87.04 229.83 88.232 229.83 89.752V97H227.718V95.368H227.622C226.71 96.712 225.494 97.384 223.974 97.384C222.678 97.384 221.59 97 220.71 96.232C219.846 95.464 219.414 94.504 219.414 93.352C219.414 92.136 219.87 91.168 220.782 90.448C221.71 89.728 222.942 89.368 224.478 89.368C225.79 89.368 226.87 89.608 227.718 90.088V89.584C227.718 88.816 227.414 88.168 226.806 87.64C226.198 87.096 225.486 86.824 224.67 86.824C223.438 86.824 222.462 87.344 221.742 88.384L219.798 87.16C220.87 85.624 222.454 84.856 224.55 84.856ZM238.081 95.368C239.137 95.368 240.025 94.968 240.745 94.168C241.465 93.384 241.825 92.368 241.825 91.12C241.825 89.888 241.465 88.872 240.745 88.072C240.025 87.272 239.137 86.872 238.081 86.872C237.009 86.872 236.113 87.272 235.393 88.072C234.689 88.872 234.337 89.888 234.337 91.12C234.337 92.368 234.689 93.392 235.393 94.192C236.113 94.976 237.009 95.368 238.081 95.368ZM238.441 97.384C237.577 97.384 236.785 97.2 236.065 96.832C235.361 96.464 234.817 95.976 234.433 95.368H234.337L234.433 97V102.184H232.225V85.24H234.337V86.872H234.433C234.817 86.264 235.361 85.776 236.065 85.408C236.785 85.04 237.577 84.856 238.441 84.856C239.993 84.856 241.305 85.464 242.377 86.68C243.481 87.912 244.033 89.392 244.033 91.12C244.033 92.864 243.481 94.344 242.377 95.56C241.305 96.776 239.993 97.384 238.441 97.384ZM251.581 95.368C252.637 95.368 253.525 94.968 254.245 94.168C254.965 93.384 255.325 92.368 255.325 91.12C255.325 89.888 254.965 88.872 254.245 88.072C253.525 87.272 252.637 86.872 251.581 86.872C250.509 86.872 249.613 87.272 248.893 88.072C248.189 88.872 247.837 89.888 247.837 91.12C247.837 92.368 248.189 93.392 248.893 94.192C249.613 94.976 250.509 95.368 251.581 95.368ZM251.941 97.384C251.077 97.384 250.285 97.2 249.565 96.832C248.861 96.464 248.317 95.976 247.933 95.368H247.837L247.933 97V102.184H245.725V85.24H247.837V86.872H247.933C248.317 86.264 248.861 85.776 249.565 85.408C250.285 85.04 251.077 84.856 251.941 84.856C253.493 84.856 254.805 85.464 255.877 86.68C256.981 87.912 257.533 89.392 257.533 91.12C257.533 92.864 256.981 94.344 255.877 95.56C254.805 96.776 253.493 97.384 251.941 97.384ZM262.627 95.512C262.627 95.96 262.467 96.344 262.147 96.664C261.843 96.984 261.459 97.144 260.995 97.144C260.547 97.144 260.163 96.984 259.843 96.664C259.523 96.344 259.363 95.96 259.363 95.512C259.363 95.048 259.523 94.664 259.843 94.36C260.163 94.04 260.547 93.88 260.995 93.88C261.459 93.88 261.843 94.04 262.147 94.36C262.467 94.664 262.627 95.048 262.627 95.512Z" fill="white"/>
<path opacity="0.5" d="M18.624 30.088V35H17.152V23.544H23.84V24.952H18.624V28.712H23.328V30.088H18.624ZM24.323 31.08C24.323 29.8747 24.7017 28.8773 25.459 28.088C26.227 27.2987 27.1923 26.904 28.355 26.904C29.5177 26.904 30.4777 27.2987 31.235 28.088C32.003 28.8773 32.387 29.8747 32.387 31.08C32.387 32.296 32.003 33.2933 31.235 34.072C30.4777 34.8613 29.5177 35.256 28.355 35.256C27.1923 35.256 26.227 34.8613 25.459 34.072C24.7017 33.2827 24.323 32.2853 24.323 31.08ZM25.795 31.08C25.795 31.9227 26.0403 32.6053 26.531 33.128C27.0217 33.6507 27.6297 33.912 28.355 33.912C29.0803 33.912 29.6883 33.6507 30.179 33.128C30.6697 32.6053 30.915 31.9227 30.915 31.08C30.915 30.248 30.6697 29.5707 30.179 29.048C29.6777 28.5147 29.0697 28.248 28.355 28.248C27.6403 28.248 27.0323 28.5147 26.531 29.048C26.0403 29.5707 25.795 30.248 25.795 31.08ZM33.5679 27.16H34.9759V28.248H35.0399C35.2639 27.864 35.6052 27.544 36.0639 27.288C36.5332 27.032 37.0185 26.904 37.5199 26.904C38.4799 26.904 39.2159 27.1813 39.7279 27.736C40.2505 28.28 40.5119 29.0587 40.5119 30.072V35H39.0399V30.168C39.0079 28.888 38.3625 28.248 37.1039 28.248C36.5172 28.248 36.0265 28.488 35.6319 28.968C35.2372 29.4373 35.0399 30.0027 35.0399 30.664V35H33.5679V27.16ZM44.9375 35.128C44.2975 35.128 43.7642 34.9307 43.3375 34.536C42.9215 34.1413 42.7082 33.592 42.6975 32.888V28.504H41.3215V27.16H42.6975V24.76H44.1695V27.16H46.0895V28.504H44.1695V32.408C44.1695 32.9307 44.2708 33.288 44.4735 33.48C44.6762 33.6613 44.9055 33.752 45.1615 33.752C45.2788 33.752 45.3908 33.7413 45.4975 33.72C45.6148 33.688 45.7215 33.6507 45.8175 33.608L46.2815 34.92C45.8975 35.0587 45.4495 35.128 44.9375 35.128ZM57.849 31.944C57.849 32.9467 57.481 33.752 56.745 34.36C55.9983 34.9573 55.0917 35.256 54.025 35.256C53.0757 35.256 52.2383 34.9787 51.513 34.424C50.7877 33.8693 50.2863 33.112 50.009 32.152L51.417 31.576C51.513 31.9173 51.6463 32.2267 51.817 32.504C51.9877 32.7813 52.185 33.0213 52.409 33.224C52.6437 33.416 52.8997 33.5707 53.177 33.688C53.4543 33.7947 53.7477 33.848 54.057 33.848C54.729 33.848 55.2783 33.6773 55.705 33.336C56.1317 32.984 56.345 32.52 56.345 31.944C56.345 31.464 56.169 31.0533 55.817 30.712C55.4863 30.3813 54.8677 30.0613 53.961 29.752C53.0437 29.4213 52.473 29.1973 52.249 29.08C51.033 28.4613 50.425 27.5493 50.425 26.344C50.425 25.5013 50.761 24.7813 51.433 24.184C52.1157 23.5867 52.953 23.288 53.945 23.288C54.8197 23.288 55.577 23.512 56.217 23.96C56.857 24.3973 57.2837 24.9467 57.497 25.608L56.121 26.184C55.993 25.7573 55.737 25.4053 55.353 25.128C54.9797 24.84 54.521 24.696 53.977 24.696C53.401 24.696 52.9157 24.856 52.521 25.176C52.1263 25.4747 51.929 25.864 51.929 26.344C51.929 26.7387 52.0837 27.08 52.393 27.368C52.7343 27.656 53.4757 27.9973 54.617 28.392C55.7797 28.7867 56.6063 29.272 57.097 29.848C57.5983 30.4133 57.849 31.112 57.849 31.944ZM62.0625 35.128C61.4225 35.128 60.8892 34.9307 60.4625 34.536C60.0465 34.1413 59.8332 33.592 59.8225 32.888V28.504H58.4465V27.16H59.8225V24.76H61.2945V27.16H63.2145V28.504H61.2945V32.408C61.2945 32.9307 61.3958 33.288 61.5985 33.48C61.8012 33.6613 62.0305 33.752 62.2865 33.752C62.4038 33.752 62.5158 33.7413 62.6225 33.72C62.7398 33.688 62.8465 33.6507 62.9425 33.608L63.4065 34.92C63.0225 35.0587 62.5745 35.128 62.0625 35.128ZM71.7009 27.16L66.7889 38.456H65.2689L67.0929 34.504L63.8609 27.16H65.4609L67.7969 32.792H67.8289L70.1009 27.16H71.7009ZM73.9774 23.544V35H72.5054V23.544H73.9774ZM79.2129 35.256C78.0609 35.256 77.1115 34.8613 76.3649 34.072C75.6182 33.2827 75.2449 32.2853 75.2449 31.08C75.2449 29.8853 75.6075 28.8933 76.3329 28.104C77.0582 27.304 77.9862 26.904 79.1169 26.904C80.2795 26.904 81.2022 27.2827 81.8849 28.04C82.5782 28.7867 82.9249 29.8373 82.9249 31.192L82.9089 31.352H76.7489C76.7702 32.12 77.0262 32.7387 77.5169 33.208C78.0075 33.6773 78.5942 33.912 79.2769 33.912C80.2155 33.912 80.9515 33.4427 81.4849 32.504L82.7969 33.144C82.4449 33.8053 81.9542 34.3227 81.3249 34.696C80.7062 35.0693 80.0022 35.256 79.2129 35.256ZM76.8609 30.136H81.3569C81.3142 29.592 81.0902 29.144 80.6849 28.792C80.2902 28.4293 79.7569 28.248 79.0849 28.248C78.5302 28.248 78.0502 28.4187 77.6449 28.76C77.2502 29.1013 76.9889 29.56 76.8609 30.136ZM94.7466 31.896C94.7466 32.856 94.3893 33.656 93.6746 34.296C92.9706 34.936 92.096 35.256 91.0506 35.256C90.2293 35.256 89.488 35.0107 88.8266 34.52C88.1546 34.008 87.7013 33.3413 87.4666 32.52L88.8106 31.96C88.9813 32.568 89.2586 33.0373 89.6426 33.368C90.0373 33.688 90.5066 33.848 91.0506 33.848C91.648 33.848 92.1653 33.6613 92.6026 33.288C93.0293 32.904 93.2426 32.44 93.2426 31.896C93.2426 31.352 93.0186 30.8933 92.5706 30.52C92.1333 30.1467 91.6053 29.96 90.9866 29.96H90.0426V28.584H90.8746C91.4613 28.584 91.9413 28.424 92.3146 28.104C92.688 27.7733 92.8746 27.3467 92.8746 26.824C92.8746 26.344 92.6986 25.9547 92.3466 25.656C91.9946 25.3573 91.5306 25.208 90.9546 25.208C90.0266 25.208 89.392 25.6827 89.0506 26.632L87.6906 26.056C87.936 25.384 88.3466 24.84 88.9226 24.424C89.4986 24.008 90.176 23.8 90.9546 23.8C91.9253 23.8 92.7413 24.088 93.4026 24.664C94.0533 25.2187 94.3786 25.9387 94.3786 26.824C94.3786 27.88 93.888 28.664 92.9066 29.176V29.24C93.4826 29.4853 93.9306 29.8427 94.2506 30.312C94.5813 30.7813 94.7466 31.3093 94.7466 31.896Z" fill="white"/>
</svg>
