<svg width="16" height="16" viewBox="0 0 16 16" fill="none" xmlns="http://www.w3.org/2000/svg">
<path d="M3.54594 9.66844L2.989 11.7476L0.953406 11.7906C0.345063 10.6623 0 9.37131 0 7.99944C0 6.67284 0.322625 5.42184 0.8945 4.32031H0.894937L2.70719 4.65256L3.50106 6.45394C3.33491 6.93834 3.24434 7.45834 3.24434 7.99944C3.24441 8.58669 3.35078 9.14934 3.54594 9.66844Z" fill="#FBBB00"/>
<path d="M15.8601 6.50781C15.952 6.99175 15.9999 7.49153 15.9999 8.00231C15.9999 8.57506 15.9397 9.13375 15.825 9.67266C15.4355 11.5065 14.4179 13.1078 13.0083 14.241L13.0078 14.2406L10.7252 14.1241L10.4022 12.1074C11.3375 11.5588 12.0685 10.7003 12.4536 9.67266H8.17578V6.50781H12.516H15.8601Z" fill="#518EF8"/>
<path d="M13.0081 14.2372L13.0085 14.2376C11.6376 15.3396 9.89602 15.9989 8.00021 15.9989C4.95361 15.9989 2.30483 14.2961 0.953613 11.7902L3.54614 9.66797C4.22174 11.471 5.96108 12.7546 8.00021 12.7546C8.87668 12.7546 9.6978 12.5176 10.4024 12.104L13.0081 14.2372Z" fill="#28B446"/>
<path d="M13.1064 1.84175L10.5147 3.9635C9.78553 3.50769 8.92353 3.24437 8.00003 3.24437C5.91475 3.24437 4.14287 4.58678 3.50112 6.4545L0.894969 4.32087H0.894531C2.22597 1.75384 4.90816 0 8.00003 0C9.94112 0 11.7209 0.691437 13.1064 1.84175Z" fill="#F14336"/>
</svg>
