<svg width="20" height="20" viewBox="0 0 20 20" fill="none" xmlns="http://www.w3.org/2000/svg">
<circle cx="10" cy="10" r="10" fill="#BABABA"/>
<path d="M10.0003 15C13.0003 15 15.3337 12.4167 16.3337 10.9167C16.7503 10.3333 16.7503 9.58333 16.3337 9C15.3337 7.58333 13.0003 5 10.0003 5C7.00033 5 4.66699 7.58333 3.66699 9.08333C3.25033 9.66667 3.25033 10.4167 3.66699 10.9167C4.66699 12.4167 7.00033 15 10.0003 15ZM10.0003 7.5C11.417 7.5 12.5003 8.58333 12.5003 10C12.5003 11.4167 11.417 12.5 10.0003 12.5C8.58366 12.5 7.50033 11.4167 7.50033 10C7.50033 8.58333 8.58366 7.5 10.0003 7.5Z" fill="black"/>
<path fill-rule="evenodd" clip-rule="evenodd" d="M15.8045 14.862L14.9379 13.9954L13.6092 12.6667L7.25674 6.31413L6.2801 5.33748L5.13814 4.1955C4.87748 3.93483 4.45615 3.93483 4.19549 4.1955C3.93484 4.45616 3.93484 4.87749 4.19549 5.13815L5.68812 6.6308L6.85542 7.79811L11.724 12.6667L11.77 12.7127L12.6666 13.6094L13.0572 14L14.8619 15.8047C14.9919 15.9347 15.1625 16 15.3332 16C15.5038 16 15.6745 15.9347 15.8045 15.8047C16.0652 15.544 16.0652 15.1227 15.8045 14.862" fill="black"/>
</svg>
