<svg width="18" height="21" viewBox="0 0 18 21" fill="none" xmlns="http://www.w3.org/2000/svg">
<path fill-rule="evenodd" clip-rule="evenodd" d="M14.5227 5.56983V7.10317C16.2451 7.64079 17.5 9.19996 17.5 11.0622V15.9991C17.5 18.3046 15.5886 20.1738 13.2322 20.1738H4.7688C2.41136 20.1738 0.5 18.3046 0.5 15.9991V11.0622C0.5 9.19996 1.75595 7.64079 3.47729 7.10317V5.56983C3.48745 2.58861 5.95667 0.173828 8.98476 0.173828C12.0535 0.173828 14.5227 2.58861 14.5227 5.56983ZM9.00541 1.91284C11.0682 1.91284 12.7448 3.55251 12.7448 5.5698V6.8875H5.25586V5.54993C5.26602 3.54257 6.94265 1.91284 9.00541 1.91284ZM9.88957 14.6288C9.88957 15.1157 9.49328 15.5033 8.99537 15.5033C8.50762 15.5033 8.11133 15.1157 8.11133 14.6288V12.4227C8.11133 11.9457 8.50762 11.5581 8.99537 11.5581C9.49328 11.5581 9.88957 11.9457 9.88957 12.4227V14.6288Z" fill="white"/>
</svg>
