<svg width="81" height="51" viewBox="0 0 81 51" fill="none" xmlns="http://www.w3.org/2000/svg">
<rect width="81" height="51" rx="3" fill="#F9F9F9"/>
<mask id="mask0_10487_14303" style="mask-type:alpha" maskUnits="userSpaceOnUse" x="0" y="0" width="81" height="51">
<rect width="81" height="51" rx="3" fill="#F9F9F9"/>
</mask>
<g mask="url(#mask0_10487_14303)">
<circle opacity="0.8" cx="74.5" cy="44.5" r="48" fill="#F3F3F3" stroke="#E9E9E9"/>
<circle opacity="0.36" cx="-3.5" cy="64.5" r="48" fill="#F3F3F3" stroke="#E9E9E9"/>
</g>
<path d="M56.5338 46.9468V45.6636C56.5338 45.1718 56.2344 44.851 55.7211 44.851C55.4645 44.851 55.1865 44.9365 54.994 45.2145C54.8443 44.9793 54.6304 44.851 54.3096 44.851C54.0958 44.851 53.8819 44.9151 53.7108 45.1504V44.8937H53.2617V46.9468H53.7108V45.8133C53.7108 45.4498 53.9033 45.2787 54.2027 45.2787C54.5021 45.2787 54.6518 45.4712 54.6518 45.8133V46.9468H55.1009V45.8133C55.1009 45.4498 55.3148 45.2787 55.5928 45.2787C55.8922 45.2787 56.0419 45.4712 56.0419 45.8133V46.9468H56.5338ZM63.1849 44.8937H62.4578V44.2735H62.0087V44.8937H61.6024V45.3001H62.0087V46.2411C62.0087 46.7116 62.2012 46.9896 62.7144 46.9896C62.9069 46.9896 63.1208 46.9254 63.2705 46.8399L63.1422 46.4549C63.0138 46.5405 62.8641 46.5619 62.7572 46.5619C62.5433 46.5619 62.4578 46.4335 62.4578 46.2197V45.3001H63.1849V44.8937ZM66.9917 44.851C66.7351 44.851 66.564 44.9793 66.457 45.1504V44.8937H66.0079V46.9468H66.457V45.792C66.457 45.4498 66.6067 45.2573 66.8848 45.2573C66.9703 45.2573 67.0772 45.2787 67.1628 45.3001L67.2911 44.8723C67.2056 44.851 67.0772 44.851 66.9917 44.851ZM61.2388 45.0648C61.0249 44.9151 60.7255 44.851 60.4047 44.851C59.8915 44.851 59.5493 45.1076 59.5493 45.5139C59.5493 45.8561 59.8059 46.0486 60.255 46.1127L60.4689 46.1341C60.7041 46.1769 60.8324 46.2411 60.8324 46.348C60.8324 46.4977 60.6614 46.6046 60.3619 46.6046C60.0625 46.6046 59.8273 46.4977 59.6776 46.3908L59.4637 46.7329C59.699 46.904 60.0198 46.9896 60.3406 46.9896C60.9394 46.9896 61.2816 46.7116 61.2816 46.3266C61.2816 45.963 61.0035 45.7706 60.5758 45.7064L60.3619 45.685C60.1695 45.6636 60.0198 45.6209 60.0198 45.4925C60.0198 45.3428 60.1695 45.2573 60.4047 45.2573C60.6614 45.2573 60.918 45.3642 61.0463 45.4284L61.2388 45.0648ZM73.1723 44.851C72.9157 44.851 72.7446 44.9793 72.6377 45.1504V44.8937H72.1885V46.9468H72.6377V45.792C72.6377 45.4498 72.7874 45.2573 73.0654 45.2573C73.1509 45.2573 73.2579 45.2787 73.3434 45.3001L73.4717 44.8723C73.3862 44.851 73.2579 44.851 73.1723 44.851ZM67.4408 45.9203C67.4408 46.5405 67.8685 46.9896 68.5315 46.9896C68.8309 46.9896 69.0448 46.9254 69.2586 46.7543L69.0448 46.3908C68.8737 46.5191 68.7026 46.5832 68.5101 46.5832C68.1465 46.5832 67.8899 46.3266 67.8899 45.9203C67.8899 45.5353 68.1465 45.2787 68.5101 45.2573C68.7026 45.2573 68.8737 45.3215 69.0448 45.4498L69.2586 45.0862C69.0448 44.9151 68.8309 44.851 68.5315 44.851C67.8685 44.851 67.4408 45.3001 67.4408 45.9203ZM71.5897 45.9203V44.8937H71.1406V45.1504C70.9909 44.9579 70.7771 44.851 70.499 44.851C69.9216 44.851 69.4725 45.3001 69.4725 45.9203C69.4725 46.5405 69.9216 46.9896 70.499 46.9896C70.7984 46.9896 71.0123 46.8826 71.1406 46.6902V46.9468H71.5897V45.9203ZM69.943 45.9203C69.943 45.5567 70.1782 45.2573 70.5632 45.2573C70.9268 45.2573 71.1834 45.5353 71.1834 45.9203C71.1834 46.2838 70.9268 46.5832 70.5632 46.5832C70.1782 46.5619 69.943 46.2838 69.943 45.9203ZM64.575 44.851C63.9762 44.851 63.5485 45.2787 63.5485 45.9203C63.5485 46.5619 63.9762 46.9896 64.5964 46.9896C64.8958 46.9896 65.1952 46.904 65.4305 46.7116L65.2166 46.3908C65.0455 46.5191 64.8317 46.6046 64.6178 46.6046C64.3398 46.6046 64.0618 46.4763 63.9976 46.1127H65.516C65.516 46.0486 65.516 46.0058 65.516 45.9417C65.5374 45.2787 65.1525 44.851 64.575 44.851ZM64.575 45.2359C64.8531 45.2359 65.0455 45.407 65.0883 45.7278H64.019C64.0618 45.4498 64.2542 45.2359 64.575 45.2359ZM75.7173 45.9203V44.0811H75.2682V45.1504C75.1185 44.9579 74.9046 44.851 74.6266 44.851C74.0492 44.851 73.6 45.3001 73.6 45.9203C73.6 46.5405 74.0492 46.9896 74.6266 46.9896C74.926 46.9896 75.1399 46.8826 75.2682 46.6902V46.9468H75.7173V45.9203ZM74.0705 45.9203C74.0705 45.5567 74.3058 45.2573 74.6907 45.2573C75.0543 45.2573 75.3109 45.5353 75.3109 45.9203C75.3109 46.2838 75.0543 46.5832 74.6907 46.5832C74.3058 46.5619 74.0705 46.2838 74.0705 45.9203ZM59.0574 45.9203V44.8937H58.6083V45.1504C58.4586 44.9579 58.2447 44.851 57.9667 44.851C57.3893 44.851 56.9401 45.3001 56.9401 45.9203C56.9401 46.5405 57.3893 46.9896 57.9667 46.9896C58.2661 46.9896 58.48 46.8826 58.6083 46.6902V46.9468H59.0574V45.9203ZM57.3893 45.9203C57.3893 45.5567 57.6245 45.2573 58.0095 45.2573C58.373 45.2573 58.6297 45.5353 58.6297 45.9203C58.6297 46.2838 58.373 46.5832 58.0095 46.5832C57.6245 46.5619 57.3893 46.2838 57.3893 45.9203Z" fill="black"/>
<path d="M67.8258 29.3027H61.0891V41.4074H67.8258V29.3027Z" fill="#FF5F00"/>
<path d="M61.5169 35.3553C61.5169 32.8959 62.6717 30.7145 64.4468 29.303C63.1422 28.2765 61.4955 27.6562 59.6991 27.6562C55.4432 27.6562 52 31.0994 52 35.3553C52 39.6112 55.4432 43.0544 59.6991 43.0544C61.4955 43.0544 63.1422 42.4342 64.4468 41.4076C62.6717 40.0175 61.5169 37.8147 61.5169 35.3553Z" fill="#EB001B"/>
<path d="M76.9151 35.3553C76.9151 39.6112 73.4719 43.0544 69.216 43.0544C67.4196 43.0544 65.7728 42.4342 64.4683 41.4076C66.2647 39.9961 67.3982 37.8147 67.3982 35.3553C67.3982 32.8959 66.2433 30.7145 64.4683 29.303C65.7728 28.2765 67.4196 27.6562 69.216 27.6562C73.4719 27.6562 76.9151 31.1208 76.9151 35.3553Z" fill="#F79E1B"/>
</svg>
