<svg width="81" height="84" viewBox="0 0 81 84" fill="none" xmlns="http://www.w3.org/2000/svg">
<ellipse cx="33.9684" cy="30.5" rx="32.984" ry="30.5" fill="url(#paint0_linear_10449_3416)"/>
<g filter="url(#filter0_d_10449_3416)">
<ellipse cx="55.9961" cy="51.757" rx="11.0713" ry="10.4054" fill="white"/>
<ellipse cx="55.9961" cy="51.757" rx="11.0713" ry="10.4054" stroke="#272727" stroke-width="2"/>
</g>
<path fill-rule="evenodd" clip-rule="evenodd" d="M56.8607 46.9992C56.798 46.5651 56.4021 46.2305 55.923 46.2305C55.4003 46.2305 54.9767 46.6287 54.9767 47.1199V50.5742H51.2959L51.1675 50.5824C50.7056 50.6413 50.3496 51.0134 50.3496 51.4636C50.3496 51.9548 50.7733 52.353 51.2959 52.353H54.9767V55.8078L54.9853 55.9285C55.048 56.3626 55.4439 56.6972 55.923 56.6972C56.4456 56.6972 56.8693 56.299 56.8693 55.8078V52.353H60.5487L60.6771 52.3449C61.139 52.286 61.495 51.9139 61.495 51.4636C61.495 50.9724 61.0714 50.5742 60.5487 50.5742H56.8693V47.1199L56.8607 46.9992Z" fill="black"/>
<path d="M42.3424 19.098L33.953 30.3447L25.6282 19.0994L25.2358 19.3899L25.6282 19.0994C25.4699 18.8855 25.2505 18.7465 25.0103 18.6615C24.7906 18.5653 24.5612 18.5071 24.3272 18.5071C23.9249 18.5071 23.5587 18.6364 23.2599 18.9054L23.249 18.9153L23.2387 18.9257C22.9742 19.1936 22.8281 19.5277 22.8281 19.9068V39.1003C22.8281 39.4876 22.9659 39.8349 23.2387 40.1113L23.249 40.1218L23.2599 40.1316C23.5476 40.3907 23.9087 40.5 24.2939 40.5C24.6791 40.5 25.0401 40.3907 25.3278 40.1316C25.6288 39.8606 25.7929 39.5074 25.7929 39.1003V24.0806L32.7149 33.5768L32.7321 33.6004L32.7519 33.6219C33.0455 33.9391 33.4151 34.1421 33.8516 34.1421H33.9027C34.3708 34.1683 34.7646 33.9578 35.0643 33.607L35.0764 33.5929L35.0874 33.5779L42.0101 24.1337V39.1003C42.0101 39.5074 42.1742 39.8606 42.4752 40.1316L42.486 40.1413L42.4974 40.1504C42.8037 40.3956 43.1765 40.5 43.5758 40.5C43.9626 40.5 44.3211 40.3904 44.6209 40.1504L44.6322 40.1413L44.643 40.1316C44.944 39.8606 45.1081 39.5074 45.1081 39.1003V19.9068C45.1081 19.5075 44.9492 19.1602 44.6436 18.9052C44.3765 18.6449 44.0417 18.5136 43.6704 18.5073C43.1422 18.4568 42.6908 18.6695 42.3555 19.0812L42.3488 19.0894L42.3424 19.098Z" fill="black" stroke="black"/>
<defs>
<filter id="filter0_d_10449_3416" x="31.9248" y="36.3516" width="48.1426" height="46.8125" filterUnits="userSpaceOnUse" color-interpolation-filters="sRGB">
<feFlood flood-opacity="0" result="BackgroundImageFix"/>
<feColorMatrix in="SourceAlpha" type="matrix" values="0 0 0 0 0 0 0 0 0 0 0 0 0 0 0 0 0 0 127 0" result="hardAlpha"/>
<feOffset dy="8"/>
<feGaussianBlur stdDeviation="6"/>
<feColorMatrix type="matrix" values="0 0 0 0 0 0 0 0 0 0 0 0 0 0 0 0 0 0 0.25 0"/>
<feBlend mode="normal" in2="BackgroundImageFix" result="effect1_dropShadow_10449_3416"/>
<feBlend mode="normal" in="SourceGraphic" in2="effect1_dropShadow_10449_3416" result="shape"/>
</filter>
<linearGradient id="paint0_linear_10449_3416" x1="15.8272" y1="9.23498e-08" x2="46.2984" y2="58.964" gradientUnits="userSpaceOnUse">
<stop stop-color="#FFE299"/>
<stop offset="1" stop-color="#F7B202"/>
</linearGradient>
</defs>
</svg>
