<svg width="48" height="48" viewBox="0 0 48 48" fill="none" xmlns="http://www.w3.org/2000/svg">
<circle cx="24" cy="24" r="23.25" stroke="white" stroke-width="1.5"/>
<path d="M22.231 26.0482L22.5012 26.0494C26.5147 26.0841 28.7952 26.9077 28.7952 29.1149C28.7952 31.2701 26.6235 32.0921 22.7673 32.1595L22.231 32.1641C18.0499 32.1641 15.6669 31.3537 15.6669 29.0974C15.6669 26.8436 18.0394 26.0482 22.231 26.0482ZM22.231 27.2982L21.9504 27.2995C18.628 27.3314 16.9169 27.9364 16.9169 29.0974C16.9169 30.2975 18.7298 30.9141 22.231 30.9141C25.7367 30.9141 27.5452 30.3076 27.5452 29.1149C27.5452 27.9147 25.7323 27.2982 22.231 27.2982ZM30.0033 20.6006C30.3197 20.6006 30.5812 20.8358 30.6226 21.1408L30.6283 21.2256L30.6277 22.2713L31.7082 22.2714C32.0534 22.2714 32.3332 22.5512 32.3332 22.8964C32.3332 23.2128 32.0981 23.4743 31.793 23.5157L31.7082 23.5214L30.6277 23.5213L30.6283 24.5673C30.6283 24.9125 30.3485 25.1923 30.0033 25.1923C29.6869 25.1923 29.4254 24.9572 29.384 24.6521L29.3783 24.5673L29.3777 23.5213L28.2999 23.5214C27.9547 23.5214 27.6749 23.2416 27.6749 22.8964C27.6749 22.58 27.91 22.3185 28.2151 22.2771L28.2999 22.2714L29.3777 22.2713L29.3783 21.2256C29.3783 20.8805 29.6581 20.6006 30.0033 20.6006ZM22.231 15.668C24.6895 15.668 26.6627 17.6411 26.6627 20.0996C26.6627 22.5576 24.6893 24.5313 22.231 24.5313C19.7734 24.5313 17.7994 22.5573 17.7994 20.0996C17.7994 17.6414 19.7731 15.668 22.231 15.668ZM22.231 16.918C20.4634 16.918 19.0494 18.3318 19.0494 20.0996C19.0494 21.867 20.4637 23.2813 22.231 23.2813C23.9989 23.2813 25.4127 21.8673 25.4127 20.0996C25.4127 18.3315 23.9992 16.918 22.231 16.918Z" fill="white"/>
</svg>
