<svg width="24" height="24" viewBox="0 0 24 24" fill="none" xmlns="http://www.w3.org/2000/svg">
<path d="M3.87173 19.157C3.87156 19.5122 3.94969 19.8651 4.0995 20.1826L4.09947 20.1827L4.10261 20.1891C4.34647 20.6933 4.80122 21.0542 5.30188 21.3131C5.80952 21.5756 6.43502 21.7705 7.13378 21.9078L7.52498 21.9906L7.52497 21.9907L7.53449 21.9926C8.21916 22.1283 8.92029 22.2218 9.69027 22.2814C9.81499 22.3037 9.94092 22.3164 10.0731 22.3232L10.0858 22.3238L10.0985 22.324L10.5275 22.3314C11.8047 22.3998 13.085 22.3798 14.3722 22.2706C15.2188 22.2123 16.0593 22.0901 16.9062 21.9014L17.1554 21.8486L17.1555 21.8487L17.1659 21.8463C17.7877 21.7053 18.3495 21.512 18.8082 21.2575C19.2598 21.0069 19.6727 20.6625 19.8967 20.19L19.8969 20.1896C20.2054 19.5381 20.2055 18.782 19.8971 18.1307L19.8969 18.1303C19.658 17.6264 19.2052 17.2671 18.7104 17.0089C18.2069 16.7463 17.5847 16.5485 16.8887 16.4049C16.0581 16.2278 15.2162 16.1089 14.3692 16.0491L14.3616 16.0485C12.7911 15.9101 11.2117 15.9101 9.62682 16.0493C8.7809 16.1085 7.94031 16.2274 7.10503 16.4062C6.43315 16.5448 5.81463 16.7511 5.30932 17.0167C4.82196 17.273 4.35135 17.6311 4.10751 18.1207L4.10744 18.1207L4.1027 18.1306C3.94918 18.4504 3.87071 18.8001 3.87173 19.157ZM3.87173 19.157C3.87173 19.1564 3.87173 19.1557 3.87173 19.1551L4.62173 19.1561L3.87173 19.1588C3.87173 19.1582 3.87173 19.1576 3.87173 19.157ZM9.61077 15.9217L9.61078 15.9218L9.62473 15.9206C11.2051 15.7812 12.7946 15.7812 14.375 15.9206L14.3777 15.9208L14.891 15.9643C15.5709 16.0315 16.2458 16.1365 16.9097 16.2782L16.9097 16.2782L16.915 16.2793C18.623 16.6312 19.5958 17.2083 20.006 18.0732C20.3314 18.7607 20.3314 19.5591 20.0058 20.2471C19.5944 21.1146 18.6051 21.697 16.9343 22.0266L16.9343 22.0265L16.927 22.028L16.4068 22.136C15.7354 22.2647 15.0587 22.3524 14.3873 22.3984L14.3873 22.3983L14.3749 22.3993C13.088 22.5089 11.7961 22.5287 10.5517 22.4603L10.5311 22.4592H10.5105C10.3731 22.4592 10.2868 22.4587 10.2139 22.4571L10.0623 22.4514C9.97882 22.447 9.90246 22.4406 9.84293 22.4337C9.81255 22.4302 9.7903 22.427 9.77599 22.4245C9.77444 22.4243 9.77307 22.424 9.77187 22.4238L9.70746 22.4049L9.62589 22.3994C8.77318 22.3415 7.92673 22.218 7.11623 22.0352L7.11625 22.0351L7.10438 22.0326L6.82134 21.9735C5.29802 21.6343 4.393 21.0688 3.99242 20.2438C3.83218 19.9031 3.74954 19.5311 3.75003 19.159L3.75002 19.1553C3.74864 18.7834 3.83077 18.4148 3.9969 18.0669C4.41402 17.2347 5.46541 16.6129 7.07848 16.2807L7.07849 16.2807L7.08433 16.2794C7.92233 16.0998 8.77156 15.98 9.61077 15.9217ZM12.0048 1.5C14.8884 1.5 17.2314 3.84842 17.2314 6.75207C17.2314 9.65572 14.8884 12.0041 12.0048 12.0041C9.12127 12.0041 6.77824 9.65572 6.77824 6.75207C6.77824 3.84842 9.12127 1.5 12.0048 1.5ZM12.0048 1.62863C9.18248 1.62863 6.89996 3.92548 6.89996 6.75207C6.89996 9.57866 9.18248 11.8755 12.0048 11.8755C14.8272 11.8755 17.1097 9.57866 17.1097 6.75207C17.1097 3.92548 14.8272 1.62863 12.0048 1.62863Z" fill="#9B9B9B" stroke="#9B9B9B" stroke-width="1.5"/>
</svg>
