<svg width="24" height="24" viewBox="0 0 24 24" fill="none" xmlns="http://www.w3.org/2000/svg">
<path fill-rule="evenodd" clip-rule="evenodd" d="M10.111 3.33032C9.51991 3.1293 8.90992 3.01932 8.27992 3.00015H8.16993C7.89003 3.00015 7.61097 3.01932 7.32997 3.0603H7.20997C6.90992 3.09931 6.61097 3.16931 6.32093 3.26932C2.58998 4.4903 1.26002 8.54022 2.39003 12.0802C3.03004 13.8891 4.06105 15.5301 5.40101 16.8791C7.34999 18.7591 9.48097 20.419 11.7699 21.839L12.0299 22L12.2799 21.849C14.5609 20.419 16.6798 18.7591 18.6109 16.8891C19.9598 15.5401 20.9899 13.8891 21.6198 12.0802C22.7308 8.54022 21.4008 4.4903 17.7098 3.29032C17.1109 3.08933 16.4808 3.00015 15.8499 3.00015C14.4598 2.99033 13.1109 3.45032 11.9999 4.29929C11.9246 4.24152 11.8352 4.18936 11.7495 4.13931L11.7 4.11029C11.6613 4.08667 11.6105 4.04984 11.5541 4.00891C11.465 3.94422 11.3618 3.86933 11.2699 3.82031L10.8899 3.6503C10.69 3.54032 10.481 3.4603 10.2599 3.38931C10.24 3.3703 10.21 3.34931 10.1699 3.33032H10.111Z" fill="#EA1A1A"/>
</svg>
