<svg width="30" height="30" viewBox="0 0 30 30" fill="none" xmlns="http://www.w3.org/2000/svg">
<path d="M25 13.5V18.5C25 22 23 23.5 20 23.5H10C7 23.5 5 22 5 18.5V11.5C5 8 7 6.5 10 6.5H17" stroke="white" stroke-width="1.5" stroke-miterlimit="10" stroke-linecap="round" stroke-linejoin="round"/>
<path d="M10 12L13.13 14.5C14.16 15.32 15.85 15.32 16.88 14.5L18.06 13.56" stroke="white" stroke-width="1.5" stroke-miterlimit="10" stroke-linecap="round" stroke-linejoin="round"/>
<path d="M22.5 11C23.8807 11 25 9.88071 25 8.5C25 7.11929 23.8807 6 22.5 6C21.1193 6 20 7.11929 20 8.5C20 9.88071 21.1193 11 22.5 11Z" fill="#FF0000" stroke="#FF0000" stroke-width="1.5" stroke-miterlimit="10" stroke-linecap="round" stroke-linejoin="round"/>
</svg>
