<svg width="20" height="19" viewBox="0 0 20 19" fill="none" xmlns="http://www.w3.org/2000/svg">
<path fill-rule="evenodd" clip-rule="evenodd" d="M5.78489 0H14.2142C17.4044 0 20 2.65478 20 5.91891V13.0811C20 16.3452 17.4044 19 14.2142 19C13.8462 19 13.5476 18.6944 13.5476 18.3179C13.5476 17.9414 13.8462 17.6358 14.2142 17.6358C16.6693 17.6358 18.6667 15.5931 18.6667 13.0811V7.36499H15.3831C14.3049 7.3659 13.4258 8.26447 13.4249 9.36858C13.4258 10.4727 14.3049 11.3713 15.3831 11.3722H16.7476C17.1156 11.3722 17.4142 11.6778 17.4142 12.0543C17.4142 12.4308 17.1156 12.7364 16.7476 12.7364H15.3831C13.5689 12.7355 12.0924 11.2248 12.0916 9.36858C12.0924 7.51233 13.5689 6.00168 15.3831 6.00077H18.6667V5.91891C18.6667 3.40692 16.6693 1.36422 14.2142 1.36422H5.78489C3.80622 1.36422 2.14578 2.69934 1.56711 4.52831H10.3547C10.7227 4.52831 11.0213 4.8339 11.0213 5.21043C11.0213 5.58786 10.7227 5.89254 10.3547 5.89254H1.336C1.336 5.89709 1.33533 5.90141 1.33467 5.90573C1.334 5.91004 1.33333 5.91436 1.33333 5.91891V13.0811C1.33333 15.5931 3.32978 17.6358 5.78489 17.6358H10.0258C10.3938 17.6358 10.6924 17.9414 10.6924 18.3179C10.6924 18.6944 10.3938 19 10.0258 19H5.78489C2.59467 19 0 16.3452 0 13.0811V5.91891C0 2.65478 2.59467 0 5.78489 0ZM14.861 9.3071C14.861 8.93057 15.1596 8.62499 15.5276 8.62499H15.8308C16.1988 8.62499 16.4974 8.93057 16.4974 9.3071C16.4974 9.68362 16.1988 9.98921 15.8308 9.98921H15.5276C15.1596 9.98921 14.861 9.68362 14.861 9.3071Z" fill="#FFCD2F"/>
</svg>
