<svg width="20" height="20" viewBox="0 0 20 20" fill="none" xmlns="http://www.w3.org/2000/svg">
<mask id="path-1-inside-1_10449_7054" fill="white">
<path d="M9.61154 0C14.9198 0 19.2231 4.20819 19.2231 9.39926C19.2231 11.849 18.2647 14.0799 16.6946 15.7529L19.7825 18.7636C20.072 19.0459 20.0726 19.5043 19.7839 19.7873C19.5214 20.0446 19.1102 20.0685 18.8202 19.8586L18.737 19.7886L15.6127 16.7417C13.9681 18.0288 11.8818 18.7985 9.61154 18.7985C4.30323 18.7985 0 14.5903 0 9.39926C0 4.20819 4.30323 0 9.61154 0ZM9.61154 1.44774C5.12086 1.44774 1.48044 5.00776 1.48044 9.39926C1.48044 13.7908 5.12086 17.3508 9.61154 17.3508C14.1022 17.3508 17.7426 13.7908 17.7426 9.39926C17.7426 5.00776 14.1022 1.44774 9.61154 1.44774Z"/>
</mask>
<path d="M9.61154 0C14.9198 0 19.2231 4.20819 19.2231 9.39926C19.2231 11.849 18.2647 14.0799 16.6946 15.7529L19.7825 18.7636C20.072 19.0459 20.0726 19.5043 19.7839 19.7873C19.5214 20.0446 19.1102 20.0685 18.8202 19.8586L18.737 19.7886L15.6127 16.7417C13.9681 18.0288 11.8818 18.7985 9.61154 18.7985C4.30323 18.7985 0 14.5903 0 9.39926C0 4.20819 4.30323 0 9.61154 0ZM9.61154 1.44774C5.12086 1.44774 1.48044 5.00776 1.48044 9.39926C1.48044 13.7908 5.12086 17.3508 9.61154 17.3508C14.1022 17.3508 17.7426 13.7908 17.7426 9.39926C17.7426 5.00776 14.1022 1.44774 9.61154 1.44774Z" fill="#FFE3E3"/>
<path d="M16.6946 15.7529L15.6008 14.7264L14.5937 15.7996L15.6474 16.827L16.6946 15.7529ZM19.7825 18.7636L20.8299 17.6898L20.8297 17.6896L19.7825 18.7636ZM19.7839 19.7873L20.834 20.8584V20.8584L19.7839 19.7873ZM18.8202 19.8586L17.854 21.0061L17.8962 21.0415L17.9408 21.0738L18.8202 19.8586ZM18.737 19.7886L17.6898 20.8625L17.729 20.9008L17.7709 20.9361L18.737 19.7886ZM15.6127 16.7417L16.66 15.6678L15.721 14.7522L14.6882 15.5605L15.6127 16.7417ZM9.61154 1.5C14.1232 1.5 17.7231 5.06802 17.7231 9.39926H20.7231C20.7231 3.34836 15.7165 -1.5 9.61154 -1.5V1.5ZM17.7231 9.39926C17.7231 11.4486 16.9233 13.3173 15.6008 14.7264L17.7883 16.7794C19.6061 14.8426 20.7231 12.2495 20.7231 9.39926H17.7231ZM15.6474 16.827L18.7354 19.8376L20.8297 17.6896L17.7417 14.6789L15.6474 16.827ZM18.7352 19.8374C18.4222 19.5322 18.4215 19.0224 18.7337 18.7162L20.834 20.8584C21.7237 19.9861 21.7217 18.5597 20.8299 17.6898L18.7352 19.8374ZM18.7337 18.7162C19.0035 18.4518 19.4088 18.433 19.6995 18.6434L17.9408 21.0738C18.8117 21.704 20.0394 21.6375 20.834 20.8584L18.7337 18.7162ZM19.7863 18.7112L19.7032 18.6412L17.7709 20.9361L17.854 21.0061L19.7863 18.7112ZM19.7843 18.7148L16.66 15.6678L14.5654 17.8156L17.6898 20.8625L19.7843 18.7148ZM14.6882 15.5605C13.3005 16.6465 11.5378 17.2985 9.61154 17.2985V20.2985C12.2257 20.2985 14.6357 19.4111 16.5372 17.923L14.6882 15.5605ZM9.61154 17.2985C5.0999 17.2985 1.5 13.7305 1.5 9.39926H-1.5C-1.5 15.4502 3.50656 20.2985 9.61154 20.2985V17.2985ZM1.5 9.39926C1.5 5.06802 5.0999 1.5 9.61154 1.5V-1.5C3.50656 -1.5 -1.5 3.34836 -1.5 9.39926H1.5ZM9.61154 -0.0522611C4.32419 -0.0522611 -0.0195642 4.14792 -0.0195642 9.39926H2.98044C2.98044 5.86759 5.91753 2.94774 9.61154 2.94774V-0.0522611ZM-0.0195642 9.39926C-0.0195642 14.6506 4.32419 18.8508 9.61154 18.8508V15.8508C5.91752 15.8508 2.98044 12.9309 2.98044 9.39926H-0.0195642ZM9.61154 18.8508C14.8989 18.8508 19.2426 14.6506 19.2426 9.39926H16.2426C16.2426 12.9309 13.3056 15.8508 9.61154 15.8508V18.8508ZM19.2426 9.39926C19.2426 4.14792 14.8989 -0.0522611 9.61154 -0.0522611V2.94774C13.3056 2.94774 16.2426 5.86759 16.2426 9.39926H19.2426Z" fill="white" mask="url(#path-1-inside-1_10449_7054)"/>
</svg>
