<svg width="23" height="25" viewBox="0 0 23 25" fill="none" xmlns="http://www.w3.org/2000/svg">
<path d="M22.6313 12.309C22.6406 11.4537 22.1745 10.6677 21.4215 10.2532L3.87589 0.573884C3.08909 0.128878 2.16439 0.180485 1.4275 0.682175C0.676239 1.19317 0.293837 2.41482 0.507035 3.29807L2.16439 10.1534C2.33359 10.8573 2.96388 11.3539 3.68722 11.353L13.4351 11.353C13.9351 11.3437 14.3412 11.7498 14.3318 12.2498C14.3327 12.7397 13.9342 13.1381 13.4351 13.1466L3.67876 13.1381C2.95457 13.1381 2.32513 13.6322 2.15423 14.3361L0.482499 21.2092C0.280301 22.0205 0.516341 22.8335 1.09163 23.4088C1.15932 23.4765 1.23546 23.5526 1.31245 23.611C2.0561 24.1872 3.02987 24.2624 3.85896 23.8225L21.4046 14.3479C22.1575 13.9503 22.6228 13.1635 22.6313 12.309Z" fill="#FFC32D"/>
</svg>
