<svg width="36" height="36" viewBox="0 0 36 36" fill="none" xmlns="http://www.w3.org/2000/svg">
<g filter="url(#filter0_b_10479_9738)">
<rect width="36" height="36" rx="18" fill="white" fill-opacity="0.2"/>
</g>
<path d="M18.8914 8.09961C19.5847 8.09933 20.2485 8.3729 20.7318 8.858C21.215 9.34309 21.4764 9.9984 21.4554 10.61L21.4637 10.7538C21.4806 10.8955 21.5278 11.0322 21.6045 11.1582C21.7538 11.4067 21.9982 11.587 22.2839 11.6593C22.5696 11.7317 22.8731 11.6903 23.1605 11.5262L23.3206 11.4454C24.5233 10.8937 25.9657 11.3322 26.6328 12.462L27.2323 13.4772C27.2481 13.504 27.2621 13.5316 27.2741 13.56L27.3297 13.6688C27.8659 14.7856 27.4844 16.1141 26.4656 16.789L26.2141 16.9433C26.0826 17.0328 25.9729 17.1496 25.8904 17.2901C25.7415 17.5395 25.7007 17.8366 25.7769 18.1156C25.8531 18.3945 26.0401 18.6323 26.3238 18.7923L26.4871 18.8944C26.9802 19.231 27.3364 19.7271 27.4918 20.2957C27.6671 20.9373 27.5731 21.6206 27.2259 22.2021L26.5809 23.2506L26.4837 23.3985C25.7259 24.4619 24.2545 24.7868 23.1317 24.1543L22.9986 24.0874C22.8598 24.0268 22.71 23.9935 22.5736 23.9898C22.277 23.9884 21.9921 24.1028 21.7823 24.3075C21.5726 24.5121 21.4554 24.7902 21.4562 25.1134L21.4482 25.2806C21.3396 26.5748 20.2294 27.5776 18.8917 27.5776H17.6838C16.2671 27.5776 15.1187 26.4569 15.1201 25.1188L15.1118 24.975C15.0949 24.8334 15.0477 24.6967 14.9671 24.5641C14.8211 24.315 14.5792 24.1332 14.2951 24.059C14.011 23.9848 13.7083 24.0244 13.4153 24.1897L13.2413 24.2745C12.6908 24.5161 12.0698 24.5608 11.4879 24.3994C10.8315 24.2173 10.2764 23.7875 9.95249 23.2169L9.32931 22.1668L9.24637 22.0112C8.67887 20.8423 9.1237 19.437 10.2527 18.8003L10.3557 18.7374C10.6573 18.5337 10.8381 18.1978 10.8381 17.8386C10.8381 17.448 10.6246 17.0871 10.2511 16.8759L10.0995 16.781C9.00979 16.0415 8.67683 14.6057 9.3519 13.4628L9.98676 12.4448C10.6928 11.249 12.2576 10.8364 13.461 11.5099L13.5913 11.5777C13.7241 11.6372 13.8684 11.6688 14.0073 11.6702C14.6198 11.6703 15.1188 11.1903 15.128 10.5751L15.1364 10.3861C15.1865 9.80117 15.4466 9.25144 15.8718 8.83449C16.3516 8.36407 17.0037 8.09961 17.6838 8.09961H18.8914ZM18.8917 9.50956H17.6838C17.3881 9.50956 17.1046 9.62455 16.896 9.82908C16.7111 10.0104 16.598 10.2494 16.5781 10.4726L16.565 10.7696C16.4638 12.0642 15.3553 13.0803 13.9997 13.0801C13.6502 13.0766 13.3057 13.0012 12.9544 12.8427L12.7663 12.7459C12.2304 12.4463 11.547 12.6264 11.2299 13.1632L10.595 14.1812C10.3041 14.6739 10.4496 15.3013 10.9001 15.6076L11.155 15.7652C11.8571 16.2284 12.283 17.0039 12.283 17.8386C12.283 18.6611 11.869 19.43 11.1533 19.9126L11.0009 20.0061C10.4995 20.2892 10.306 20.9005 10.539 21.382L10.5941 21.4858L11.2093 22.5215C11.3538 22.7759 11.5962 22.9636 11.8829 23.0432C12.137 23.1136 12.4083 23.0941 12.6198 23.002L12.7262 22.9513C13.313 22.6171 14.0123 22.5256 14.6686 22.697C15.3249 22.8683 15.8839 23.2885 16.2155 23.8542C16.3938 24.1475 16.5067 24.4739 16.5504 24.8492L16.5701 25.1935C16.6309 25.7413 17.1063 26.1676 17.6838 26.1676H18.8917C19.4757 26.1676 19.9609 25.7295 20.0065 25.1927L20.012 25.0864C20.0087 24.4207 20.2783 23.7812 20.7607 23.3105C21.2431 22.8397 21.8984 22.5767 22.5964 22.5801C22.939 22.589 23.2761 22.664 23.6206 22.8153L23.9296 22.9693C24.4145 23.177 24.9897 23.0254 25.2812 22.6172L25.3521 22.5091L25.9822 21.4845C26.1311 21.2351 26.172 20.938 26.0957 20.659C26.0282 20.4118 25.8733 20.1961 25.6855 20.067L25.4192 19.9028C24.9102 19.567 24.5402 19.0621 24.3808 18.4788C24.2055 17.8373 24.2995 17.154 24.6394 16.5848C24.8254 16.2679 25.0811 15.9953 25.4144 15.7694L25.5716 15.6728C26.0722 15.387 26.2656 14.7757 26.0342 14.2925L25.9651 14.1624L25.9527 14.1351L25.3809 13.1659C25.1104 12.7079 24.5477 12.5099 24.0701 12.6663L23.9616 12.7087L23.8607 12.7589C23.2758 13.0951 22.5779 13.1905 21.9208 13.024C21.2637 12.8576 20.7015 12.4429 20.36 11.8746C20.1817 11.5813 20.0688 11.2549 20.0251 10.8796L20.0123 10.6342C20.021 10.3388 19.9068 10.0526 19.6957 9.84078C19.4847 9.62892 19.1948 9.50956 18.8917 9.50956ZM18.2921 14.6557C20.0935 14.6557 21.5538 16.0807 21.5538 17.8386C21.5538 19.5965 20.0935 21.0215 18.2921 21.0215C16.4908 21.0215 15.0305 19.5965 15.0305 17.8386C15.0305 16.0807 16.4908 14.6557 18.2921 14.6557ZM18.2921 16.0657C17.2888 16.0657 16.4753 16.8594 16.4753 17.8386C16.4753 18.8178 17.2888 19.6115 18.2921 19.6115C19.2955 19.6115 20.109 18.8178 20.109 17.8386C20.109 16.8594 19.2955 16.0657 18.2921 16.0657Z" fill="white"/>
<defs>
<filter id="filter0_b_10479_9738" x="-10" y="-10" width="56" height="56" filterUnits="userSpaceOnUse" color-interpolation-filters="sRGB">
<feFlood flood-opacity="0" result="BackgroundImageFix"/>
<feGaussianBlur in="BackgroundImageFix" stdDeviation="5"/>
<feComposite in2="SourceAlpha" operator="in" result="effect1_backgroundBlur_10479_9738"/>
<feBlend mode="normal" in="SourceGraphic" in2="effect1_backgroundBlur_10479_9738" result="shape"/>
</filter>
</defs>
</svg>
