<svg width="24" height="24" viewBox="0 0 24 24" fill="none" xmlns="http://www.w3.org/2000/svg">
<path fill-rule="evenodd" clip-rule="evenodd" d="M16.9996 2.25C16.5241 2.24984 16.0544 2.35402 15.6235 2.55519C15.1927 2.75636 14.8112 3.04962 14.5061 3.41428C14.2009 3.77894 13.9795 4.20611 13.8574 4.66567C13.7353 5.12523 13.7156 5.60598 13.7996 6.074L9.06958 9.386C9.04593 9.40236 9.02323 9.42006 9.00158 9.439C8.52172 9.06388 7.9461 8.83116 7.34037 8.76737C6.73463 8.70358 6.12316 8.8113 5.57568 9.07823C5.02821 9.34516 4.56676 9.76057 4.24396 10.2771C3.92116 10.7936 3.75 11.3904 3.75 11.9995C3.75 12.6086 3.92116 13.2054 4.24396 13.7219C4.56676 14.2384 5.02821 14.6538 5.57568 14.9208C6.12316 15.1877 6.73463 15.2954 7.34037 15.2316C7.9461 15.1678 8.52172 14.9351 9.00158 14.56C9.0232 14.5793 9.0459 14.5973 9.06958 14.614L13.7996 17.926C13.6592 18.7088 13.8106 19.5158 14.2253 20.1944C14.6399 20.873 15.289 21.376 16.0496 21.6082C16.8102 21.8404 17.6295 21.7857 18.3524 21.4544C19.0754 21.1231 19.6518 20.5382 19.9725 19.8105C20.2932 19.0828 20.336 18.2628 20.0927 17.5057C19.8494 16.7485 19.337 16.1069 18.6524 15.7022C17.9679 15.2975 17.1587 15.1578 16.3781 15.3096C15.5974 15.4615 14.8996 15.8942 14.4166 16.526L9.93758 13.391C10.1376 12.969 10.2496 12.498 10.2496 12C10.2496 11.502 10.1376 11.03 9.93758 10.609L14.4176 7.473C14.7532 7.91227 15.1953 8.25868 15.702 8.47948C16.2088 8.70028 16.7635 8.78817 17.3137 8.73484C17.8639 8.68151 18.3915 8.48872 18.8464 8.1747C19.3013 7.86068 19.6686 7.43581 19.9136 6.94026C20.1586 6.44472 20.2731 5.89488 20.2464 5.34274C20.2196 4.7906 20.0525 4.25441 19.7608 3.78487C19.469 3.31532 19.0624 2.92795 18.5792 2.65937C18.096 2.3908 17.5524 2.2499 16.9996 2.25ZM15.2496 5.5C15.2496 5.03587 15.434 4.59075 15.7621 4.26256C16.0903 3.93437 16.5355 3.75 16.9996 3.75C17.4637 3.75 17.9088 3.93437 18.237 4.26256C18.5652 4.59075 18.7496 5.03587 18.7496 5.5C18.7496 5.96413 18.5652 6.40925 18.237 6.73744C17.9088 7.06563 17.4637 7.25 16.9996 7.25C16.5355 7.25 16.0903 7.06563 15.7621 6.73744C15.434 6.40925 15.2496 5.96413 15.2496 5.5ZM6.99958 10.25C6.53546 10.25 6.09034 10.4344 5.76215 10.7626C5.43396 11.0908 5.24958 11.5359 5.24958 12C5.24958 12.4641 5.43396 12.9092 5.76215 13.2374C6.09034 13.5656 6.53546 13.75 6.99958 13.75C7.46371 13.75 7.90883 13.5656 8.23702 13.2374C8.56521 12.9092 8.74958 12.4641 8.74958 12C8.74958 11.5359 8.56521 11.0908 8.23702 10.7626C7.90883 10.4344 7.46371 10.25 6.99958 10.25ZM16.9996 16.75C16.5355 16.75 16.0903 16.9344 15.7621 17.2626C15.434 17.5908 15.2496 18.0359 15.2496 18.5C15.2496 18.9641 15.434 19.4092 15.7621 19.7374C16.0903 20.0656 16.5355 20.25 16.9996 20.25C17.4637 20.25 17.9088 20.0656 18.237 19.7374C18.5652 19.4092 18.7496 18.9641 18.7496 18.5C18.7496 18.0359 18.5652 17.5908 18.237 17.2626C17.9088 16.9344 17.4637 16.75 16.9996 16.75Z" fill="white"/>
</svg>
