<svg width="20" height="20" viewBox="0 0 20 20" fill="none" xmlns="http://www.w3.org/2000/svg">
<circle cx="10" cy="10" r="10" fill="#BABABA"/>
<path d="M9.99984 15C12.9998 15 15.3332 12.4167 16.3332 10.9167C16.7498 10.3333 16.7498 9.58333 16.3332 9C15.3332 7.58333 12.9998 5 9.99984 5C6.99984 5 4.6665 7.58333 3.6665 9.08333C3.24984 9.66667 3.24984 10.4167 3.6665 10.9167C4.6665 12.4167 6.99984 15 9.99984 15ZM9.99984 7.5C11.4165 7.5 12.4998 8.58333 12.4998 10C12.4998 11.4167 11.4165 12.5 9.99984 12.5C8.58317 12.5 7.49984 11.4167 7.49984 10C7.49984 8.58333 8.58317 7.5 9.99984 7.5Z" fill="black"/>
</svg>
