<svg width="16" height="16" viewBox="0 0 16 16" fill="none" xmlns="http://www.w3.org/2000/svg">
<path d="M6.80471 3.29596C5.34261 2.79713 3.7026 3.16235 2.58742 4.27756C2.29154 4.57347 2.03727 4.82771 1.74136 5.12361C2.17696 5.55924 3.10544 6.48773 3.35919 6.74144L5.38813 5.4727L6.80471 3.29596Z" fill="#FF9000"/>
<path d="M3.35993 6.74088C2.92433 6.30528 1.99585 5.3768 1.7421 5.12305C1.51577 5.34937 1.3213 5.54385 1.09497 5.77017C1.53057 6.2058 2.45905 7.13429 2.7128 7.38801L3.35468 7.31269L3.35993 6.74088Z" fill="#FF4A4A"/>
<path d="M10.8016 14.1835C11.0975 13.8875 11.3518 13.6333 11.6477 13.3374C12.229 12.7561 12.6184 12.0222 12.7739 11.215C12.907 10.5238 12.8631 9.80519 12.6293 9.12012L10.3892 10.3255L9.18378 12.5657L9.66913 13.6981L10.8016 14.1835Z" fill="#FF9000"/>
<path d="M9.18372 12.5654L8.53662 12.5707V13.2126C9.35516 14.0311 9.62715 14.3032 10.1544 14.8304C10.3807 14.6041 10.5752 14.4096 10.8015 14.1833C10.366 13.7477 9.43747 12.8192 9.18372 12.5654Z" fill="#FF4A4A"/>
<path d="M15.2026 0.722156C15.0789 0.697934 13.3749 -0.0565127 11.12 0.47588C9.84196 0.777586 8.67256 1.42792 7.74039 2.36015C7.62431 2.47623 3.47585 6.62466 3.35944 6.74111L4.47294 8.53969L6.27152 9.65319L11.0158 5.84654L15.2026 0.722156Z" fill="#F9F2F8"/>
<path d="M15.2028 0.722656C14.951 0.974454 6.52356 9.40189 6.27173 9.65369L7.38355 11.454L9.18381 12.5658C9.39516 12.3545 13.3201 8.42951 13.5648 8.18485C14.4933 7.25628 15.1461 6.08832 15.449 4.80523C15.9812 2.55119 15.2276 0.849043 15.2028 0.722656Z" fill="#E0DDE8"/>
<path d="M1.3782 15.1935C1.60453 15.4198 1.79901 15.6143 2.02533 15.8406C2.60684 15.2591 3.82406 14.0419 4.16317 13.7028L4.04615 13.1597L3.51604 13.0557C2.9345 13.6372 1.71734 14.8544 1.3782 15.1935Z" fill="#FF4A4A"/>
<path d="M0.736572 13.2468C0.962897 13.4732 1.15737 13.6677 1.3837 13.894L2.86883 12.4088L2.77063 11.8991L2.2217 11.7617C1.99507 11.9883 0.969548 13.0139 0.736572 13.2468Z" fill="#FF9000"/>
<path d="M4.48651 11.4382L3.62901 10.1908L2.29248 9.24414C2.12275 9.52705 1.97686 9.77016 1.80713 10.0531L2.77048 11.2687L3.83939 12.0853H4.27312L4.48651 11.4382Z" fill="#516992"/>
<path d="M3.83932 12.0856L4.64582 13.3444L5.87158 14.1178C6.1545 13.9481 6.39757 13.8022 6.68051 13.6325C6.08601 13.038 4.83678 11.7887 4.48648 11.4385C4.26016 11.6648 4.06565 11.8592 3.83932 12.0856Z" fill="#344F79"/>
<path d="M10.6348 5.29042C9.9195 4.57511 8.76167 4.57502 8.04624 5.29042C7.33258 6.00405 7.33255 7.16523 8.04624 7.87892V7.87896L9.60877 6.97591L10.6348 5.29042Z" fill="#516992"/>
<path d="M8.04517 7.87955C8.76047 8.59477 9.91827 8.59495 10.6337 7.87952C11.349 7.16427 11.3492 6.00641 10.6337 5.29102C10.3205 5.60416 8.36039 7.5643 8.04517 7.87955Z" fill="#344F79"/>
<path d="M9.98693 5.93721C9.62928 5.57952 9.05039 5.57952 8.69265 5.93721C8.33585 6.29404 8.33585 6.87463 8.69265 7.23149L9.60805 6.85261L9.98693 5.93721Z" fill="#A8BAFF"/>
<path d="M8.69263 7.23178C9.05034 7.58941 9.62917 7.5895 9.98691 7.23178V7.23175C10.3446 6.87407 10.3446 6.29521 9.98691 5.9375C9.83032 6.09409 8.85025 7.07416 8.69263 7.23178Z" fill="#7995FF"/>
<path d="M4.48655 11.4381H5.1337V10.791L4.163 9.24408L2.22159 7.87891C1.99526 8.10523 1.80079 8.29971 1.57446 8.52603C1.89877 8.85037 4.1598 11.1114 4.48655 11.4381Z" fill="#F9F2F8"/>
<path d="M4.48672 11.4381C5.13687 12.0883 6.77819 13.7296 7.39884 14.3502C7.62516 14.1239 7.81964 13.9294 8.04597 13.7031L6.99 12.0853L5.13388 10.791C4.90756 11.0173 4.71308 11.2118 4.48672 11.4381Z" fill="#E0DDE8"/>
<path d="M6.27155 9.6533C5.91923 9.30098 3.7141 7.09584 3.35947 6.74121C2.98015 7.12052 2.60081 7.49984 2.22174 7.87891C2.57409 8.23122 4.77919 10.4364 5.13386 10.791L5.99852 10.5517L6.27155 9.6533Z" fill="#E0DDE8"/>
<path d="M8.04599 13.7031C8.42531 13.3238 8.80462 12.9445 9.18369 12.5654C8.83137 12.2131 6.62627 10.008 6.27161 9.65332C5.89229 10.0326 5.51298 10.412 5.13391 10.791C5.48623 11.1434 7.69133 13.3485 8.04599 13.7031Z" fill="#CECCDB"/>
<path d="M3.83914 12.085C3.59207 11.838 2.05453 10.3004 1.80689 10.0527C1.63715 10.3356 1.49127 10.5788 1.32153 10.8617C2.04346 11.5836 2.47829 12.0184 3.19202 12.7321L3.69991 12.5703L3.83914 12.085Z" fill="#344F79"/>
<path d="M5.87174 14.1172C5.62467 13.8701 4.08716 12.3326 3.83951 12.085C3.61318 12.3113 3.41871 12.5058 3.19238 12.7321L5.06284 14.6025C5.34575 14.4328 5.58885 14.2869 5.87174 14.1172Z" fill="#1E3860"/>
</svg>
