<svg width="18" height="18" viewBox="0 0 18 18" fill="none" xmlns="http://www.w3.org/2000/svg">
<g clip-path="url(#clip0_10487_11513)">
<path d="M-9.15527e-05 8.99959C-9.15527e-05 13.9702 4.02933 17.9996 8.99991 17.9996C11.6063 17.9996 13.8833 16.7857 15.5269 15.0151C17.0177 13.4091 17.9999 11.3638 17.9999 8.99959C17.9999 6.35899 16.8627 3.98397 15.0513 2.33761C13.453 0.884975 11.3298 0.105469 8.99991 0.105469C7.2987 0.105469 5.70774 0.471575 4.35086 1.29177C1.74315 2.86801 -9.15527e-05 5.73022 -9.15527e-05 8.99959Z" fill="url(#paint0_linear_10487_11513)"/>
<path d="M4.11942 3.24974C3.54568 2.676 3.65636 1.71237 4.35074 1.29254C5.70762 0.4722 7.29854 0 8.99986 0C11.311 0 13.4184 0.871483 15.0122 2.3034C15.1134 2.39435 15.1709 2.52434 15.1709 2.66044C15.1709 3.08813 14.6538 3.30233 14.3514 2.99989C13.7661 2.41461 12.8171 2.41461 12.2318 2.99989C11.4529 3.77887 10.3964 4.21648 9.29474 4.21648H8.36834C7.5643 4.21648 6.91253 4.86826 6.91253 5.67229V5.75749C6.91253 6.14361 7.06592 6.51388 7.33892 6.78692C7.90743 7.35544 7.90743 8.27721 7.33892 8.84573C6.53329 9.65135 5.22713 9.65135 4.42154 8.84573L3.24716 7.67135C2.7571 7.18129 2.7571 6.38672 3.24716 5.89666L4.11942 5.0244C4.60948 4.53434 4.60948 3.7398 4.11942 3.24974Z" fill="url(#paint1_linear_10487_11513)"/>
<path d="M11.2077 12.0516C12.0158 12.0516 12.4205 11.0746 11.8491 10.5031C11.4471 10.1011 11.4471 9.44933 11.8491 9.04733C12.2511 8.64533 12.9029 8.64533 13.3049 9.04733L13.6314 9.37377C13.9554 9.69784 14.4808 9.69784 14.8049 9.37377C15.2427 8.93598 15.4887 8.34219 15.4887 7.72303C15.4887 7.05837 16.0275 6.51953 16.6922 6.51953C17.2791 6.51953 17.7831 6.94239 17.8789 7.52146C17.9541 7.97584 17.9952 8.44168 17.9996 8.91632C18.0454 13.9286 14.0285 17.9914 9.01603 18.0002C8.67177 18.0008 8.33203 17.982 7.99783 17.9449C7.56897 17.8974 7.38322 17.3777 7.68834 17.0726C7.88849 16.8725 7.88849 16.5479 7.68834 16.3477C7.03332 15.6927 7.03332 14.6307 7.68834 13.9757L8.48443 13.1796C9.20673 12.4573 10.1863 12.0516 11.2077 12.0516Z" fill="url(#paint2_linear_10487_11513)"/>
<path d="M4.01873 9.81913C4.47671 10.2771 4.47671 11.0197 4.01873 11.4776L3.69717 11.7992C3.47022 12.0261 3.47022 12.394 3.69717 12.621C4.06324 12.9871 3.80397 13.613 3.28627 13.613C2.3653 13.613 1.61869 12.8664 1.61869 11.9454C1.61869 11.2717 1.81411 10.6124 2.18128 10.0476L2.20616 10.0093C2.61254 9.3841 3.49147 9.29191 4.01873 9.81913Z" fill="url(#paint3_linear_10487_11513)"/>
<path d="M17.8065 10.8711C16.9516 14.9439 13.3578 17.9929 9.01641 18.0005C8.67215 18.0011 8.33241 17.9823 7.99821 17.9453C7.56935 17.8977 7.38359 17.3781 7.68871 17.0729C7.88886 16.8728 7.88886 16.5482 7.68871 16.3481C7.03369 15.693 7.03369 14.631 7.68871 13.976L8.48481 13.1799C9.20706 12.4577 10.1867 12.0519 11.2081 12.0519C11.8597 12.0519 12.2486 11.4167 12.0754 10.8711H17.8065Z" fill="url(#paint4_linear_10487_11513)"/>
<path d="M-9.15527e-05 8.99971C-9.15527e-05 13.9702 4.02944 17.9997 8.99991 17.9997C9.24379 17.9997 9.48555 17.9902 9.7245 17.9708C13.6743 17.6563 16.9054 14.7915 17.7712 11.0238C17.9208 10.3734 17.9999 9.69571 17.9999 8.99971C17.9999 8.55253 17.9674 8.11312 17.9043 7.68359H0.0955544C0.0323772 8.11312 -9.15527e-05 8.55253 -9.15527e-05 8.99971Z" fill="url(#paint5_linear_10487_11513)"/>
</g>
<defs>
<linearGradient id="paint0_linear_10487_11513" x1="15.2937" y1="2.61823" x2="3.98977" y2="13.9221" gradientUnits="userSpaceOnUse">
<stop stop-color="#A0D4FF"/>
<stop offset="1" stop-color="#0593FC"/>
</linearGradient>
<linearGradient id="paint1_linear_10487_11513" x1="11.0057" y1="0.805836" x2="-0.800296" y2="12.6119" gradientUnits="userSpaceOnUse">
<stop stop-color="#A2E62E"/>
<stop offset="0.1231" stop-color="#97DE30"/>
<stop offset="0.3395" stop-color="#79CB36"/>
<stop offset="0.6234" stop-color="#4AAB3F"/>
<stop offset="0.9609" stop-color="#09804C"/>
<stop offset="1" stop-color="#017B4E"/>
</linearGradient>
<linearGradient id="paint2_linear_10487_11513" x1="16.5547" y1="9.26323" x2="9.04695" y2="16.771" gradientUnits="userSpaceOnUse">
<stop stop-color="#A2E62E"/>
<stop offset="0.1231" stop-color="#97DE30"/>
<stop offset="0.3395" stop-color="#79CB36"/>
<stop offset="0.6234" stop-color="#4AAB3F"/>
<stop offset="0.9609" stop-color="#09804C"/>
<stop offset="1" stop-color="#017B4E"/>
</linearGradient>
<linearGradient id="paint3_linear_10487_11513" x1="4.18892" y1="10.4713" x2="2.22999" y2="12.4302" gradientUnits="userSpaceOnUse">
<stop stop-color="#A2E62E"/>
<stop offset="0.1231" stop-color="#97DE30"/>
<stop offset="0.3395" stop-color="#79CB36"/>
<stop offset="0.6234" stop-color="#4AAB3F"/>
<stop offset="0.9609" stop-color="#09804C"/>
<stop offset="1" stop-color="#017B4E"/>
</linearGradient>
<linearGradient id="paint4_linear_10487_11513" x1="12.502" y1="12.9652" x2="12.502" y2="17.1538" gradientUnits="userSpaceOnUse">
<stop stop-color="#017B4E" stop-opacity="0"/>
<stop offset="0.4693" stop-color="#01764A" stop-opacity="0.469"/>
<stop offset="1" stop-color="#026841"/>
</linearGradient>
<linearGradient id="paint5_linear_10487_11513" x1="8.55471" y1="10.601" x2="6.26059" y2="17.8716" gradientUnits="userSpaceOnUse">
<stop stop-color="#2740B0" stop-opacity="0"/>
<stop offset="0.3153" stop-color="#243BA4" stop-opacity="0.315"/>
<stop offset="0.8855" stop-color="#1B2D84" stop-opacity="0.886"/>
<stop offset="1" stop-color="#192A7D"/>
</linearGradient>
<clipPath id="clip0_10487_11513">
<rect width="18" height="18" fill="white" transform="matrix(-1 0 0 1 17.9999 0)"/>
</clipPath>
</defs>
</svg>
