<svg width="15" height="16" viewBox="0 0 15 16" fill="none" xmlns="http://www.w3.org/2000/svg">
<g clip-path="url(#clip0_10487_11631)">
<path d="M12.5071 13.775C12.4391 13.8176 12.3712 13.8556 12.3091 13.8901C11.6252 14.2735 9.14541 14.658 7.55093 14.6753C7.51179 14.6764 7.4738 14.6764 7.43581 14.6764C7.39782 14.6764 7.35982 14.6764 7.32068 14.6753C5.7262 14.658 3.2464 14.2735 2.56256 13.8901C2.50039 13.8556 2.43247 13.8176 2.36455 13.775C1.97888 13.5413 1.56788 13.197 1.9098 12.649C2.257 12.0686 2.68843 11.5429 3.18999 11.0891C3.30972 10.9809 3.43636 10.8761 3.56991 10.7714C3.81627 10.5779 4.09027 10.3868 4.39881 10.1865H10.4728C10.7767 10.3834 11.045 10.5722 11.289 10.7621C11.4272 10.8692 11.5573 10.9774 11.6816 11.0891C12.1832 11.5429 12.6146 12.0686 12.9618 12.649C13.3037 13.197 12.8927 13.5413 12.5071 13.775Z" fill="#EBE8EF"/>
<path d="M3.60329 11.7794C3.6079 12.2595 3.05645 13.3095 2.36455 13.7757C1.97888 13.542 1.56788 13.1978 1.9098 12.6498C2.257 12.0693 2.68843 11.5436 3.18999 11.0898C3.31376 11.1579 3.41724 11.2576 3.48985 11.3788C3.56247 11.4999 3.60161 11.6382 3.60329 11.7794Z" fill="#5981D1"/>
<path d="M12.961 12.6498C13.3029 13.1978 12.8919 13.542 12.5062 13.7757C11.8143 13.3095 11.2629 12.2595 11.2675 11.7794C11.2692 11.6382 11.3083 11.4999 11.3809 11.3788C11.4535 11.2576 11.557 11.1579 11.6808 11.0898C12.1823 11.5436 12.6138 12.0693 12.961 12.6498Z" fill="#5981D1"/>
<path d="M7.43511 10.7334V11.5554C5.87402 11.5554 4.39466 11.2065 3.57037 10.7737L3.56921 10.7714C3.81558 10.5779 4.08958 10.3868 4.39811 10.1865H4.39927C5.04051 10.5238 6.21939 10.7334 7.43511 10.7334Z" fill="#B8B1C4"/>
<path d="M10.4722 10.1865C10.7762 10.3834 11.0444 10.5722 11.2885 10.7621C10.4642 11.195 8.99634 11.5554 7.43524 11.5554V10.7334C8.65096 10.7334 9.82984 10.5238 10.4722 10.1865Z" fill="#B8B1C4"/>
<path d="M11.3781 10.8331C11.3684 10.8464 11.3558 10.8574 11.3413 10.8653C10.4087 11.3546 8.87528 11.6712 7.43507 11.6712C5.97413 11.6712 4.43606 11.3592 3.51621 10.8768C3.50094 10.8695 3.48814 10.8579 3.47937 10.8434C3.5093 10.8193 3.53924 10.7962 3.56917 10.7721C3.6014 10.7467 3.63479 10.7214 3.66818 10.6949C4.5627 11.1497 6.03169 11.4409 7.43507 11.4409C8.81657 11.4409 10.281 11.1451 11.1858 10.6846C11.2204 10.7099 11.2549 10.7364 11.2883 10.7629C11.3182 10.7859 11.3482 10.8101 11.3781 10.8331Z" fill="white"/>
<path d="M7.55038 10.7343V14.6761C7.51124 14.6773 7.47325 14.6773 7.43525 14.6773C7.39726 14.6773 7.35927 14.6773 7.32013 14.6761V10.7343C7.32013 10.7037 7.33226 10.6744 7.35385 10.6529C7.37544 10.6313 7.40472 10.6191 7.43525 10.6191C7.46579 10.6191 7.49507 10.6313 7.51666 10.6529C7.53825 10.6744 7.55038 10.7037 7.55038 10.7343Z" fill="#B8B1C4"/>
<path d="M13.6038 4.8125C13.643 5.33287 13.6522 6.09039 13.5198 6.47836C13.4542 6.67177 13.2044 6.96994 12.7254 6.90663C12.6928 6.82822 12.678 6.74352 12.6822 6.65868C12.6863 6.57384 12.7094 6.491 12.7496 6.41619H12.7508C12.8337 6.41867 12.9153 6.39389 12.9828 6.34566C13.0504 6.29743 13.1003 6.22839 13.1249 6.1491C13.1877 5.72265 13.2161 5.29185 13.2101 4.86085C13.3426 4.85685 13.4744 4.84067 13.6038 4.8125Z" fill="#4B3956"/>
<path d="M13.3513 3.87891C13.4616 3.87856 13.5689 3.91464 13.6566 3.98155C13.7442 4.04845 13.8073 4.14243 13.8361 4.24889C13.8648 4.35534 13.8576 4.46832 13.8155 4.57025C13.7735 4.67218 13.6989 4.75737 13.6035 4.81257C13.5272 4.85788 13.4401 4.88174 13.3513 4.88165C13.3034 4.88187 13.2556 4.87489 13.2097 4.86093C13.0942 4.82682 12.9947 4.75222 12.9297 4.6508C12.8646 4.54937 12.8383 4.42789 12.8555 4.30862C12.8727 4.18935 12.9323 4.08027 13.0233 4.00136C13.1144 3.92244 13.2308 3.87897 13.3513 3.87891Z" fill="#EBE8EF"/>
<path d="M2.77633 5.08203C2.91586 5.93396 2.93405 7.45983 2.85922 7.92217C2.37454 7.92217 2.12012 7.28438 2.12012 6.49807C2.12012 5.71177 2.29165 5.08203 2.77633 5.08203Z" fill="#5981D1"/>
<path d="M12.7496 6.41633C12.7508 6.44396 12.7508 6.47044 12.7508 6.49807C12.7514 6.63471 12.7429 6.77124 12.7254 6.90676C12.6518 7.4939 12.4088 7.92217 12.0117 7.92217C12.0117 7.15083 12.05 6.14809 12.0945 5.08203C12.562 5.08203 12.7381 5.66802 12.7496 6.41633Z" fill="#5981D1"/>
<path d="M12.0948 5.08159C12.1552 5.47241 12.1852 5.86732 12.1846 6.26278C12.1901 6.82052 12.1322 7.37708 12.0119 7.92173C11.7724 8.95901 11.2739 9.76373 10.4727 10.1862C9.83027 10.5236 8.65139 10.7331 7.43567 10.7331C6.21995 10.7331 5.04107 10.5236 4.39982 10.1862H4.39867C3.59625 9.76373 3.09891 8.95786 2.85945 7.92173C2.73917 7.37708 2.68123 6.82052 2.68676 6.26278C2.6861 5.86732 2.71613 5.47241 2.77656 5.08159C3.16338 2.58108 4.79931 0.630859 7.43567 0.630859C10.072 0.630859 11.708 2.58108 12.0948 5.08159Z" fill="#EBE8EF"/>
<path d="M11.0623 6.03291C11.0623 7.97161 10.2277 9.65935 7.43589 9.65935C4.6441 9.65935 3.80945 7.97161 3.80945 6.03291C3.80945 4.0942 5.24851 2.63672 7.43589 2.63672C9.62326 2.63672 11.0623 4.09305 11.0623 6.03291Z" fill="#4B3956"/>
<path d="M9.41438 4.50282C9.62496 4.50282 9.79567 4.33211 9.79567 4.12153C9.79567 3.91095 9.62496 3.74023 9.41438 3.74023C9.20379 3.74023 9.03308 3.91095 9.03308 4.12153C9.03308 4.33211 9.20379 4.50282 9.41438 4.50282Z" fill="white"/>
</g>
<defs>
<clipPath id="clip0_10487_11631">
<rect width="14.736" height="14.736" fill="white" transform="translate(0.0672607 0.286133)"/>
</clipPath>
</defs>
</svg>
