<svg width="373" height="156" viewBox="0 0 373 156" fill="none" xmlns="http://www.w3.org/2000/svg">
<rect x="17" width="340" height="150" rx="30" fill="#201E23"/>
<g filter="url(#filter0_d_10487_11433)">
<rect x="33.0001" y="63.0332" width="307" height="67.9494" rx="24" fill="url(#paint0_linear_10487_11433)"/>
</g>
<g filter="url(#filter1_f_10487_11433)">
<circle cx="306.435" cy="82.6538" r="9.00534" fill="#775DC7"/>
</g>
<line opacity="0.5" x1="133.559" y1="122.114" x2="240.26" y2="122.114" stroke="white" stroke-width="3" stroke-linecap="round" stroke-linejoin="round"/>
<path d="M197.854 105.101C213.149 98.8755 220.501 81.4305 214.275 66.1368C208.049 50.843 190.602 43.4919 175.307 49.7176C160.012 55.9433 152.661 73.3883 158.887 88.682C165.113 103.976 182.559 111.327 197.854 105.101Z" fill="url(#paint1_radial_10487_11433)"/>
<path d="M196.687 102.14C210.372 96.559 216.94 80.9419 211.359 67.2586C205.777 53.5753 190.159 47.0073 176.474 52.5885C162.79 58.1698 156.221 73.7869 161.803 87.4702C167.385 101.154 183.003 107.722 196.687 102.14Z" fill="url(#paint2_radial_10487_11433)"/>
<path style="mix-blend-mode:screen" d="M165.924 73.9717C164.687 71.6719 165.083 68.3828 165.812 66.1571C167.37 61.4337 171.414 58.0457 175.619 55.7088C188.739 48.3888 203.17 57.4522 204.406 63.2143C205.643 68.9763 199.843 72.0428 192.04 70.1881C184.238 68.3333 178.253 77.063 172.824 77.0877C170.734 77.2467 168.659 76.6158 167.012 75.3195C166.57 74.94 166.202 74.4833 165.924 73.9717Z" fill="url(#paint3_radial_10487_11433)"/>
<g opacity="0.7">
<path style="mix-blend-mode:screen" opacity="0.7" d="M170.512 64.6983C169.883 62.8289 169.358 60.9259 168.941 58.998C164.998 62.8082 162.4 67.7967 161.539 73.2117C160.678 78.6268 161.601 84.1749 164.168 89.02C163.008 84.7651 162.98 80.2807 164.089 76.012C165.197 71.7433 167.403 67.8387 170.487 64.6859L170.512 64.6983Z" fill="url(#paint4_radial_10487_11433)"/>
<path style="mix-blend-mode:screen" opacity="0.7" d="M200.301 55.944C195.761 52.9996 190.397 51.5874 184.996 51.9145C179.595 52.2416 174.441 54.2909 170.289 57.7617C170.665 59.6884 171.152 61.5916 171.748 63.4619C175.675 59.9504 180.6 57.752 185.836 57.1735C191.072 56.5949 196.358 57.6651 200.957 60.2346C200.861 58.7883 200.642 57.3529 200.301 55.944Z" fill="url(#paint5_radial_10487_11433)"/>
<path style="mix-blend-mode:screen" opacity="0.7" d="M207.275 65.317C207.277 64.3708 207.224 63.4253 207.114 62.4854C205.591 60.3523 203.747 58.4672 201.648 56.8965C201.895 58.2486 202.048 59.6161 202.106 60.9893C204.018 62.1892 205.758 63.6452 207.275 65.317Z" fill="url(#paint6_radial_10487_11433)"/>
<path style="mix-blend-mode:screen" opacity="0.7" d="M208.4 66.6157C209.384 67.8373 210.25 69.1498 210.985 70.5353C210.4 68.3988 209.536 66.349 208.413 64.4395C208.438 65.1813 208.437 65.8861 208.4 66.6157Z" fill="url(#paint7_radial_10487_11433)"/>
</g>
<path style="mix-blend-mode:multiply" opacity="0.5" d="M204.604 58.293C205.694 61.233 206.125 64.3764 205.867 67.5012C205.609 70.6261 204.669 73.6563 203.112 76.378C201.555 79.0998 199.42 81.4467 196.857 83.2533C194.294 85.0598 191.366 86.282 188.279 86.8335C185.192 87.385 182.022 87.2524 178.992 86.4451C175.962 85.6378 173.146 84.1754 170.743 82.1612C168.34 80.147 166.408 77.6299 165.084 74.7877C163.76 71.9455 163.076 68.8474 163.08 65.7119V65.5882C160.892 69.9443 159.958 74.8229 160.383 79.679C160.809 84.535 162.576 89.1772 165.487 93.0869C168.399 96.9966 172.34 100.02 176.871 101.819C181.402 103.617 186.344 104.121 191.145 103.273C195.946 102.426 200.416 100.26 204.057 97.0182C207.697 93.7764 210.365 89.5863 211.761 84.9159C213.158 80.2455 213.228 75.2789 211.964 70.5709C210.7 65.863 208.152 61.5992 204.604 58.2559V58.293Z" fill="url(#paint8_radial_10487_11433)"/>
<path style="mix-blend-mode:multiply" opacity="0.5" d="M211.566 73.4277V73.5514C211.566 88.0059 200.19 99.7279 186.155 99.7279C179.864 99.6471 173.822 97.2609 169.175 93.0216C164.527 88.7824 161.597 82.9851 160.941 76.7292C161.002 91.1219 172.354 102.782 186.34 102.782C200.326 102.782 211.752 91.0601 211.752 76.6055C211.753 75.5435 211.691 74.4824 211.566 73.4277Z" fill="url(#paint9_radial_10487_11433)"/>
<path style="mix-blend-mode:multiply" opacity="0.5" d="M188.01 57.9348C191.486 57.9348 194.304 56.5951 194.304 54.9425C194.304 53.2899 191.486 51.9502 188.01 51.9502C184.534 51.9502 181.716 53.2899 181.716 54.9425C181.716 56.5951 184.534 57.9348 188.01 57.9348Z" fill="url(#paint10_radial_10487_11433)"/>
<path style="mix-blend-mode:multiply" opacity="0.5" d="M182.284 56.179C183.913 57.447 185.95 58.0719 188.01 57.9348C190.841 57.9348 193.228 57.0445 194.02 55.8328C192.397 54.553 190.356 53.9227 188.294 54.0646C185.462 54.0522 183.076 54.9548 182.284 56.179Z" fill="url(#paint11_radial_10487_11433)"/>
<path style="mix-blend-mode:multiply" opacity="0.5" d="M207.844 88.3027C206.224 87.9812 205.458 84.9518 206.138 81.5391C206.818 78.1264 208.611 75.6411 210.293 75.9626C211.974 76.284 212.679 79.3011 211.999 82.7138C211.319 86.1265 209.464 88.6737 207.844 88.3027Z" fill="url(#paint12_radial_10487_11433)"/>
<path style="mix-blend-mode:multiply" opacity="0.5" d="M208.982 76.3086C207.414 77.6562 206.4 79.5373 206.138 81.5884C205.582 84.3705 205.99 86.8806 207.028 87.8945C208.595 86.5454 209.608 84.6651 209.873 82.6147C210.417 79.7955 210.021 77.2854 208.982 76.3086Z" fill="url(#paint13_radial_10487_11433)"/>
<path style="mix-blend-mode:multiply" opacity="0.5" d="M181.962 96.0186C181.864 94.3617 184.584 92.8531 188.059 92.6429C191.534 92.4327 194.415 93.5827 194.526 95.2272C194.637 96.8717 191.892 98.3926 188.43 98.6028C184.967 98.813 182.061 97.6631 181.962 96.0186Z" fill="url(#paint14_radial_10487_11433)"/>
<path style="mix-blend-mode:multiply" opacity="0.5" d="M193.884 94.0397C192.183 92.8673 190.107 92.3693 188.059 92.6425C185.24 92.8156 182.903 93.879 182.186 95.1154C183.891 96.2876 185.971 96.7854 188.022 96.5127C190.842 96.3395 193.166 95.3009 193.884 94.0397Z" fill="url(#paint15_radial_10487_11433)"/>
<path style="mix-blend-mode:multiply" opacity="0.5" d="M172.441 80.3395C174.383 77.4337 178.76 76.9515 182.235 79.2761C185.71 81.6007 186.921 85.8171 184.98 88.7352C183.039 91.6533 178.649 92.1232 175.186 89.811C171.724 87.4987 170.487 83.2576 172.441 80.3395Z" fill="url(#paint16_radial_10487_11433)"/>
<path style="mix-blend-mode:multiply" opacity="0.5" d="M182.235 79.2766C179.106 77.1869 175.236 77.3724 173.072 79.5609C171.835 82.3925 173.183 86.0401 176.312 88.1174C179.44 90.1947 183.311 90.0216 185.462 87.833C186.662 84.9644 185.351 81.3538 182.235 79.2766Z" fill="url(#paint17_radial_10487_11433)"/>
<path style="mix-blend-mode:multiply" opacity="0.5" d="M192.646 65.7987C192.114 67.9873 189.579 69.2609 186.97 68.6427C184.361 68.0244 182.679 65.7246 183.199 63.536C183.718 61.3474 186.265 60.0738 188.874 60.7044C191.484 61.335 193.165 63.6102 192.646 65.7987Z" fill="url(#paint18_radial_10487_11433)"/>
<path style="mix-blend-mode:multiply" opacity="0.5" d="M186.971 68.6421C187.999 68.9514 189.102 68.8992 190.096 68.4943C191.091 68.0893 191.917 67.356 192.436 66.4165C192.333 65.3665 191.905 64.3748 191.212 63.5796C190.518 62.7844 189.594 62.2253 188.568 61.9804C187.542 61.7354 186.464 61.8167 185.487 62.2129C184.509 62.6091 183.679 63.3005 183.113 64.1908C183.147 65.2627 183.55 66.2902 184.252 67.1007C184.955 67.9112 185.914 68.4554 186.971 68.6421Z" fill="url(#paint19_radial_10487_11433)"/>
<path style="mix-blend-mode:multiply" opacity="0.5" d="M192.647 87.8454C190.866 85.6568 191.534 82.1576 194.143 80.0308C196.752 77.904 200.326 77.9659 202.107 80.1545C203.887 82.3431 203.219 85.8547 200.61 87.9691C198.001 90.0835 194.44 90.0464 192.647 87.8454Z" fill="url(#paint20_radial_10487_11433)"/>
<path style="mix-blend-mode:multiply" opacity="0.5" d="M194.143 80.0184C193.05 80.8072 192.261 81.9474 191.907 83.2482C191.554 84.5491 191.658 85.9318 192.202 87.1653C193.327 87.8677 194.644 88.2004 195.968 88.1167C197.292 88.0331 198.557 87.5373 199.585 86.6989C200.613 85.8604 201.352 84.7213 201.701 83.4413C202.049 82.1612 201.987 80.8044 201.525 79.5609C200.427 78.7839 199.096 78.4056 197.754 78.4888C196.411 78.5721 195.137 79.1117 194.143 80.0184Z" fill="url(#paint21_radial_10487_11433)"/>
<path style="mix-blend-mode:multiply" opacity="0.5" d="M174.024 60.593C175.075 61.3596 174.617 63.7708 172.997 65.9841C171.377 68.1974 169.213 69.3597 168.162 68.5931C167.111 67.8265 167.581 65.4029 169.189 63.202C170.796 61.001 172.973 59.814 174.024 60.593Z" fill="url(#paint22_radial_10487_11433)"/>
<path style="mix-blend-mode:multiply" opacity="0.5" d="M169.213 68.803C170.781 68.3656 172.13 67.3607 172.997 65.9838C174.308 64.1785 174.864 62.2743 174.456 61.1738C172.89 61.6217 171.544 62.6295 170.672 64.0054C169.349 65.7983 168.805 67.7396 169.213 68.803Z" fill="url(#paint23_radial_10487_11433)"/>
<path style="mix-blend-mode:multiply" opacity="0.5" d="M163.451 83.7279C164.873 82.8871 167.457 84.6306 169.225 87.6229C170.994 90.6152 171.266 93.7311 169.844 94.5596C168.422 95.388 165.837 93.6569 164.069 90.6646C162.3 87.6723 162.028 84.5811 163.451 83.7279Z" fill="url(#paint24_radial_10487_11433)"/>
<path style="mix-blend-mode:multiply" opacity="0.5" d="M170.624 93.4834C170.891 91.4324 170.393 89.3549 169.226 87.6471C167.792 85.1741 165.813 83.6038 164.367 83.542C164.093 85.5877 164.587 87.6621 165.752 89.3658C167.186 91.8017 169.165 93.4215 170.624 93.4834Z" fill="url(#paint25_radial_10487_11433)"/>
<path style="mix-blend-mode:multiply" opacity="0.5" d="M201.983 59.0968C201.513 59.9006 199.757 59.7645 198.05 58.7877C196.344 57.8109 195.342 56.3147 195.812 55.5358C196.282 54.7568 198.038 54.8681 199.745 55.8449C201.451 56.8217 202.453 58.2808 201.983 59.0968Z" fill="url(#paint26_radial_10487_11433)"/>
<path style="mix-blend-mode:multiply" opacity="0.5" d="M195.738 56.302C196.182 57.3805 197.004 58.2599 198.051 58.7749C198.558 59.1376 199.139 59.3844 199.752 59.4976C200.366 59.6109 200.996 59.5879 201.6 59.4303C201.157 58.3511 200.334 57.4714 199.287 56.9573C198.779 56.5961 198.198 56.3503 197.585 56.2372C196.972 56.124 196.342 56.1461 195.738 56.302Z" fill="url(#paint27_radial_10487_11433)"/>
<path style="mix-blend-mode:multiply" opacity="0.5" d="M190.581 101.175C190.359 100.272 191.719 99.1467 193.623 98.7016C195.528 98.2564 197.259 98.5779 197.494 99.4806C197.729 100.383 196.356 101.508 194.452 101.954C192.548 102.399 190.804 102.09 190.581 101.175Z" fill="url(#paint28_radial_10487_11433)"/>
<path style="mix-blend-mode:multiply" opacity="0.5" d="M197.012 98.8503C195.944 98.3733 194.738 98.3073 193.624 98.6648C193.008 98.7581 192.421 98.9845 191.902 99.3283C191.383 99.6722 190.945 100.125 190.619 100.656C191.689 101.127 192.895 101.189 194.007 100.829C194.622 100.738 195.21 100.513 195.729 100.172C196.248 99.83 196.686 99.379 197.012 98.8503Z" fill="url(#paint29_radial_10487_11433)"/>
<path style="mix-blend-mode:multiply" opacity="0.5" d="M162.758 75.0723C163.686 75.0723 164.527 76.5808 164.626 78.5468C164.724 80.5128 164.044 82.145 163.105 82.2563C162.165 82.3675 161.336 80.7478 161.237 78.7817C161.138 76.8157 161.806 75.1712 162.758 75.0723Z" fill="url(#paint30_radial_10487_11433)"/>
<path style="mix-blend-mode:multiply" opacity="0.5" d="M163.773 81.8854C164.447 80.9291 164.746 79.7587 164.613 78.5963C164.64 77.9748 164.532 77.3548 164.298 76.7787C164.063 76.2026 163.707 75.6838 163.253 75.2578C162.582 76.2155 162.283 77.3848 162.412 78.5469C162.385 79.1685 162.492 79.7887 162.727 80.3649C162.962 80.9412 163.319 81.4599 163.773 81.8854Z" fill="url(#paint31_radial_10487_11433)"/>
<path style="mix-blend-mode:multiply" opacity="0.5" d="M178.117 100.161C178.327 99.2581 180.058 98.9242 181.975 99.3323C183.892 99.7403 185.264 100.878 185.054 101.805C184.844 102.733 183.113 103.042 181.196 102.646C179.279 102.25 177.907 101.039 178.117 100.161Z" fill="url(#paint32_radial_10487_11433)"/>
<path style="mix-blend-mode:multiply" opacity="0.5" d="M184.906 101.038C184.176 100.124 183.13 99.5149 181.975 99.3318C181.385 99.1292 180.759 99.0584 180.139 99.1247C179.519 99.1909 178.922 99.3925 178.389 99.7152C179.123 100.624 180.166 101.232 181.319 101.422C181.909 101.621 182.535 101.69 183.155 101.624C183.774 101.557 184.371 101.358 184.906 101.038Z" fill="url(#paint33_radial_10487_11433)"/>
<path style="mix-blend-mode:multiply" opacity="0.5" d="M211.715 75.1469C211.047 75.4066 210.07 74.4668 209.526 73.0572C208.982 71.6476 209.093 70.2999 209.773 70.0402C210.453 69.7805 211.418 70.7203 211.95 72.1299C212.481 73.5395 212.383 74.8996 211.715 75.1469Z" fill="url(#paint34_radial_10487_11433)"/>
<path style="mix-blend-mode:multiply" opacity="0.5" d="M209.353 70.46C209.085 71.3168 209.146 72.243 209.526 73.0566C209.654 73.5179 209.88 73.946 210.19 74.3111C210.499 74.6762 210.885 74.9696 211.319 75.171C211.573 74.3115 211.507 73.3891 211.134 72.5744C211.009 72.1131 210.786 71.6847 210.478 71.3194C210.17 70.9541 209.786 70.6607 209.353 70.46Z" fill="url(#paint35_radial_10487_11433)"/>
<path style="mix-blend-mode:multiply" opacity="0.5" d="M204.307 93.8423C203.751 93.3848 204.085 92.0741 205.049 90.9118C206.014 89.7495 207.238 89.1684 207.782 89.6754C208.326 90.1823 208.005 91.4435 207.04 92.6058C206.076 93.7681 204.802 94.2998 204.307 93.8423Z" fill="url(#paint36_radial_10487_11433)"/>
<path style="mix-blend-mode:multiply" opacity="0.5" d="M207.276 89.4775C206.396 89.6658 205.619 90.1777 205.099 90.9119C204.759 91.2456 204.496 91.6501 204.329 92.0967C204.163 92.5433 204.096 93.021 204.135 93.4961C205.012 93.311 205.789 92.8037 206.311 92.0742C206.65 91.7366 206.911 91.3297 207.078 90.8815C207.244 90.4332 207.312 89.9543 207.276 89.4775Z" fill="url(#paint37_radial_10487_11433)"/>
<path style="mix-blend-mode:multiply" opacity="0.5" d="M166.468 80.0187C166.938 79.8703 167.568 80.538 167.89 81.5148C168.211 82.4917 168.088 83.4067 167.63 83.5674C167.173 83.7282 166.53 83.0481 166.208 82.0713C165.887 81.0944 165.961 80.2042 166.468 80.0187Z" fill="url(#paint38_radial_10487_11433)"/>
<path style="mix-blend-mode:multiply" opacity="0.5" d="M167.865 83.3197C168.087 82.7467 168.087 82.1121 167.865 81.5391C167.795 81.2207 167.656 80.9217 167.457 80.6631C167.258 80.4046 167.005 80.1929 166.715 80.043C166.494 80.6159 166.494 81.2506 166.715 81.8235C166.787 82.1413 166.928 82.4396 167.126 82.6979C167.325 82.9563 167.577 83.1684 167.865 83.3197Z" fill="url(#paint39_radial_10487_11433)"/>
<path style="mix-blend-mode:multiply" opacity="0.5" d="M182.148 65.848C182.421 66.1296 182.601 66.4888 182.663 66.8766C182.725 67.2644 182.665 67.6618 182.492 68.0142C182.319 68.3667 182.041 68.6571 181.697 68.8457C181.352 69.0342 180.958 69.1117 180.568 69.0674C180.178 69.0232 179.811 68.8594 179.517 68.5985C179.224 68.3377 179.018 67.9924 178.928 67.6102C178.839 67.2279 178.869 66.8272 179.016 66.4631C179.163 66.0989 179.419 65.7891 179.749 65.576C180.104 65.2969 180.555 65.169 181.004 65.2199C181.453 65.2708 181.864 65.4965 182.148 65.848Z" fill="url(#paint40_radial_10487_11433)"/>
<path style="mix-blend-mode:multiply" opacity="0.5" d="M179.502 68.3215C179.808 68.4654 180.147 68.5252 180.484 68.4948C180.821 68.4644 181.143 68.3448 181.419 68.1483C181.741 67.9663 182.001 67.6899 182.162 67.3562C182.324 67.0224 182.379 66.6474 182.321 66.2812C181.999 66.1431 181.646 66.0909 181.298 66.1296C180.95 66.1683 180.617 66.2967 180.333 66.5022C180.049 66.7078 179.823 66.9834 179.678 67.3022C179.532 67.6211 179.471 67.9722 179.502 68.3215Z" fill="url(#paint41_radial_10487_11433)"/>
<path style="mix-blend-mode:multiply" opacity="0.5" d="M195.973 60.1352C195.787 60.5927 194.872 60.6545 193.908 60.2712C192.943 59.8879 192.325 59.2202 192.51 58.7627C192.696 58.3052 193.611 58.2433 194.563 58.6267C195.515 59.01 196.146 59.6777 195.973 60.1352Z" fill="url(#paint42_radial_10487_11433)"/>
<path style="mix-blend-mode:multiply" opacity="0.5" d="M192.523 59.1587C192.836 59.6846 193.327 60.0798 193.908 60.2716C194.199 60.4206 194.519 60.5045 194.846 60.5173C195.173 60.5301 195.498 60.4716 195.8 60.3457C195.49 59.8207 194.997 59.4288 194.415 59.2453C194.125 59.095 193.805 59.0095 193.479 58.9946C193.152 58.9796 192.826 59.0356 192.523 59.1587Z" fill="url(#paint43_radial_10487_11433)"/>
<path style="mix-blend-mode:multiply" opacity="0.5" d="M204.184 80.2782C203.868 80.2627 203.565 80.1491 203.316 79.9532C203.068 79.7573 202.887 79.4889 202.798 79.1854C202.71 78.8818 202.718 78.5581 202.822 78.2595C202.926 77.9608 203.12 77.7019 203.378 77.5189C203.636 77.3358 203.945 77.2378 204.261 77.2383C204.577 77.2388 204.885 77.3379 205.143 77.5217C205.4 77.7056 205.594 77.9651 205.697 78.2641C205.8 78.5631 205.807 78.8868 205.717 79.1901C205.654 79.5355 205.458 79.8424 205.171 80.0457C204.885 80.2489 204.531 80.3323 204.184 80.2782Z" fill="url(#paint44_radial_10487_11433)"/>
<path style="mix-blend-mode:multiply" opacity="0.5" d="M204.543 77.4336C204.289 77.5115 204.06 77.6539 203.878 77.8468C203.696 78.0397 203.567 78.2765 203.504 78.5341C203.405 78.8054 203.388 79.0996 203.453 79.3807C203.519 79.6619 203.666 79.9177 203.875 80.1168C204.128 80.0388 204.357 79.8965 204.54 79.7036C204.722 79.5107 204.851 79.2739 204.914 79.0163C205.013 78.745 205.03 78.4508 204.964 78.1696C204.898 77.8885 204.752 77.6327 204.543 77.4336Z" fill="url(#paint45_radial_10487_11433)"/>
<path style="mix-blend-mode:multiply" opacity="0.5" d="M174.407 55.7461C174.988 56.488 174.222 58.0707 172.676 59.2948C171.13 60.5189 169.424 60.9146 168.842 60.1851C168.261 59.4555 169.028 57.8728 170.574 56.6487C172.119 55.4246 173.888 55.0165 174.407 55.7461Z" fill="url(#paint46_radial_10487_11433)"/>
<path style="mix-blend-mode:multiply" opacity="0.5" d="M169.522 60.5309C170.691 60.5262 171.815 60.0852 172.676 59.2944C173.199 58.9561 173.641 58.5074 173.973 57.9797C174.304 57.4521 174.515 56.8584 174.592 56.2402C173.424 56.2473 172.301 56.688 171.439 57.4767C170.916 57.815 170.473 58.2637 170.142 58.7913C169.811 59.319 169.599 59.9127 169.522 60.5309Z" fill="url(#paint47_radial_10487_11433)"/>
<path style="mix-blend-mode:multiply" opacity="0.5" d="M199.262 94.1017C199.472 94.4603 199.126 95.0414 198.483 95.4124C197.84 95.7833 197.16 95.771 196.95 95.4124C196.74 95.0538 197.098 94.4603 197.741 94.1017C198.384 93.7431 199.064 93.7308 199.262 94.1017Z" fill="url(#paint48_radial_10487_11433)"/>
<path style="mix-blend-mode:multiply" opacity="0.5" d="M200.548 91.9999C200.672 92.2101 200.462 92.5687 200.078 92.7913C199.695 93.0139 199.275 93.0139 199.139 92.7913C199.002 92.5687 199.237 92.2225 199.621 91.9999C200.004 91.7774 200.425 91.7774 200.548 91.9999Z" fill="url(#paint49_radial_10487_11433)"/>
<path style="mix-blend-mode:multiply" opacity="0.5" d="M171.192 88.4638C170.783 88.674 170.14 88.2536 169.769 87.5241C169.398 86.7946 169.448 86.028 169.856 85.8177C170.264 85.6075 170.907 86.028 171.278 86.7699C171.649 87.5117 171.612 88.266 171.192 88.4638Z" fill="url(#paint50_radial_10487_11433)"/>
<path style="mix-blend-mode:multiply" opacity="0.5" d="M172.651 90.1328C172.403 90.2565 172.02 90.0092 171.797 89.5641C171.575 89.1189 171.6 88.6614 171.797 88.5254C171.995 88.3894 172.44 88.6614 172.663 89.1066C172.886 89.5517 172.861 90.0092 172.651 90.1328Z" fill="url(#paint51_radial_10487_11433)"/>
<path style="mix-blend-mode:multiply" opacity="0.5" d="M165.54 79.4618C165.318 79.4618 165.095 79.1898 165.046 78.7817C164.996 78.3737 165.145 78.0398 165.367 78.0151C165.59 77.9904 165.812 78.2871 165.862 78.6828C165.911 79.0785 165.763 79.4371 165.54 79.4618Z" fill="url(#paint52_radial_10487_11433)"/>
<path style="mix-blend-mode:multiply" opacity="0.5" d="M208.178 72.7225C207.844 72.7225 207.523 72.3269 207.449 71.7457C207.375 71.1646 207.597 70.6576 207.919 70.6082C208.24 70.5587 208.574 71.0162 208.648 71.5973C208.722 72.1785 208.512 72.6854 208.178 72.7225Z" fill="url(#paint53_radial_10487_11433)"/>
<path style="mix-blend-mode:multiply" opacity="0.5" d="M207.795 74.7633C207.573 74.7633 207.363 74.4913 207.313 74.1203C207.264 73.7494 207.412 73.4032 207.622 73.3785C207.833 73.3537 208.055 73.6381 208.105 74.0214C208.154 74.4047 208.006 74.7386 207.795 74.7633Z" fill="url(#paint54_radial_10487_11433)"/>
<path style="mix-blend-mode:multiply" opacity="0.5" d="M175.124 98.1452C174.865 98.479 174.184 98.3678 173.616 97.9103C173.047 97.4527 172.775 96.8221 173.034 96.4883C173.294 96.1544 173.974 96.2657 174.555 96.7232C175.137 97.1807 175.433 97.8237 175.124 98.1452Z" fill="url(#paint55_radial_10487_11433)"/>
<path style="mix-blend-mode:multiply" opacity="0.5" d="M177.597 98.5656C177.449 98.7635 177.029 98.6893 176.682 98.4173C176.336 98.1452 176.175 97.7495 176.336 97.5517C176.497 97.3539 176.905 97.4157 177.251 97.7001C177.597 97.9845 177.758 98.3678 177.597 98.5656Z" fill="url(#paint56_radial_10487_11433)"/>
<path style="mix-blend-mode:multiply" opacity="0.5" d="M173.257 95.1656C173.096 95.3634 172.688 95.3016 172.341 95.0296C171.995 94.7575 171.834 94.3619 171.995 94.164C172.156 93.9662 172.564 94.028 172.91 94.3124C173.257 94.5968 173.417 94.9678 173.257 95.1656Z" fill="url(#paint57_radial_10487_11433)"/>
<path style="mix-blend-mode:screen" opacity="0.5" d="M176.286 56.8838C176.15 56.5005 176.595 55.9812 177.288 55.7215C177.98 55.4618 178.648 55.5978 178.796 55.9812C178.945 56.3645 178.487 56.8962 177.795 57.1435C177.102 57.3908 176.422 57.2795 176.286 56.8838ZM175.569 58.8993C175.989 58.7385 176.261 58.4294 176.187 58.1945C176.113 57.9595 175.68 57.8853 175.26 58.0337C174.839 58.1821 174.567 58.5036 174.654 58.7385C174.74 58.9735 175.124 58.9982 175.569 58.8993ZM180.738 56.9827C181.158 56.8343 181.43 56.5128 181.344 56.2779C181.257 56.043 180.849 55.9688 180.429 56.1172C180.008 56.2655 179.736 56.587 179.823 56.822C179.909 57.0569 180.317 57.1311 180.738 56.9827ZM198.866 61.5701C198.99 61.1744 199.657 61.0137 200.362 61.2239C201.067 61.4341 201.599 61.9287 201.426 62.3243C201.253 62.72 200.634 62.8808 199.93 62.6706C199.225 62.4604 198.755 61.9658 198.866 61.5701ZM202.403 64.278C202.835 64.414 203.244 64.278 203.318 64.0802C203.392 63.8823 203.095 63.5361 202.662 63.4001C202.23 63.2641 201.834 63.4001 201.76 63.6103C201.685 63.8205 201.982 64.1543 202.403 64.278Z" fill="url(#paint58_radial_10487_11433)"/>
<g filter="url(#filter2_d_10487_11433)">
<circle cx="203.039" cy="96.3711" r="8.51856" fill="white"/>
<circle cx="203.039" cy="96.3711" r="8.51856" stroke="#22003C" stroke-width="1.63733"/>
</g>
<path fill-rule="evenodd" clip-rule="evenodd" d="M203.704 92.476C203.656 92.1206 203.352 91.8467 202.983 91.8467C202.581 91.8467 202.255 92.1727 202.255 92.5748V95.4028H199.422L199.324 95.4095C198.968 95.4577 198.694 95.7623 198.694 96.1309C198.694 96.533 199.02 96.859 199.422 96.859H202.255V99.6874L202.262 99.7862C202.31 100.142 202.614 100.415 202.983 100.415C203.385 100.415 203.711 100.089 203.711 99.6874V96.859H206.542L206.641 96.8524C206.996 96.8042 207.27 96.4995 207.27 96.1309C207.27 95.7288 206.944 95.4028 206.542 95.4028H203.711V92.5748L203.704 92.476Z" fill="#21003B"/>
<path d="M192.507 69.6447L186.078 78.8136L179.7 69.6459L179.7 69.6459C179.578 69.4702 179.406 69.3531 179.215 69.2809C179.043 69.2008 178.86 69.1511 178.672 69.1511C178.349 69.1511 178.059 69.2621 177.825 69.4859L177.816 69.4942L177.808 69.503C177.603 69.7241 177.494 69.9947 177.494 70.297V86.0101C177.494 86.3195 177.597 86.6009 177.808 86.8287L177.816 86.8375L177.825 86.8458C178.051 87.0623 178.338 87.156 178.646 87.156C178.954 87.156 179.242 87.0623 179.468 86.8458L179.187 86.5533L179.468 86.8458C179.702 86.6214 179.824 86.3346 179.824 86.0101V73.7793L185.099 81.4784L185.112 81.4979L185.128 81.5157C185.354 81.7756 185.646 81.9511 186 81.9511H186.038C186.418 81.9732 186.73 81.7901 186.96 81.5034L186.969 81.4917L186.978 81.4793L192.253 73.8224V86.0101C192.253 86.3346 192.376 86.6214 192.61 86.8458L192.618 86.8541L192.628 86.8619C192.869 87.0671 193.165 87.156 193.482 87.156C193.791 87.156 194.076 87.0624 194.311 86.8619L194.321 86.8541L194.329 86.8458C194.564 86.6214 194.686 86.3346 194.686 86.0101V70.297C194.686 69.9796 194.568 69.6974 194.33 69.4857C194.122 69.2703 193.856 69.1572 193.558 69.1514C193.132 69.1086 192.775 69.2938 192.517 69.6309L192.511 69.6377L192.507 69.6447Z" fill="#6F008A" stroke="#6F008A" stroke-width="0.818667"/>
<path d="M57.2654 102.934H56.5122V97.0719H57.2654V99.5852H60.1962V97.0719H60.9494V102.934H60.1962V100.289H57.2654V102.934ZM61.7643 100.928C61.7643 100.311 61.9581 99.8008 62.3456 99.397C62.7385 98.9931 63.2325 98.7911 63.8274 98.7911C64.4223 98.7911 64.9135 98.9931 65.301 99.397C65.6939 99.8008 65.8904 100.311 65.8904 100.928C65.8904 101.55 65.6939 102.06 65.301 102.459C64.9135 102.863 64.4223 103.065 63.8274 103.065C63.2325 103.065 62.7385 102.863 62.3456 102.459C61.9581 102.055 61.7643 101.545 61.7643 100.928ZM62.5175 100.928C62.5175 101.359 62.643 101.708 62.8941 101.976C63.1452 102.243 63.4562 102.377 63.8274 102.377C64.1985 102.377 64.5096 102.243 64.7607 101.976C65.0117 101.708 65.1372 101.359 65.1372 100.928C65.1372 100.502 65.0117 100.156 64.7607 99.8882C64.5041 99.6153 64.193 99.4788 63.8274 99.4788C63.4617 99.4788 63.1506 99.6153 62.8941 99.8882C62.643 100.156 62.5175 100.502 62.5175 100.928ZM67.2478 102.934H66.4946V98.9221H67.2151V99.4788H67.2478C67.3624 99.2823 67.5371 99.1186 67.7717 98.9876C68.0119 98.8566 68.2493 98.7911 68.484 98.7911C68.7787 98.7911 69.038 98.8594 69.2617 98.9958C69.4855 99.1322 69.6492 99.3205 69.7529 99.5607C70.0858 99.0477 70.547 98.7911 71.1365 98.7911C71.6004 98.7911 71.9579 98.933 72.2089 99.2168C72.46 99.5006 72.5855 99.9045 72.5855 100.428V102.934H71.8323V100.543C71.8323 100.166 71.7641 99.8963 71.6277 99.7326C71.4912 99.5634 71.262 99.4788 70.94 99.4788C70.6507 99.4788 70.4079 99.6016 70.2114 99.8472C70.0149 100.093 69.9167 100.382 69.9167 100.715V102.934H69.1635V100.543C69.1635 100.166 69.0953 99.8963 68.9588 99.7326C68.8224 99.5634 68.5931 99.4788 68.2711 99.4788C67.9819 99.4788 67.739 99.6016 67.5425 99.8472C67.346 100.093 67.2478 100.382 67.2478 100.715V102.934ZM75.2672 103.065C74.6777 103.065 74.192 102.863 73.8099 102.459C73.4279 102.055 73.2369 101.545 73.2369 100.928C73.2369 100.317 73.4224 99.809 73.7936 99.4051C74.1647 98.9958 74.6395 98.7911 75.218 98.7911C75.8129 98.7911 76.285 98.9849 76.6343 99.3724C76.9891 99.7544 77.1665 100.292 77.1665 100.985L77.1583 101.067H74.0064C74.0173 101.46 74.1483 101.777 74.3994 102.017C74.6504 102.257 74.9506 102.377 75.2999 102.377C75.7802 102.377 76.1568 102.137 76.4297 101.656L77.101 101.984C76.9209 102.322 76.6698 102.587 76.3478 102.778C76.0312 102.969 75.671 103.065 75.2672 103.065ZM74.0637 100.445H76.3642C76.3423 100.166 76.2277 99.9373 76.0203 99.7572C75.8184 99.5716 75.5455 99.4788 75.2017 99.4788C74.9179 99.4788 74.6723 99.5661 74.4649 99.7408C74.2629 99.9154 74.1292 100.15 74.0637 100.445Z" fill="#8577BF"/>
<g clip-path="url(#clip0_10487_11433)">
<path d="M57.9999 82.9996C57.9999 87.9702 62.0293 91.9996 66.9999 91.9996C69.6063 91.9996 71.8833 90.7857 73.5269 89.0151C75.0177 87.4091 75.9999 85.3638 75.9999 82.9996C75.9999 80.359 74.8627 77.984 73.0513 76.3376C71.453 74.885 69.3298 74.1055 66.9999 74.1055C65.2987 74.1055 63.7077 74.4716 62.3509 75.2918C59.7432 76.868 57.9999 79.7302 57.9999 82.9996Z" fill="url(#paint59_linear_10487_11433)"/>
<path d="M62.1194 77.2497C61.5457 76.676 61.6564 75.7124 62.3507 75.2925C63.7076 74.4722 65.2985 74 66.9999 74C69.311 74 71.4184 74.8715 73.0122 76.3034C73.1134 76.3944 73.1709 76.5243 73.1709 76.6604C73.1709 77.0881 72.6538 77.3023 72.3514 76.9999C71.7661 76.4146 70.8171 76.4146 70.2318 76.9999C69.4529 77.7789 68.3964 78.2165 67.2947 78.2165H66.3683C65.5643 78.2165 64.9125 78.8683 64.9125 79.6723V79.7575C64.9125 80.1436 65.0659 80.5139 65.3389 80.7869C65.9074 81.3554 65.9074 82.2772 65.3389 82.8457C64.5333 83.6514 63.2271 83.6514 62.4215 82.8457L61.2472 81.6714C60.7571 81.1813 60.7571 80.3867 61.2472 79.8967L62.1194 79.0244C62.6095 78.5343 62.6095 77.7398 62.1194 77.2497Z" fill="url(#paint60_linear_10487_11433)"/>
<path d="M69.2077 86.0516C70.0158 86.0516 70.4205 85.0746 69.8491 84.5031C69.4471 84.1011 69.4471 83.4493 69.8491 83.0473C70.2511 82.6453 70.9029 82.6453 71.3049 83.0473L71.6314 83.3738C71.9554 83.6978 72.4808 83.6978 72.8049 83.3738C73.2427 82.936 73.4887 82.3422 73.4887 81.723C73.4887 81.0584 74.0275 80.5195 74.6922 80.5195C75.2791 80.5195 75.7831 80.9424 75.8789 81.5215C75.9541 81.9758 75.9952 82.4417 75.9996 82.9163C76.0454 87.9286 72.0285 91.9914 67.016 92.0002C66.6718 92.0008 66.332 91.982 65.9978 91.9449C65.569 91.8974 65.3832 91.3777 65.6883 91.0726C65.8885 90.8725 65.8885 90.5479 65.6883 90.3477C65.0333 89.6927 65.0333 88.6307 65.6883 87.9757L66.4844 87.1796C67.2067 86.4573 68.1863 86.0516 69.2077 86.0516Z" fill="url(#paint61_linear_10487_11433)"/>
<path d="M62.0187 83.8191C62.4767 84.2771 62.4767 85.0197 62.0187 85.4776L61.6972 85.7992C61.4702 86.0261 61.4702 86.394 61.6972 86.621C62.0632 86.9871 61.804 87.613 61.2863 87.613C60.3653 87.613 59.6187 86.8664 59.6187 85.9454C59.6187 85.2717 59.8141 84.6124 60.1813 84.0476L60.2062 84.0093C60.6125 83.3841 61.4915 83.2919 62.0187 83.8191Z" fill="url(#paint62_linear_10487_11433)"/>
<path d="M75.8065 84.8711C74.9516 88.9439 71.3578 91.9929 67.0164 92.0005C66.6721 92.0011 66.3324 91.9823 65.9982 91.9453C65.5693 91.8977 65.3836 91.3781 65.6887 91.0729C65.8889 90.8728 65.8889 90.5482 65.6887 90.3481C65.0337 89.693 65.0337 88.631 65.6887 87.976L66.4848 87.1799C67.2071 86.4577 68.1867 86.0519 69.2081 86.0519C69.8597 86.0519 70.2486 85.4167 70.0754 84.8711H75.8065Z" fill="url(#paint63_linear_10487_11433)"/>
<path d="M57.9999 82.9997C57.9999 87.9702 62.0294 91.9997 66.9999 91.9997C67.2438 91.9997 67.4856 91.9902 67.7245 91.9708C71.6743 91.6563 74.9054 88.7915 75.7712 85.0238C75.9208 84.3734 75.9999 83.6957 75.9999 82.9997C75.9999 82.5525 75.9674 82.1131 75.9043 81.6836H58.0956C58.0324 82.1131 57.9999 82.5525 57.9999 82.9997Z" fill="url(#paint64_linear_10487_11433)"/>
</g>
<path d="M110.691 97.0719V97.7924H108.022V99.6507H110.429V100.355H108.022V102.213H110.691V102.934H107.269V97.0719H110.691ZM113.403 100.895L114.835 102.934H113.951L112.961 101.452L111.987 102.934H111.102L112.519 100.895L111.135 98.9221H111.987L112.977 100.338L113.919 98.9221H114.803L113.403 100.895ZM117.322 102.377C117.682 102.377 117.985 102.24 118.23 101.968C118.476 101.7 118.599 101.354 118.599 100.928C118.599 100.508 118.476 100.161 118.23 99.8882C117.985 99.6153 117.682 99.4788 117.322 99.4788C116.956 99.4788 116.65 99.6153 116.405 99.8882C116.165 100.161 116.044 100.508 116.044 100.928C116.044 101.354 116.165 101.703 116.405 101.976C116.65 102.243 116.956 102.377 117.322 102.377ZM117.444 103.065C117.15 103.065 116.88 103.002 116.634 102.876C116.394 102.751 116.208 102.584 116.077 102.377H116.044L116.077 102.934V104.702H115.324V98.9221H116.044V99.4788H116.077C116.208 99.2714 116.394 99.105 116.634 98.9794C116.88 98.8539 117.15 98.7911 117.444 98.7911C117.974 98.7911 118.421 98.9985 118.787 99.4133C119.164 99.8336 119.352 100.338 119.352 100.928C119.352 101.523 119.164 102.028 118.787 102.442C118.421 102.857 117.974 103.065 117.444 103.065ZM120.715 97.0719V102.934H119.962V97.0719H120.715ZM121.364 100.928C121.364 100.311 121.557 99.8008 121.945 99.397C122.338 98.9931 122.832 98.7911 123.427 98.7911C124.021 98.7911 124.513 98.9931 124.9 99.397C125.293 99.8008 125.49 100.311 125.49 100.928C125.49 101.55 125.293 102.06 124.9 102.459C124.513 102.863 124.021 103.065 123.427 103.065C122.832 103.065 122.338 102.863 121.945 102.459C121.557 102.055 121.364 101.545 121.364 100.928ZM122.117 100.928C122.117 101.359 122.242 101.708 122.493 101.976C122.744 102.243 123.055 102.377 123.427 102.377C123.798 102.377 124.109 102.243 124.36 101.976C124.611 101.708 124.736 101.359 124.736 100.928C124.736 100.502 124.611 100.156 124.36 99.8882C124.103 99.6153 123.792 99.4788 123.427 99.4788C123.061 99.4788 122.75 99.6153 122.493 99.8882C122.242 100.156 122.117 100.502 122.117 100.928ZM126.847 102.934H126.094V98.9221H126.814V99.5771H126.847C126.923 99.3642 127.079 99.1841 127.314 99.0367C127.554 98.8839 127.788 98.8075 128.018 98.8075C128.236 98.8075 128.422 98.8403 128.574 98.9058L128.345 99.6344C128.252 99.5962 128.105 99.5771 127.903 99.5771C127.619 99.5771 127.371 99.6917 127.158 99.9209C126.951 100.15 126.847 100.418 126.847 100.723V102.934ZM130.621 103.065C130.032 103.065 129.546 102.863 129.164 102.459C128.782 102.055 128.591 101.545 128.591 100.928C128.591 100.317 128.776 99.809 129.147 99.4051C129.519 98.9958 129.993 98.7911 130.572 98.7911C131.167 98.7911 131.639 98.9849 131.988 99.3724C132.343 99.7544 132.52 100.292 132.52 100.985L132.512 101.067H129.36C129.371 101.46 129.502 101.777 129.753 102.017C130.004 102.257 130.305 102.377 130.654 102.377C131.134 102.377 131.511 102.137 131.784 101.656L132.455 101.984C132.275 102.322 132.024 102.587 131.702 102.778C131.385 102.969 131.025 103.065 130.621 103.065ZM129.418 100.445H131.718C131.696 100.166 131.582 99.9373 131.374 99.7572C131.172 99.5716 130.899 99.4788 130.556 99.4788C130.272 99.4788 130.026 99.5661 129.819 99.7408C129.617 99.9154 129.483 100.15 129.418 100.445Z" fill="#8577BF"/>
<path d="M296.316 100.559V102.934H295.563V97.0719H297.561C298.068 97.0719 298.499 97.2411 298.854 97.5795C299.214 97.9179 299.395 98.33 299.395 98.8157C299.395 99.3124 299.214 99.7271 298.854 100.06C298.505 100.393 298.074 100.559 297.561 100.559H296.316ZM296.316 97.7924V99.839H297.577C297.877 99.839 298.126 99.7381 298.322 99.5361C298.524 99.3342 298.625 99.094 298.625 98.8157C298.625 98.5428 298.524 98.3054 298.322 98.1035C298.126 97.8961 297.877 97.7924 297.577 97.7924H296.316ZM300.806 102.934H300.053V98.9221H300.774V99.5771H300.806C300.883 99.3642 301.038 99.1841 301.273 99.0367C301.513 98.8839 301.748 98.8075 301.977 98.8075C302.195 98.8075 302.381 98.8403 302.534 98.9058L302.305 99.6344C302.212 99.5962 302.064 99.5771 301.862 99.5771C301.579 99.5771 301.33 99.6917 301.117 99.9209C300.91 100.15 300.806 100.418 300.806 100.723V102.934ZM302.55 100.928C302.55 100.311 302.744 99.8008 303.131 99.397C303.524 98.9931 304.018 98.7911 304.613 98.7911C305.208 98.7911 305.699 98.9931 306.087 99.397C306.48 99.8008 306.676 100.311 306.676 100.928C306.676 101.55 306.48 102.06 306.087 102.459C305.699 102.863 305.208 103.065 304.613 103.065C304.018 103.065 303.524 102.863 303.131 102.459C302.744 102.055 302.55 101.545 302.55 100.928ZM303.303 100.928C303.303 101.359 303.429 101.708 303.68 101.976C303.931 102.243 304.242 102.377 304.613 102.377C304.984 102.377 305.295 102.243 305.547 101.976C305.798 101.708 305.923 101.359 305.923 100.928C305.923 100.502 305.798 100.156 305.547 99.8882C305.29 99.6153 304.979 99.4788 304.613 99.4788C304.248 99.4788 303.936 99.6153 303.68 99.8882C303.429 100.156 303.303 100.502 303.303 100.928ZM311.195 97.5386C311.195 97.6859 311.143 97.8115 311.039 97.9152C310.935 98.0189 310.81 98.0707 310.663 98.0707C310.515 98.0707 310.39 98.0189 310.286 97.9152C310.182 97.8115 310.13 97.6859 310.13 97.5386C310.13 97.3912 310.182 97.2657 310.286 97.162C310.39 97.0583 310.515 97.0064 310.663 97.0064C310.81 97.0064 310.935 97.0583 311.039 97.162C311.143 97.2657 311.195 97.3912 311.195 97.5386ZM308.485 99.6098V102.934H307.732V99.6098H306.979V98.9221H307.732V98.3409C307.732 98.1444 307.764 97.9643 307.83 97.8006C307.901 97.6368 307.996 97.4976 308.116 97.383C308.237 97.263 308.378 97.1702 308.542 97.1047C308.711 97.0392 308.894 97.0064 309.091 97.0064C309.364 97.0064 309.587 97.0528 309.762 97.1456L309.557 97.8087C309.426 97.7432 309.279 97.7105 309.115 97.7105C308.93 97.7105 308.777 97.776 308.657 97.907C308.542 98.0325 308.485 98.2017 308.485 98.4146V98.9221H311.039V102.934H310.286V99.6098H308.485ZM312.775 97.0719V102.934H312.021V97.0719H312.775ZM315.453 103.065C314.864 103.065 314.378 102.863 313.996 102.459C313.614 102.055 313.423 101.545 313.423 100.928C313.423 100.317 313.609 99.809 313.98 99.4051C314.351 98.9958 314.826 98.7911 315.404 98.7911C315.999 98.7911 316.471 98.9849 316.821 99.3724C317.175 99.7544 317.353 100.292 317.353 100.985L317.345 101.067H314.193C314.204 101.46 314.335 101.777 314.586 102.017C314.837 102.257 315.137 102.377 315.486 102.377C315.966 102.377 316.343 102.137 316.616 101.656L317.287 101.984C317.107 102.322 316.856 102.587 316.534 102.778C316.218 102.969 315.857 103.065 315.453 103.065ZM314.25 100.445H316.55C316.529 100.166 316.414 99.9373 316.207 99.7572C316.005 99.5716 315.732 99.4788 315.388 99.4788C315.104 99.4788 314.859 99.5661 314.651 99.7408C314.449 99.9154 314.315 100.15 314.25 100.445Z" fill="white"/>
<path d="M234.523 97.7924V102.934H233.77V97.7924H232.133V97.0719H236.161V97.7924H234.523ZM235.931 100.928C235.931 100.311 236.125 99.8008 236.512 99.397C236.905 98.9931 237.399 98.7911 237.994 98.7911C238.589 98.7911 239.08 98.9931 239.468 99.397C239.861 99.8008 240.057 100.311 240.057 100.928C240.057 101.55 239.861 102.06 239.468 102.459C239.08 102.863 238.589 103.065 237.994 103.065C237.399 103.065 236.905 102.863 236.512 102.459C236.125 102.055 235.931 101.545 235.931 100.928ZM236.684 100.928C236.684 101.359 236.81 101.708 237.061 101.976C237.312 102.243 237.623 102.377 237.994 102.377C238.365 102.377 238.676 102.243 238.927 101.976C239.178 101.708 239.304 101.359 239.304 100.928C239.304 100.502 239.178 100.156 238.927 99.8882C238.671 99.6153 238.36 99.4788 237.994 99.4788C237.628 99.4788 237.317 99.6153 237.061 99.8882C236.81 100.156 236.684 100.502 236.684 100.928ZM244.222 102.934H243.501V102.377H243.468C243.354 102.573 243.176 102.737 242.936 102.868C242.702 102.999 242.456 103.065 242.2 103.065C241.708 103.065 241.329 102.925 241.062 102.647C240.8 102.363 240.669 101.962 240.669 101.444V98.9221H241.422V101.394C241.438 102.049 241.768 102.377 242.412 102.377C242.713 102.377 242.964 102.257 243.166 102.017C243.368 101.771 243.468 101.479 243.468 101.141V98.9221H244.222V102.934ZM245.892 102.934H245.138V98.9221H245.859V99.5771H245.892C245.968 99.3642 246.124 99.1841 246.358 99.0367C246.598 98.8839 246.833 98.8075 247.062 98.8075C247.281 98.8075 247.466 98.8403 247.619 98.9058L247.39 99.6344C247.297 99.5962 247.15 99.5771 246.948 99.5771C246.664 99.5771 246.416 99.6917 246.203 99.9209C245.995 100.15 245.892 100.418 245.892 100.723V102.934ZM248.113 98.9221H248.833V99.4788H248.866C248.98 99.2823 249.155 99.1186 249.39 98.9876C249.63 98.8566 249.878 98.7911 250.135 98.7911C250.626 98.7911 251.002 98.933 251.264 99.2168C251.532 99.4952 251.666 99.8936 251.666 100.412V102.934H250.912V100.461C250.896 99.8063 250.566 99.4788 249.922 99.4788C249.622 99.4788 249.371 99.6016 249.169 99.8472C248.967 100.087 248.866 100.377 248.866 100.715V102.934H248.113V98.9221ZM253.058 101.706C253.058 101.902 253.14 102.066 253.304 102.197C253.473 102.328 253.669 102.393 253.893 102.393C254.21 102.393 254.491 102.276 254.736 102.041C254.988 101.807 255.113 101.531 255.113 101.214C254.878 101.029 254.551 100.936 254.131 100.936C253.825 100.936 253.569 101.01 253.361 101.157C253.159 101.304 253.058 101.487 253.058 101.706ZM254.032 98.7911C254.589 98.7911 255.028 98.9412 255.35 99.2414C255.672 99.5361 255.833 99.9427 255.833 100.461V102.934H255.113V102.377H255.08C254.769 102.835 254.354 103.065 253.836 103.065C253.394 103.065 253.023 102.934 252.723 102.672C252.428 102.41 252.28 102.082 252.28 101.689C252.28 101.274 252.436 100.944 252.747 100.699C253.064 100.453 253.484 100.33 254.008 100.33C254.455 100.33 254.824 100.412 255.113 100.576V100.404C255.113 100.142 255.009 99.9209 254.802 99.7408C254.595 99.5552 254.352 99.4624 254.073 99.4624C253.653 99.4624 253.32 99.6398 253.075 99.9946L252.411 99.5771C252.777 99.0531 253.317 98.7911 254.032 98.7911ZM257.436 102.934H256.683V98.9221H257.403V99.4788H257.436C257.551 99.2823 257.725 99.1186 257.96 98.9876C258.2 98.8566 258.438 98.7911 258.672 98.7911C258.967 98.7911 259.226 98.8594 259.45 98.9958C259.674 99.1322 259.838 99.3205 259.941 99.5607C260.274 99.0477 260.735 98.7911 261.325 98.7911C261.789 98.7911 262.146 98.933 262.397 99.2168C262.648 99.5006 262.774 99.9045 262.774 100.428V102.934H262.021V100.543C262.021 100.166 261.952 99.8963 261.816 99.7326C261.68 99.5634 261.45 99.4788 261.128 99.4788C260.839 99.4788 260.596 99.6016 260.4 99.8472C260.203 100.093 260.105 100.382 260.105 100.715V102.934H259.352V100.543C259.352 100.166 259.284 99.8963 259.147 99.7326C259.011 99.5634 258.781 99.4788 258.459 99.4788C258.17 99.4788 257.927 99.6016 257.731 99.8472C257.534 100.093 257.436 100.382 257.436 100.715V102.934ZM265.456 103.065C264.866 103.065 264.38 102.863 263.998 102.459C263.616 102.055 263.425 101.545 263.425 100.928C263.425 100.317 263.611 99.809 263.982 99.4051C264.353 98.9958 264.828 98.7911 265.406 98.7911C266.001 98.7911 266.473 98.9849 266.823 99.3724C267.177 99.7544 267.355 100.292 267.355 100.985L267.347 101.067H264.195C264.206 101.46 264.337 101.777 264.588 102.017C264.839 102.257 265.139 102.377 265.488 102.377C265.969 102.377 266.345 102.137 266.618 101.656L267.289 101.984C267.109 102.322 266.858 102.587 266.536 102.778C266.22 102.969 265.859 103.065 265.456 103.065ZM264.252 100.445H266.553C266.531 100.166 266.416 99.9373 266.209 99.7572C266.007 99.5716 265.734 99.4788 265.39 99.4788C265.106 99.4788 264.861 99.5661 264.653 99.7408C264.451 99.9154 264.318 100.15 264.252 100.445ZM268.044 98.9221H268.764V99.4788H268.797C268.911 99.2823 269.086 99.1186 269.321 98.9876C269.561 98.8566 269.809 98.7911 270.066 98.7911C270.557 98.7911 270.933 98.933 271.195 99.2168C271.463 99.4952 271.597 99.8936 271.597 100.412V102.934H270.843V100.461C270.827 99.8063 270.497 99.4788 269.853 99.4788C269.553 99.4788 269.302 99.6016 269.1 99.8472C268.898 100.087 268.797 100.377 268.797 100.715V102.934H268.044V98.9221ZM273.861 102.999C273.534 102.999 273.261 102.898 273.042 102.696C272.83 102.494 272.72 102.213 272.715 101.853V99.6098H272.011V98.9221H272.715V97.6941H273.468V98.9221H274.45V99.6098H273.468V101.607C273.468 101.875 273.52 102.058 273.624 102.156C273.727 102.249 273.845 102.295 273.976 102.295C274.036 102.295 274.093 102.29 274.148 102.279C274.208 102.262 274.262 102.243 274.311 102.221L274.549 102.893C274.352 102.964 274.123 102.999 273.861 102.999Z" fill="#8577BF"/>
<g clip-path="url(#clip1_10487_11433)">
<g clip-path="url(#clip2_10487_11433)">
<path d="M251.894 82.9657H250.379C249.742 82.9657 249.112 82.7538 248.605 82.369L246.621 80.8635C245.698 80.1633 245.338 78.959 245.724 77.8668C246.093 76.8229 247.085 76.1127 248.193 76.0996C249.275 76.0867 249.889 76.1209 249.915 76.1224L249.847 77.3132C249.841 77.3129 249.243 77.28 248.207 77.2923C247.598 77.2995 247.052 77.6903 246.849 78.2646C246.636 78.8655 246.834 79.5281 247.342 79.9134L249.326 81.4189C249.627 81.6472 250.001 81.773 250.379 81.773H251.894V82.9657H251.894Z" fill="#FFD064"/>
<path d="M248.606 81.7407L246.622 80.2352C246.033 79.7889 245.674 79.1377 245.591 78.4414C245.48 79.3612 245.859 80.2847 246.622 80.8636L248.606 82.3691C249.113 82.7539 249.743 82.9658 250.379 82.9658H251.894V82.3374H250.379C249.743 82.3374 249.113 82.1255 248.606 81.7407Z" fill="#ECBE6B"/>
<path d="M256.192 82.9657H257.707C258.344 82.9657 258.973 82.7538 259.481 82.369L261.465 80.8635C262.387 80.1633 262.748 78.959 262.362 77.8668C261.992 76.8229 261 76.1127 259.893 76.0996C258.811 76.0867 258.196 76.1209 258.171 76.1224L258.239 77.3132C258.244 77.3129 258.843 77.28 259.879 77.2923C260.488 77.2995 261.034 77.6903 261.237 78.2646C261.45 78.8655 261.251 79.5281 260.744 79.9134L258.76 81.4189C258.459 81.6472 258.085 81.773 257.707 81.773H256.192V82.9657H256.192Z" fill="#FFD064"/>
<path d="M262.362 77.8665C262.189 77.3779 261.88 76.9624 261.486 76.6572C261.656 76.8762 261.793 77.1234 261.888 77.3932C262.275 78.4854 261.914 79.6897 260.991 80.3899L259.007 81.8954C258.5 82.2802 257.87 82.4922 257.234 82.4922H256.192V82.9654H257.707C258.344 82.9654 258.973 82.7535 259.481 82.3687L261.465 80.8632C262.388 80.1629 262.748 78.9587 262.362 77.8665Z" fill="#ECBE6B"/>
<path d="M255.975 87.3343L255.269 86.7996C254.966 86.5697 254.788 86.2112 254.788 85.8307V83.457H253.19V85.8307C253.19 86.2112 253.012 86.5697 252.708 86.7996L252.003 87.3343C251.783 87.501 251.901 87.8517 252.177 87.8517H255.801C256.077 87.8516 256.195 87.501 255.975 87.3343Z" fill="#FFD064"/>
<path d="M255.974 87.3343L255.269 86.7996C254.966 86.5697 254.788 86.2112 254.788 85.8307V83.457H253.959V85.8307C253.959 86.2112 254.137 86.5697 254.441 86.7996L255.146 87.3343C255.366 87.501 255.248 87.8517 254.972 87.8517H255.801C256.077 87.8516 256.194 87.501 255.974 87.3343Z" fill="#ECBE6B"/>
<path d="M258.524 74.3643H249.56C249.389 74.3643 249.25 74.5035 249.25 74.6752V77.8849C249.25 79.2592 249.632 80.6063 250.355 81.7753L251.182 83.1147C252.48 85.2138 255.527 85.2281 256.844 83.1413L257.693 81.7967C258.439 80.6145 258.835 79.2452 258.835 77.8473V74.6752C258.835 74.5035 258.696 74.3643 258.524 74.3643Z" fill="#FFE07D"/>
<path d="M258.525 74.3643H257.088V76.0996C257.088 77.4975 256.692 78.8669 255.946 80.0491L255.098 81.3937C254.158 82.8824 252.338 83.3014 250.901 82.6575L251.183 83.1147C252.481 85.2138 255.529 85.2282 256.846 83.1413L257.694 81.7967C258.44 80.6145 258.836 79.2452 258.836 77.8473V74.6752C258.836 74.5035 258.697 74.3643 258.525 74.3643Z" fill="#FFD064"/>
<path d="M254.04 89.8201C252.339 89.8201 250.688 89.3121 249.266 88.351C247.883 87.4164 246.781 86.102 246.078 84.5498C246.017 84.4134 246.077 84.2529 246.214 84.1912C246.35 84.1294 246.511 84.19 246.572 84.3264C247.933 87.3344 250.864 89.278 254.04 89.278C257.216 89.278 260.148 87.3344 261.509 84.3264C261.57 84.1901 261.731 84.1295 261.867 84.1912C262.004 84.2529 262.064 84.4134 262.002 84.5498C261.3 86.102 260.198 87.4164 258.815 88.351C257.393 89.3121 255.742 89.8201 254.04 89.8201Z" fill="#0DC183"/>
<path d="M262.714 83.9139C262.418 84.6145 261.913 85.0706 261.587 84.9326C261.26 84.7947 261.235 84.1149 261.531 83.4143C261.746 82.9067 262.453 82.0998 262.826 81.6937C262.906 81.606 263.052 81.6677 263.046 81.7866C263.014 82.3372 262.928 83.4064 262.714 83.9139Z" fill="#AAD880"/>
<path d="M262.825 81.6937C262.722 81.8063 262.593 81.9499 262.456 82.1093C262.407 82.6494 262.319 83.2932 262.167 83.6537C261.958 84.1473 261.646 84.5191 261.366 84.6478C261.408 84.7872 261.481 84.8882 261.587 84.9326C261.913 85.0706 262.418 84.6145 262.714 83.9139C262.928 83.4064 263.014 82.3372 263.045 81.7866C263.052 81.6676 262.906 81.606 262.825 81.6937Z" fill="#80CB8E"/>
<path d="M260.731 85.4711C260.753 86.1891 260.5 86.7796 260.165 86.79C259.83 86.8004 259.541 86.2266 259.519 85.5086C259.503 84.9884 259.791 84.0172 259.951 83.5215C259.986 83.4144 260.135 83.4097 260.176 83.5145C260.367 83.9993 260.715 84.9509 260.731 85.4711Z" fill="#AAD880"/>
<path d="M258.707 86.89C258.99 87.5503 258.97 88.1926 258.662 88.3244C258.354 88.4563 257.875 88.0279 257.592 87.3676C257.387 86.8892 257.301 85.8797 257.269 85.3598C257.262 85.2475 257.4 85.1886 257.476 85.271C257.831 85.6528 258.502 86.4117 258.707 86.89Z" fill="#AAD880"/>
<path d="M258.707 86.89C258.502 86.4117 257.831 85.6529 257.476 85.2711C257.4 85.1886 257.262 85.2475 257.269 85.3598C257.278 85.5085 257.292 85.6972 257.311 85.9019C257.642 86.2853 258.012 86.7551 258.155 87.0887C258.353 87.5512 258.402 88.0046 258.308 88.2801C258.436 88.3496 258.559 88.3686 258.662 88.3244C258.97 88.1926 258.99 87.5504 258.707 86.89Z" fill="#80CB8E"/>
<path d="M260.511 88.4281C259.833 88.1916 259.372 87.7436 259.483 87.4274C259.593 87.1112 260.232 87.0466 260.91 87.2831C261.402 87.4545 262.205 88.0716 262.611 88.3987C262.698 88.4693 262.649 88.6107 262.537 88.6115C262.016 88.6157 261.003 88.5995 260.511 88.4281Z" fill="#AAD880"/>
<path d="M258.357 89.9096C257.679 89.6731 257.218 89.225 257.328 88.9088C257.439 88.5927 258.078 88.528 258.756 88.7646C259.248 88.9359 260.051 89.5531 260.457 89.8801C260.544 89.9508 260.495 90.0921 260.382 90.093C259.861 90.0971 258.848 90.0809 258.357 89.9096Z" fill="#AAD880"/>
<path d="M262.611 88.3994C262.446 88.2665 262.216 88.0857 261.967 87.9063C261.419 87.9055 260.545 87.8778 260.099 87.7224C259.864 87.6405 259.656 87.5333 259.488 87.415C259.486 87.4194 259.484 87.4236 259.483 87.4281C259.372 87.7442 259.833 88.1923 260.511 88.4288C261.003 88.6002 262.016 88.6163 262.537 88.6123C262.649 88.6114 262.698 88.47 262.611 88.3994Z" fill="#80CB8E"/>
<path d="M260.457 89.8798C260.292 89.7469 260.061 89.5661 259.813 89.3868C259.265 89.386 258.391 89.3582 257.945 89.2029C257.71 89.121 257.502 89.0138 257.334 88.8955C257.332 88.8999 257.33 88.9041 257.328 88.9085C257.218 89.2247 257.679 89.6727 258.357 89.9093C258.848 90.0806 259.861 90.0968 260.382 90.0927C260.495 90.0918 260.544 89.9505 260.457 89.8798Z" fill="#80CB8E"/>
<path d="M245.367 83.9139C245.663 84.6145 246.168 85.0706 246.495 84.9326C246.821 84.7947 246.846 84.1149 246.55 83.4143C246.336 82.9067 245.629 82.0998 245.256 81.6937C245.175 81.606 245.029 81.6677 245.036 81.7866C245.067 82.3372 245.153 83.4064 245.367 83.9139Z" fill="#AAD880"/>
<path d="M246.549 83.4143C246.335 82.9067 245.628 82.0998 245.255 81.6937C245.174 81.606 245.028 81.6677 245.035 81.7866C245.044 81.94 245.056 82.1337 245.075 82.3442C245.434 82.7601 245.848 83.2855 246.003 83.6536C246.208 84.1387 246.259 84.6137 246.163 84.9059C246.282 84.9616 246.396 84.9739 246.494 84.9326C246.82 84.7947 246.845 84.1149 246.549 83.4143Z" fill="#80CB8E"/>
<path d="M247.349 85.4711C247.326 86.1891 247.58 86.7796 247.914 86.79C248.249 86.8004 248.538 86.2266 248.561 85.5086C248.577 84.9884 248.288 84.0172 248.128 83.5215C248.094 83.4144 247.944 83.4097 247.903 83.5145C247.713 83.9993 247.365 84.9509 247.349 85.4711Z" fill="#AAD880"/>
<path d="M260.731 85.4711C260.715 84.9509 260.367 83.9993 260.176 83.5145C260.135 83.4097 259.986 83.4144 259.951 83.5214C259.904 83.6674 259.846 83.8547 259.787 84.0594C259.955 84.5369 260.128 85.1086 260.139 85.4711C260.154 85.9652 260.039 86.3989 259.857 86.6247C259.949 86.7328 260.055 86.7934 260.165 86.79C260.5 86.7796 260.753 86.1891 260.731 85.4711Z" fill="#80CB8E"/>
<path d="M248.129 83.5214C248.094 83.4144 247.945 83.4098 247.904 83.5145C247.846 83.6615 247.774 83.8516 247.7 84.0594C247.84 84.5501 247.98 85.1416 247.969 85.5086C247.954 85.9896 247.819 86.4055 247.631 86.6248C247.714 86.7271 247.81 86.7868 247.915 86.79C248.249 86.8004 248.539 86.2267 248.561 85.5086C248.577 84.9884 248.289 84.0172 248.129 83.5214Z" fill="#80CB8E"/>
<path d="M249.373 86.89C249.09 87.5503 249.11 88.1926 249.418 88.3244C249.726 88.4563 250.205 88.0279 250.488 87.3676C250.693 86.8892 250.779 85.8797 250.811 85.3598C250.818 85.2475 250.68 85.1886 250.604 85.271C250.249 85.6528 249.578 86.4117 249.373 86.89Z" fill="#AAD880"/>
<path d="M250.604 85.2711C250.494 85.3902 250.352 85.546 250.204 85.7186C250.154 86.2178 250.069 86.7975 249.928 87.1263C249.739 87.5679 249.462 87.9054 249.208 88.0414C249.246 88.18 249.316 88.2806 249.418 88.3244C249.726 88.4563 250.205 88.0279 250.488 87.3676C250.693 86.8892 250.779 85.8797 250.811 85.3598C250.818 85.2475 250.681 85.1886 250.604 85.2711Z" fill="#80CB8E"/>
<path d="M247.569 88.4281C248.247 88.1916 248.708 87.7436 248.598 87.4274C248.487 87.1112 247.848 87.0466 247.17 87.2831C246.678 87.4545 245.875 88.0716 245.469 88.3987C245.382 88.4693 245.431 88.6107 245.544 88.6115C246.064 88.6157 247.077 88.5995 247.569 88.4281Z" fill="#AAD880"/>
<path d="M249.723 89.9096C250.401 89.6731 250.862 89.225 250.752 88.9088C250.641 88.5927 250.002 88.528 249.324 88.7646C248.832 88.9359 248.029 89.5531 247.624 89.8801C247.536 89.9508 247.585 90.0921 247.698 90.093C248.219 90.0971 249.232 90.0809 249.723 89.9096Z" fill="#AAD880"/>
<path d="M248.598 87.4273C248.552 87.2979 248.419 87.2107 248.23 87.1689C248.126 87.4446 247.733 87.751 247.212 87.9326C246.886 88.0464 246.33 88.0917 245.84 88.1081C245.699 88.2155 245.571 88.3162 245.469 88.3986C245.382 88.4692 245.431 88.6106 245.544 88.6115C246.064 88.6155 247.077 88.5994 247.569 88.428C248.247 88.1915 248.708 87.7435 248.598 87.4273Z" fill="#80CB8E"/>
<path d="M250.752 88.9097C250.707 88.7803 250.573 88.6931 250.384 88.6514C250.28 88.927 249.888 89.2334 249.367 89.415C249.04 89.5288 248.484 89.5741 247.994 89.5906C247.853 89.6979 247.726 89.7987 247.624 89.881C247.536 89.9517 247.585 90.093 247.698 90.0939C248.219 90.098 249.232 90.0818 249.723 89.9105C250.401 89.6739 250.862 89.2259 250.752 88.9097Z" fill="#80CB8E"/>
<path d="M253.959 80.9315C255.079 80.9315 255.987 80.0234 255.987 78.9032C255.987 77.7831 255.079 76.875 253.959 76.875C252.839 76.875 251.931 77.7831 251.931 78.9032C251.931 80.0234 252.839 80.9315 253.959 80.9315Z" fill="#ECBE6B"/>
<path d="M254.714 77.0195C254.808 77.253 254.86 77.5077 254.86 77.7747C254.86 78.8949 253.952 79.8029 252.832 79.8029C252.565 79.8029 252.31 79.7508 252.077 79.6571C252.376 80.4031 253.106 80.9302 253.959 80.9302C255.079 80.9302 255.987 80.0221 255.987 78.902C255.987 78.0487 255.46 77.3191 254.714 77.0195Z" fill="#EAB14D"/>
<path d="M254.107 78.0006L254.32 78.4309C254.339 78.4699 254.376 78.4971 254.419 78.5033L254.894 78.5723C255.003 78.5881 255.046 78.7216 254.968 78.7983L254.624 79.1332C254.593 79.1636 254.579 79.2075 254.586 79.2504L254.667 79.7234C254.686 79.8316 254.572 79.9141 254.475 79.863L254.05 79.6398C254.012 79.6195 253.965 79.6195 253.927 79.6398L253.502 79.863C253.405 79.9141 253.291 79.8316 253.31 79.7234L253.391 79.2504C253.398 79.2075 253.384 79.1636 253.353 79.1332L253.009 78.7983C252.931 78.7216 252.974 78.5881 253.083 78.5723L253.558 78.5033C253.601 78.4971 253.638 78.4699 253.657 78.4309L253.87 78.0006C253.918 77.9021 254.059 77.9021 254.107 78.0006Z" fill="#FFE07D"/>
<path d="M254.968 78.798C255.046 78.7214 255.003 78.5878 254.894 78.572L254.721 78.5469L254.26 78.9967C254.214 79.0417 254.193 79.1066 254.204 79.1703L254.307 79.7744L254.475 79.8627C254.572 79.9138 254.686 79.8313 254.667 79.7231L254.586 79.2501C254.579 79.2071 254.593 79.1633 254.624 79.1329L254.968 78.798Z" fill="#FFD064"/>
<path d="M256.674 90.9419H251.411C251.245 90.9419 251.11 90.8071 251.11 90.6409V88.1526C251.11 87.9863 251.245 87.8516 251.411 87.8516H256.674C256.84 87.8516 256.975 87.9864 256.975 88.1526V90.6409C256.975 90.8071 256.84 90.9419 256.674 90.9419Z" fill="#407093"/>
<path d="M256.675 87.8516H256.105V89.7713C256.105 89.9371 255.97 90.0715 255.805 90.0715H251.11V90.6417C251.11 90.8075 251.244 90.9419 251.41 90.9419H256.675C256.841 90.9419 256.975 90.8075 256.975 90.6417V88.1518C256.975 87.986 256.841 87.8516 256.675 87.8516Z" fill="#365E7D"/>
</g>
</g>
<g clip-path="url(#clip3_10487_11433)">
<path d="M118.805 78.296C117.343 77.7971 115.703 78.1623 114.587 79.2776C114.292 79.5735 114.037 79.8277 113.741 80.1236C114.177 80.5592 115.105 81.4877 115.359 81.7414L117.388 80.4727L118.805 78.296Z" fill="#FF9000"/>
<path d="M115.36 81.7409C114.924 81.3053 113.996 80.3768 113.742 80.123C113.516 80.3494 113.321 80.5438 113.095 80.7702C113.531 81.2058 114.459 82.1343 114.713 82.388L115.355 82.3127L115.36 81.7409Z" fill="#FF4A4A"/>
<path d="M122.802 89.1835C123.098 88.8875 123.352 88.6333 123.648 88.3374C124.229 87.7561 124.618 87.0222 124.774 86.215C124.907 85.5238 124.863 84.8052 124.629 84.1201L122.389 85.3255L121.184 87.5657L121.669 88.6981L122.802 89.1835Z" fill="#FF9000"/>
<path d="M121.184 87.5654L120.537 87.5707V88.2126C121.355 89.0311 121.627 89.3032 122.154 89.8304C122.381 89.6041 122.575 89.4096 122.802 89.1833C122.366 88.7477 121.437 87.8192 121.184 87.5654Z" fill="#FF4A4A"/>
<path d="M127.203 75.7222C127.079 75.6979 125.375 74.9435 123.12 75.4759C121.842 75.7776 120.673 76.4279 119.74 77.3602C119.624 77.4762 115.476 81.6247 115.359 81.7411L116.473 83.5397L118.272 84.6532L123.016 80.8465L127.203 75.7222Z" fill="#F9F2F8"/>
<path d="M127.203 75.7227C126.951 75.9745 118.524 84.4019 118.272 84.6537L119.384 86.454L121.184 87.5658C121.395 87.3545 125.32 83.4295 125.565 83.1849C126.493 82.2563 127.146 81.0883 127.449 79.8052C127.981 77.5512 127.228 75.849 127.203 75.7227Z" fill="#E0DDE8"/>
<path d="M113.378 90.1935C113.605 90.4198 113.799 90.6143 114.025 90.8406C114.607 90.2591 115.824 89.0419 116.163 88.7028L116.046 88.1597L115.516 88.0557C114.935 88.6372 113.717 89.8544 113.378 90.1935Z" fill="#FF4A4A"/>
<path d="M112.737 88.2468C112.963 88.4732 113.157 88.6677 113.384 88.894L114.869 87.4088L114.771 86.8991L114.222 86.7617C113.995 86.9883 112.97 88.0139 112.737 88.2468Z" fill="#FF9000"/>
<path d="M116.487 86.4382L115.629 85.1908L114.292 84.2441C114.123 84.5271 113.977 84.7702 113.807 85.0531L114.77 86.2687L115.839 87.0853H116.273L116.487 86.4382Z" fill="#516992"/>
<path d="M115.839 87.0856L116.646 88.3444L117.872 89.1178C118.154 88.9481 118.398 88.8022 118.681 88.6325C118.086 88.038 116.837 86.7887 116.486 86.4385C116.26 86.6648 116.066 86.8592 115.839 87.0856Z" fill="#344F79"/>
<path d="M122.635 80.2904C121.92 79.5751 120.762 79.575 120.046 80.2904C119.333 81.0041 119.333 82.1652 120.046 82.8789V82.879L121.609 81.9759L122.635 80.2904Z" fill="#516992"/>
<path d="M120.045 82.8796C120.76 83.5948 121.918 83.595 122.634 82.8795C123.349 82.1643 123.349 81.0064 122.634 80.291C122.321 80.6042 120.36 82.5643 120.045 82.8796Z" fill="#344F79"/>
<path d="M121.987 80.9372C121.629 80.5795 121.05 80.5795 120.693 80.9372C120.336 81.294 120.336 81.8746 120.693 82.2315L121.608 81.8526L121.987 80.9372Z" fill="#A8BAFF"/>
<path d="M120.693 82.2318C121.05 82.5894 121.629 82.5895 121.987 82.2318V82.2318C122.345 81.8741 122.345 81.2952 121.987 80.9375C121.83 81.0941 120.85 82.0742 120.693 82.2318Z" fill="#7995FF"/>
<path d="M116.487 86.4381H117.134V85.791L116.163 84.2441L114.222 82.8789C113.995 83.1052 113.801 83.2997 113.574 83.526C113.899 83.8504 116.16 86.1114 116.487 86.4381Z" fill="#F9F2F8"/>
<path d="M116.487 86.4381C117.137 87.0883 118.778 88.7296 119.399 89.3502C119.625 89.1239 119.82 88.9294 120.046 88.7031L118.99 87.0853L117.134 85.791C116.908 86.0173 116.713 86.2118 116.487 86.4381Z" fill="#E0DDE8"/>
<path d="M118.272 84.6533C117.919 84.301 115.714 82.0958 115.359 81.7412C114.98 82.1205 114.601 82.4998 114.222 82.8789C114.574 83.2312 116.779 85.4364 117.134 85.791L117.999 85.5517L118.272 84.6533Z" fill="#E0DDE8"/>
<path d="M120.046 88.7031C120.425 88.3238 120.805 87.9445 121.184 87.5654C120.831 87.2131 118.626 85.008 118.272 84.6533C117.892 85.0326 117.513 85.412 117.134 85.791C117.486 86.1434 119.691 88.3485 120.046 88.7031Z" fill="#CECCDB"/>
<path d="M115.839 87.085C115.592 86.838 114.055 85.3004 113.807 85.0527C113.637 85.3356 113.491 85.5788 113.322 85.8617C114.043 86.5836 114.478 87.0184 115.192 87.7321L115.7 87.5703L115.839 87.085Z" fill="#344F79"/>
<path d="M117.872 89.1172C117.625 88.8701 116.087 87.3326 115.84 87.085C115.613 87.3113 115.419 87.5058 115.192 87.7321L117.063 89.6025C117.346 89.4328 117.589 89.2869 117.872 89.1172Z" fill="#1E3860"/>
</g>
<g clip-path="url(#clip4_10487_11433)">
<path d="M311.507 88.775C311.439 88.8176 311.371 88.8556 311.309 88.8901C310.625 89.2735 308.145 89.658 306.551 89.6753C306.512 89.6764 306.474 89.6764 306.436 89.6764C306.398 89.6764 306.36 89.6764 306.321 89.6753C304.726 89.658 302.246 89.2735 301.563 88.8901C301.5 88.8556 301.432 88.8176 301.365 88.775C300.979 88.5413 300.568 88.197 300.91 87.649C301.257 87.0686 301.688 86.5429 302.19 86.0891C302.31 85.9809 302.436 85.8761 302.57 85.7714C302.816 85.5779 303.09 85.3868 303.399 85.1865H309.473C309.777 85.3834 310.045 85.5722 310.289 85.7621C310.427 85.8692 310.557 85.9774 310.682 86.0891C311.183 86.5429 311.615 87.0686 311.962 87.649C312.304 88.197 311.893 88.5413 311.507 88.775Z" fill="#EBE8EF"/>
<path d="M302.603 86.7794C302.608 87.2595 302.056 88.3095 301.365 88.7757C300.979 88.542 300.568 88.1978 300.91 87.6498C301.257 87.0693 301.688 86.5436 302.19 86.0898C302.314 86.1579 302.417 86.2576 302.49 86.3788C302.562 86.4999 302.602 86.6382 302.603 86.7794Z" fill="#5981D1"/>
<path d="M311.961 87.6498C312.303 88.1978 311.892 88.542 311.506 88.7757C310.814 88.3095 310.263 87.2595 310.267 86.7794C310.269 86.6382 310.308 86.4999 310.381 86.3788C310.454 86.2576 310.557 86.1579 310.681 86.0898C311.182 86.5436 311.614 87.0693 311.961 87.6498Z" fill="#5981D1"/>
<path d="M306.435 85.7334V86.5554C304.874 86.5554 303.395 86.2065 302.57 85.7737L302.569 85.7714C302.816 85.5779 303.09 85.3868 303.398 85.1865H303.399C304.041 85.5238 305.219 85.7334 306.435 85.7334Z" fill="#B8B1C4"/>
<path d="M309.472 85.1865C309.776 85.3834 310.044 85.5722 310.288 85.7621C309.464 86.195 307.996 86.5554 306.435 86.5554V85.7334C307.651 85.7334 308.83 85.5238 309.472 85.1865Z" fill="#B8B1C4"/>
<path d="M310.378 85.8331C310.368 85.8464 310.356 85.8574 310.341 85.8653C309.409 86.3546 307.875 86.6712 306.435 86.6712C304.974 86.6712 303.436 86.3592 302.516 85.8768C302.501 85.8695 302.488 85.8579 302.479 85.8434C302.509 85.8193 302.539 85.7962 302.569 85.7721C302.601 85.7467 302.635 85.7214 302.668 85.6949C303.563 86.1497 305.032 86.4409 306.435 86.4409C307.817 86.4409 309.281 86.1451 310.186 85.6846C310.22 85.7099 310.255 85.7364 310.288 85.7629C310.318 85.7859 310.348 85.8101 310.378 85.8331Z" fill="white"/>
<path d="M306.55 85.7343V89.6761C306.511 89.6773 306.473 89.6773 306.435 89.6773C306.397 89.6773 306.359 89.6773 306.32 89.6761V85.7343C306.32 85.7037 306.332 85.6744 306.354 85.6529C306.375 85.6313 306.405 85.6191 306.435 85.6191C306.466 85.6191 306.495 85.6313 306.517 85.6529C306.538 85.6744 306.55 85.7037 306.55 85.7343Z" fill="#B8B1C4"/>
<path d="M312.604 79.8125C312.643 80.3329 312.652 81.0904 312.52 81.4784C312.454 81.6718 312.204 81.9699 311.725 81.9066C311.693 81.8282 311.678 81.7435 311.682 81.6587C311.686 81.5738 311.709 81.491 311.75 81.4162H311.751C311.834 81.4187 311.915 81.3939 311.983 81.3457C312.05 81.2974 312.1 81.2284 312.125 81.1491C312.188 80.7226 312.216 80.2919 312.21 79.8609C312.343 79.8569 312.474 79.8407 312.604 79.8125Z" fill="#4B3956"/>
<path d="M312.351 78.8789C312.462 78.8786 312.569 78.9146 312.657 78.9815C312.744 79.0484 312.807 79.1424 312.836 79.2489C312.865 79.3553 312.858 79.4683 312.816 79.5702C312.773 79.6722 312.699 79.7574 312.603 79.8126C312.527 79.8579 312.44 79.8817 312.351 79.8816C312.303 79.8819 312.256 79.8749 312.21 79.8609C312.094 79.8268 311.995 79.7522 311.93 79.6508C311.865 79.5494 311.838 79.4279 311.855 79.3086C311.873 79.1894 311.932 79.0803 312.023 79.0014C312.114 78.9224 312.231 78.879 312.351 78.8789Z" fill="#EBE8EF"/>
<path d="M301.776 80.082C301.916 80.934 301.934 82.4598 301.859 82.9222C301.375 82.9222 301.12 82.2844 301.12 81.4981C301.12 80.7118 301.292 80.082 301.776 80.082Z" fill="#5981D1"/>
<path d="M311.75 81.4163C311.751 81.444 311.751 81.4704 311.751 81.4981C311.751 81.6347 311.743 81.7712 311.725 81.9068C311.652 82.4939 311.409 82.9222 311.012 82.9222C311.012 82.1508 311.05 81.1481 311.095 80.082C311.562 80.082 311.738 80.668 311.75 81.4163Z" fill="#5981D1"/>
<path d="M311.095 80.0816C311.155 80.4724 311.185 80.8673 311.185 81.2628C311.19 81.8205 311.132 82.3771 311.012 82.9217C310.772 83.959 310.274 84.7637 309.473 85.1862C308.83 85.5236 307.651 85.7331 306.436 85.7331C305.22 85.7331 304.041 85.5236 303.4 85.1862H303.399C302.596 84.7637 302.099 83.9579 301.859 82.9217C301.739 82.3771 301.681 81.8205 301.687 81.2628C301.686 80.8673 301.716 80.4724 301.777 80.0816C302.163 77.5811 303.799 75.6309 306.436 75.6309C309.072 75.6309 310.708 77.5811 311.095 80.0816Z" fill="#EBE8EF"/>
<path d="M310.062 81.0329C310.062 82.9716 309.228 84.6593 306.436 84.6593C303.644 84.6593 302.809 82.9716 302.809 81.0329C302.809 79.0942 304.249 77.6367 306.436 77.6367C308.623 77.6367 310.062 79.0931 310.062 81.0329Z" fill="#4B3956"/>
<path d="M308.414 79.5028C308.625 79.5028 308.796 79.3321 308.796 79.1215C308.796 78.9109 308.625 78.7402 308.414 78.7402C308.204 78.7402 308.033 78.9109 308.033 79.1215C308.033 79.3321 308.204 79.5028 308.414 79.5028Z" fill="white"/>
</g>
<path opacity="0.5" d="M41.224 31.944C41.224 32.9467 40.856 33.752 40.12 34.36C39.3733 34.9573 38.4667 35.256 37.4 35.256C36.4507 35.256 35.6133 34.9787 34.888 34.424C34.1627 33.8693 33.6613 33.112 33.384 32.152L34.792 31.576C34.888 31.9173 35.0213 32.2267 35.192 32.504C35.3627 32.7813 35.56 33.0213 35.784 33.224C36.0187 33.416 36.2747 33.5707 36.552 33.688C36.8293 33.7947 37.1227 33.848 37.432 33.848C38.104 33.848 38.6533 33.6773 39.08 33.336C39.5067 32.984 39.72 32.52 39.72 31.944C39.72 31.464 39.544 31.0533 39.192 30.712C38.8613 30.3813 38.2427 30.0613 37.336 29.752C36.4187 29.4213 35.848 29.1973 35.624 29.08C34.408 28.4613 33.8 27.5493 33.8 26.344C33.8 25.5013 34.136 24.7813 34.808 24.184C35.4907 23.5867 36.328 23.288 37.32 23.288C38.1947 23.288 38.952 23.512 39.592 23.96C40.232 24.3973 40.6587 24.9467 40.872 25.608L39.496 26.184C39.368 25.7573 39.112 25.4053 38.728 25.128C38.3547 24.84 37.896 24.696 37.352 24.696C36.776 24.696 36.2907 24.856 35.896 25.176C35.5013 25.4747 35.304 25.864 35.304 26.344C35.304 26.7387 35.4587 27.08 35.768 27.368C36.1093 27.656 36.8507 27.9973 37.992 28.392C39.1547 28.7867 39.9813 29.272 40.472 29.848C40.9733 30.4133 41.224 31.112 41.224 31.944ZM46.5798 33.912C47.2838 33.912 47.8758 33.6453 48.3558 33.112C48.8358 32.5893 49.0758 31.912 49.0758 31.08C49.0758 30.2587 48.8358 29.5813 48.3558 29.048C47.8758 28.5147 47.2838 28.248 46.5798 28.248C45.8651 28.248 45.2678 28.5147 44.7878 29.048C44.3184 29.5813 44.0838 30.2587 44.0838 31.08C44.0838 31.912 44.3184 32.5947 44.7878 33.128C45.2678 33.6507 45.8651 33.912 46.5798 33.912ZM46.8198 35.256C46.2438 35.256 45.7158 35.1333 45.2358 34.888C44.7664 34.6427 44.4038 34.3173 44.1478 33.912H44.0838L44.1478 35V38.456H42.6758V27.16H44.0838V28.248H44.1478C44.4038 27.8427 44.7664 27.5173 45.2358 27.272C45.7158 27.0267 46.2438 26.904 46.8198 26.904C47.8544 26.904 48.7291 27.3093 49.4438 28.12C50.1798 28.9413 50.5478 29.928 50.5478 31.08C50.5478 32.2427 50.1798 33.2293 49.4438 34.04C48.7291 34.8507 47.8544 35.256 46.8198 35.256ZM52.968 32.6C52.968 32.984 53.128 33.304 53.448 33.56C53.7787 33.816 54.1627 33.944 54.6 33.944C55.2187 33.944 55.768 33.7147 56.248 33.256C56.7387 32.7973 56.984 32.2587 56.984 31.64C56.5253 31.2773 55.8853 31.096 55.064 31.096C54.4667 31.096 53.9653 31.24 53.56 31.528C53.1653 31.816 52.968 32.1733 52.968 32.6ZM54.872 26.904C55.96 26.904 56.8187 27.1973 57.448 27.784C58.0773 28.36 58.392 29.1547 58.392 30.168V35H56.984V33.912H56.92C56.312 34.808 55.5013 35.256 54.488 35.256C53.624 35.256 52.8987 35 52.312 34.488C51.736 33.976 51.448 33.336 51.448 32.568C51.448 31.7573 51.752 31.112 52.36 30.632C52.9787 30.152 53.8 29.912 54.824 29.912C55.6987 29.912 56.4187 30.072 56.984 30.392V30.056C56.984 29.544 56.7813 29.112 56.376 28.76C55.9707 28.3973 55.496 28.216 54.952 28.216C54.1307 28.216 53.48 28.5627 53 29.256L51.704 28.44C52.4187 27.416 53.4747 26.904 54.872 26.904ZM63.5581 35.256C62.3955 35.256 61.4301 34.8613 60.6621 34.072C59.9048 33.2613 59.5261 32.264 59.5261 31.08C59.5261 29.8747 59.9048 28.8773 60.6621 28.088C61.4301 27.2987 62.3955 26.904 63.5581 26.904C64.3581 26.904 65.0568 27.1067 65.6541 27.512C66.2515 27.9067 66.6995 28.456 66.9981 29.16L65.6541 29.72C65.2381 28.7387 64.5075 28.248 63.4621 28.248C62.7901 28.248 62.2088 28.52 61.7181 29.064C61.2381 29.608 60.9981 30.28 60.9981 31.08C60.9981 31.88 61.2381 32.552 61.7181 33.096C62.2088 33.64 62.7901 33.912 63.4621 33.912C64.5395 33.912 65.2968 33.4213 65.7341 32.44L67.0461 33C66.7581 33.704 66.3048 34.2587 65.6861 34.664C65.0781 35.0587 64.3688 35.256 63.5581 35.256ZM71.7754 35.256C70.6234 35.256 69.674 34.8613 68.9274 34.072C68.1807 33.2827 67.8074 32.2853 67.8074 31.08C67.8074 29.8853 68.17 28.8933 68.8954 28.104C69.6207 27.304 70.5487 26.904 71.6794 26.904C72.842 26.904 73.7647 27.2827 74.4474 28.04C75.1407 28.7867 75.4874 29.8373 75.4874 31.192L75.4714 31.352H69.3114C69.3327 32.12 69.5887 32.7387 70.0794 33.208C70.57 33.6773 71.1567 33.912 71.8394 33.912C72.778 33.912 73.514 33.4427 74.0474 32.504L75.3594 33.144C75.0074 33.8053 74.5167 34.3227 73.8874 34.696C73.2687 35.0693 72.5647 35.256 71.7754 35.256ZM69.4234 30.136H73.9194C73.8767 29.592 73.6527 29.144 73.2474 28.792C72.8527 28.4293 72.3194 28.248 71.6474 28.248C71.0927 28.248 70.6127 28.4187 70.2074 28.76C69.8127 29.1013 69.5514 29.56 69.4234 30.136ZM83.8685 24.952V35H82.3965V24.952H79.1965V23.544H87.0685V24.952H83.8685ZM88.3491 23.544H89.8211V27.16L89.7571 28.248H89.8211C90.0451 27.864 90.3865 27.544 90.8451 27.288C91.3145 27.032 91.7998 26.904 92.3011 26.904C93.2611 26.904 93.9971 27.1813 94.5091 27.736C95.0318 28.28 95.2931 29.0587 95.2931 30.072V35H93.8211V30.36C93.8211 28.952 93.1971 28.248 91.9491 28.248C91.3518 28.248 90.8451 28.4987 90.4291 29C90.0238 29.4907 89.8211 30.0667 89.8211 30.728V35H88.3491V23.544ZM100.541 35.256C99.389 35.256 98.4397 34.8613 97.693 34.072C96.9463 33.2827 96.573 32.2853 96.573 31.08C96.573 29.8853 96.9357 28.8933 97.661 28.104C98.3863 27.304 99.3143 26.904 100.445 26.904C101.608 26.904 102.53 27.2827 103.213 28.04C103.906 28.7867 104.253 29.8373 104.253 31.192L104.237 31.352H98.077C98.0983 32.12 98.3543 32.7387 98.845 33.208C99.3357 33.6773 99.9223 33.912 100.605 33.912C101.544 33.912 102.28 33.4427 102.813 32.504L104.125 33.144C103.773 33.8053 103.282 34.3227 102.653 34.696C102.034 35.0693 101.33 35.256 100.541 35.256ZM98.189 30.136H102.685C102.642 29.592 102.418 29.144 102.013 28.792C101.618 28.4293 101.085 28.248 100.413 28.248C99.8583 28.248 99.3783 28.4187 98.973 28.76C98.5783 29.1013 98.317 29.56 98.189 30.136ZM107.071 35H105.599V27.16H107.007V28.248H107.071C107.295 27.864 107.636 27.544 108.095 27.288C108.564 27.032 109.028 26.904 109.487 26.904C110.063 26.904 110.57 27.0373 111.007 27.304C111.444 27.5707 111.764 27.9387 111.967 28.408C112.618 27.4053 113.519 26.904 114.671 26.904C115.578 26.904 116.276 27.1813 116.767 27.736C117.258 28.2907 117.503 29.08 117.503 30.104V35H116.031V30.328C116.031 29.592 115.898 29.064 115.631 28.744C115.364 28.4133 114.916 28.248 114.287 28.248C113.722 28.248 113.247 28.488 112.863 28.968C112.479 29.448 112.287 30.0133 112.287 30.664V35H110.815V30.328C110.815 29.592 110.682 29.064 110.415 28.744C110.148 28.4133 109.7 28.248 109.071 28.248C108.506 28.248 108.031 28.488 107.647 28.968C107.263 29.448 107.071 30.0133 107.071 30.664V35ZM122.744 35.256C121.592 35.256 120.643 34.8613 119.896 34.072C119.149 33.2827 118.776 32.2853 118.776 31.08C118.776 29.8853 119.139 28.8933 119.864 28.104C120.589 27.304 121.517 26.904 122.648 26.904C123.811 26.904 124.733 27.2827 125.416 28.04C126.109 28.7867 126.456 29.8373 126.456 31.192L126.44 31.352H120.28C120.301 32.12 120.557 32.7387 121.048 33.208C121.539 33.6773 122.125 33.912 122.808 33.912C123.747 33.912 124.483 33.4427 125.016 32.504L126.328 33.144C125.976 33.8053 125.485 34.3227 124.856 34.696C124.237 35.0693 123.533 35.256 122.744 35.256ZM120.392 30.136H124.888C124.845 29.592 124.621 29.144 124.216 28.792C123.821 28.4293 123.288 28.248 122.616 28.248C122.061 28.248 121.581 28.4187 121.176 28.76C120.781 29.1013 120.52 29.56 120.392 30.136Z" fill="white"/>
<defs>
<filter id="filter0_d_10487_11433" x="0.253377" y="22.0998" width="372.494" height="133.443" filterUnits="userSpaceOnUse" color-interpolation-filters="sRGB">
<feFlood flood-opacity="0" result="BackgroundImageFix"/>
<feColorMatrix in="SourceAlpha" type="matrix" values="0 0 0 0 0 0 0 0 0 0 0 0 0 0 0 0 0 0 127 0" result="hardAlpha"/>
<feMorphology radius="4.09334" operator="dilate" in="SourceAlpha" result="effect1_dropShadow_10487_11433"/>
<feOffset dy="-8.18667"/>
<feGaussianBlur stdDeviation="14.3267"/>
<feColorMatrix type="matrix" values="0 0 0 0 0 0 0 0 0 0 0 0 0 0 0 0 0 0 0.2 0"/>
<feBlend mode="normal" in2="BackgroundImageFix" result="effect1_dropShadow_10487_11433"/>
<feBlend mode="normal" in="SourceGraphic" in2="effect1_dropShadow_10487_11433" result="shape"/>
</filter>
<filter id="filter1_f_10487_11433" x="285.968" y="62.1871" width="40.9334" height="40.9334" filterUnits="userSpaceOnUse" color-interpolation-filters="sRGB">
<feFlood flood-opacity="0" result="BackgroundImageFix"/>
<feBlend mode="normal" in="SourceGraphic" in2="BackgroundImageFix" result="shape"/>
<feGaussianBlur stdDeviation="5.73067" result="effect1_foregroundBlur_10487_11433"/>
</filter>
<filter id="filter2_d_10487_11433" x="183.878" y="83.7595" width="38.3225" height="38.3218" filterUnits="userSpaceOnUse" color-interpolation-filters="sRGB">
<feFlood flood-opacity="0" result="BackgroundImageFix"/>
<feColorMatrix in="SourceAlpha" type="matrix" values="0 0 0 0 0 0 0 0 0 0 0 0 0 0 0 0 0 0 127 0" result="hardAlpha"/>
<feOffset dy="6.54934"/>
<feGaussianBlur stdDeviation="4.912"/>
<feColorMatrix type="matrix" values="0 0 0 0 0 0 0 0 0 0 0 0 0 0 0 0 0 0 0.25 0"/>
<feBlend mode="normal" in2="BackgroundImageFix" result="effect1_dropShadow_10487_11433"/>
<feBlend mode="normal" in="SourceGraphic" in2="effect1_dropShadow_10487_11433" result="shape"/>
</filter>
<linearGradient id="paint0_linear_10487_11433" x1="186.5" y1="63.0332" x2="186.5" y2="130.983" gradientUnits="userSpaceOnUse">
<stop stop-color="#5D33AD"/>
<stop offset="1" stop-color="#171A59"/>
</linearGradient>
<radialGradient id="paint1_radial_10487_11433" cx="0" cy="0" r="1" gradientUnits="userSpaceOnUse" gradientTransform="translate(31972.8 7446.69) scale(1461.54 1461.43)">
<stop offset="0.06" stop-color="#FCE085"/>
<stop offset="0.41" stop-color="#FCDF86" stop-opacity="0.99"/>
<stop offset="0.54" stop-color="#FBDD89" stop-opacity="0.97"/>
<stop offset="0.63" stop-color="#FAD98F" stop-opacity="0.92"/>
<stop offset="0.7" stop-color="#F9D397" stop-opacity="0.85"/>
<stop offset="0.76" stop-color="#F8CBA1" stop-opacity="0.76"/>
<stop offset="0.82" stop-color="#F5C2AE" stop-opacity="0.66"/>
<stop offset="0.87" stop-color="#F3B6BE" stop-opacity="0.53"/>
<stop offset="0.91" stop-color="#F0A9D0" stop-opacity="0.38"/>
<stop offset="0.96" stop-color="#ED9AE4" stop-opacity="0.21"/>
<stop offset="1" stop-color="#E988FD" stop-opacity="0"/>
</radialGradient>
<radialGradient id="paint2_radial_10487_11433" cx="0" cy="0" r="1" gradientUnits="userSpaceOnUse" gradientTransform="translate(28756.3 5664.35) scale(2281 2280.82)">
<stop offset="0.06" stop-color="#FCE085"/>
<stop offset="0.96" stop-color="#E988FD"/>
</radialGradient>
<radialGradient id="paint3_radial_10487_11433" cx="0" cy="0" r="1" gradientUnits="userSpaceOnUse" gradientTransform="translate(23049.8 14211.3) rotate(14.9575) scale(2167.27 1164.9)">
<stop offset="0.06" stop-color="#FCE085"/>
<stop offset="0.96" stop-color="#E988FD"/>
</radialGradient>
<radialGradient id="paint4_radial_10487_11433" cx="0" cy="0" r="1" gradientUnits="userSpaceOnUse" gradientTransform="translate(5118.33 3214.9) scale(294.468 951.996)">
<stop offset="0.06" stop-color="#FCE085"/>
<stop offset="0.96" stop-color="#E988FD"/>
</radialGradient>
<radialGradient id="paint5_radial_10487_11433" cx="0" cy="0" r="1" gradientUnits="userSpaceOnUse" gradientTransform="translate(16540.8 1270.6) scale(972.461 367.636)">
<stop offset="0.06" stop-color="#FCE085"/>
<stop offset="0.96" stop-color="#E988FD"/>
</radialGradient>
<radialGradient id="paint6_radial_10487_11433" cx="0" cy="0" r="1" gradientUnits="userSpaceOnUse" gradientTransform="translate(3205.15 942.058) scale(178.417 267.014)">
<stop offset="0.06" stop-color="#FCE085"/>
<stop offset="0.96" stop-color="#E988FD"/>
</radialGradient>
<radialGradient id="paint7_radial_10487_11433" cx="0" cy="0" r="1" gradientUnits="userSpaceOnUse" gradientTransform="translate(1588.04 705.24) scale(81.955 193.301)">
<stop offset="0.06" stop-color="#FCE085"/>
<stop offset="0.96" stop-color="#E988FD"/>
</radialGradient>
<radialGradient id="paint8_radial_10487_11433" cx="0" cy="0" r="1" gradientUnits="userSpaceOnUse" gradientTransform="translate(28253 5086.96) scale(1961.22 1694.1)">
<stop offset="0.06" stop-color="#FCE085"/>
<stop offset="0.96" stop-color="#E988FD"/>
</radialGradient>
<radialGradient id="paint9_radial_10487_11433" cx="0" cy="0" r="1" gradientUnits="userSpaceOnUse" gradientTransform="translate(27295.8 3659.05) scale(1393.25 804.894)">
<stop offset="0.06" stop-color="#FCE085"/>
<stop offset="0.96" stop-color="#E988FD"/>
</radialGradient>
<radialGradient id="paint10_radial_10487_11433" cx="0" cy="0" r="1" gradientUnits="userSpaceOnUse" gradientTransform="translate(6859.99 656.695) scale(119.59 56.8538)">
<stop offset="0.06" stop-color="#FCE085"/>
<stop offset="0.96" stop-color="#E988FD"/>
</radialGradient>
<radialGradient id="paint11_radial_10487_11433" cx="0" cy="0" r="1" gradientUnits="userSpaceOnUse" gradientTransform="translate(6407.97 448.993) scale(111.485 37.1302)">
<stop offset="0.06" stop-color="#FCE085"/>
<stop offset="0.96" stop-color="#E988FD"/>
</radialGradient>
<radialGradient id="paint12_radial_10487_11433" cx="0" cy="0" r="1" gradientUnits="userSpaceOnUse" gradientTransform="translate(-3649.32 642.901) rotate(101.241) scale(60.4764 117.848)">
<stop offset="0.06" stop-color="#FCE085"/>
<stop offset="0.96" stop-color="#E988FD"/>
</radialGradient>
<radialGradient id="paint13_radial_10487_11433" cx="0" cy="0" r="1" gradientUnits="userSpaceOnUse" gradientTransform="translate(-3345 436.385) rotate(101.241) scale(40.1624 110.073)">
<stop offset="0.06" stop-color="#FCE085"/>
<stop offset="0.96" stop-color="#E988FD"/>
</radialGradient>
<radialGradient id="paint14_radial_10487_11433" cx="0" cy="0" r="1" gradientUnits="userSpaceOnUse" gradientTransform="translate(-3915.56 -3281.17) rotate(176.44) scale(119.411 57.0896)">
<stop offset="0.06" stop-color="#FCE085"/>
<stop offset="0.96" stop-color="#E988FD"/>
</radialGradient>
<radialGradient id="paint15_radial_10487_11433" cx="0" cy="0" r="1" gradientUnits="userSpaceOnUse" gradientTransform="translate(-3577.61 -1853.43) rotate(176.44) scale(111.131 38.1545)">
<stop offset="0.06" stop-color="#FCE085"/>
<stop offset="0.96" stop-color="#E988FD"/>
</radialGradient>
<radialGradient id="paint16_radial_10487_11433" cx="0" cy="0" r="1" gradientUnits="userSpaceOnUse" gradientTransform="translate(1979.27 -15483) rotate(-145.994) scale(164.108 271.127)">
<stop offset="0.06" stop-color="#FCE085"/>
<stop offset="0.96" stop-color="#E988FD"/>
</radialGradient>
<radialGradient id="paint17_radial_10487_11433" cx="0" cy="0" r="1" gradientUnits="userSpaceOnUse" gradientTransform="translate(7124.92 1487.62) scale(192.647 170.665)">
<stop offset="0.06" stop-color="#FCE085"/>
<stop offset="0.96" stop-color="#E988FD"/>
</radialGradient>
<radialGradient id="paint18_radial_10487_11433" cx="0" cy="0" r="1" gradientUnits="userSpaceOnUse" gradientTransform="translate(3986.17 5671.79) rotate(13.3383) scale(70.41 107.002)">
<stop offset="0.06" stop-color="#FCE085"/>
<stop offset="0.96" stop-color="#E988FD"/>
</radialGradient>
<radialGradient id="paint19_radial_10487_11433" cx="0" cy="0" r="1" gradientUnits="userSpaceOnUse" gradientTransform="translate(-3227.49 -2046.6) rotate(159.711) scale(86.9909 65.306)">
<stop offset="0.06" stop-color="#FCE085"/>
<stop offset="0.96" stop-color="#E988FD"/>
</radialGradient>
<radialGradient id="paint20_radial_10487_11433" cx="0" cy="0" r="1" gradientUnits="userSpaceOnUse" gradientTransform="translate(-8685.36 -6685.44) rotate(141.075) scale(105.654 179.935)">
<stop offset="0.06" stop-color="#FCE085"/>
<stop offset="0.96" stop-color="#E988FD"/>
</radialGradient>
<radialGradient id="paint21_radial_10487_11433" cx="0" cy="0" r="1" gradientUnits="userSpaceOnUse" gradientTransform="translate(5148.24 -6190.86) rotate(-72.9087) scale(119.688 113.031)">
<stop offset="0.06" stop-color="#FCE085"/>
<stop offset="0.96" stop-color="#E988FD"/>
</radialGradient>
<radialGradient id="paint22_radial_10487_11433" cx="0" cy="0" r="1" gradientUnits="userSpaceOnUse" gradientTransform="translate(6171.74 -1969.87) rotate(-53.788) scale(52.3371 63.4843)">
<stop offset="0.06" stop-color="#FCE085"/>
<stop offset="0.96" stop-color="#E988FD"/>
</radialGradient>
<radialGradient id="paint23_radial_10487_11433" cx="0" cy="0" r="1" gradientUnits="userSpaceOnUse" gradientTransform="translate(5150.52 -1267.97) rotate(-53.7877) scale(41.2498 57.1453)">
<stop offset="0.06" stop-color="#FCE085"/>
<stop offset="0.96" stop-color="#E988FD"/>
</radialGradient>
<radialGradient id="paint24_radial_10487_11433" cx="0" cy="0" r="1" gradientUnits="userSpaceOnUse" gradientTransform="translate(4265.57 -8519.89) rotate(-120.671) scale(78.0178 106.865)">
<stop offset="0.06" stop-color="#FCE085"/>
<stop offset="0.96" stop-color="#E988FD"/>
</radialGradient>
<radialGradient id="paint25_radial_10487_11433" cx="0" cy="0" r="1" gradientUnits="userSpaceOnUse" gradientTransform="translate(4012.3 -6957.62) rotate(-120.671) scale(60.7978 94.4346)">
<stop offset="0.06" stop-color="#FCE085"/>
<stop offset="0.96" stop-color="#E988FD"/>
</radialGradient>
<radialGradient id="paint26_radial_10487_11433" cx="0" cy="0" r="1" gradientUnits="userSpaceOnUse" gradientTransform="translate(2364.95 1686.99) rotate(29.938) scale(34.4438 24.7374)">
<stop offset="0.06" stop-color="#FCE085"/>
<stop offset="0.96" stop-color="#E988FD"/>
</radialGradient>
<radialGradient id="paint27_radial_10487_11433" cx="0" cy="0" r="1" gradientUnits="userSpaceOnUse" gradientTransform="translate(2216.81 1519.4) rotate(29.9383) scale(31.5336 18.3048)">
<stop offset="0.06" stop-color="#FCE085"/>
<stop offset="0.96" stop-color="#E988FD"/>
</radialGradient>
<radialGradient id="paint28_radial_10487_11433" cx="0" cy="0" r="1" gradientUnits="userSpaceOnUse" gradientTransform="translate(-2265.46 -1265.18) rotate(165.921) scale(37.4585 19.646)">
<stop offset="0.06" stop-color="#FCE085"/>
<stop offset="0.96" stop-color="#E988FD"/>
</radialGradient>
<radialGradient id="paint29_radial_10487_11433" cx="0" cy="0" r="1" gradientUnits="userSpaceOnUse" gradientTransform="translate(-1949.56 -575.013) rotate(165.921) scale(34.395 14.1111)">
<stop offset="0.06" stop-color="#FCE085"/>
<stop offset="0.96" stop-color="#E988FD"/>
</radialGradient>
<radialGradient id="paint30_radial_10487_11433" cx="0" cy="0" r="1" gradientUnits="userSpaceOnUse" gradientTransform="translate(4200.14 -2014.43) rotate(-92.8402) scale(18.331 38.6822)">
<stop offset="0.06" stop-color="#FCE085"/>
<stop offset="0.96" stop-color="#E988FD"/>
</radialGradient>
<radialGradient id="paint31_radial_10487_11433" cx="0" cy="0" r="1" gradientUnits="userSpaceOnUse" gradientTransform="translate(3857.35 -1332.48) rotate(-92.8403) scale(12.1634 35.6601)">
<stop offset="0.06" stop-color="#FCE085"/>
<stop offset="0.96" stop-color="#E988FD"/>
</radialGradient>
<radialGradient id="paint32_radial_10487_11433" cx="0" cy="0" r="1" gradientUnits="userSpaceOnUse" gradientTransform="translate(-723.138 -2399.74) rotate(-166.861) scale(37.5512 19.6611)">
<stop offset="0.06" stop-color="#FCE085"/>
<stop offset="0.96" stop-color="#E988FD"/>
</radialGradient>
<radialGradient id="paint33_radial_10487_11433" cx="0" cy="0" r="1" gradientUnits="userSpaceOnUse" gradientTransform="translate(-874.687 -1467.54) rotate(-166.861) scale(35.0604 13.7052)">
<stop offset="0.06" stop-color="#FCE085"/>
<stop offset="0.96" stop-color="#E988FD"/>
</radialGradient>
<radialGradient id="paint34_radial_10487_11433" cx="0" cy="0" r="1" gradientUnits="userSpaceOnUse" gradientTransform="translate(-83.515 1392.34) rotate(69.1082) scale(12.8433 21.4487)">
<stop offset="0.06" stop-color="#FCE085"/>
<stop offset="0.96" stop-color="#E988FD"/>
</radialGradient>
<radialGradient id="paint35_radial_10487_11433" cx="0" cy="0" r="1" gradientUnits="userSpaceOnUse" gradientTransform="translate(-86.0951 1181.12) rotate(69.1093) scale(9.42624 19.4572)">
<stop offset="0.06" stop-color="#FCE085"/>
<stop offset="0.96" stop-color="#E988FD"/>
</radialGradient>
<radialGradient id="paint36_radial_10487_11433" cx="0" cy="0" r="1" gradientUnits="userSpaceOnUse" gradientTransform="translate(-1954.22 -150.736) rotate(129.735) scale(16.5732 18.6693)">
<stop offset="0.06" stop-color="#FCE085"/>
<stop offset="0.96" stop-color="#E988FD"/>
</radialGradient>
<radialGradient id="paint37_radial_10487_11433" cx="0" cy="0" r="1" gradientUnits="userSpaceOnUse" gradientTransform="translate(-1660.32 -113.282) rotate(129.735) scale(13.0706 16.6183)">
<stop offset="0.06" stop-color="#FCE085"/>
<stop offset="0.96" stop-color="#E988FD"/>
</radialGradient>
<radialGradient id="paint38_radial_10487_11433" cx="0" cy="0" r="1" gradientUnits="userSpaceOnUse" gradientTransform="translate(1678 -1818.71) rotate(-108.073) scale(5.77022 10.0896)">
<stop offset="0.06" stop-color="#FCE085"/>
<stop offset="0.96" stop-color="#E988FD"/>
</radialGradient>
<radialGradient id="paint39_radial_10487_11433" cx="0" cy="0" r="1" gradientUnits="userSpaceOnUse" gradientTransform="translate(1591.6 -1273.44) rotate(-108.074) scale(4.16027 9.20173)">
<stop offset="0.06" stop-color="#FCE085"/>
<stop offset="0.96" stop-color="#E988FD"/>
</radialGradient>
<radialGradient id="paint40_radial_10487_11433" cx="0" cy="0" r="1" gradientUnits="userSpaceOnUse" gradientTransform="translate(4194.51 418.97) rotate(-32.7331) scale(10.6872 18.9452)">
<stop offset="0.06" stop-color="#FCE085"/>
<stop offset="0.96" stop-color="#E988FD"/>
</radialGradient>
<radialGradient id="paint41_radial_10487_11433" cx="0" cy="0" r="1" gradientUnits="userSpaceOnUse" gradientTransform="translate(2722.49 -118.33) rotate(-32.7331) scale(7.99542 11.6755)">
<stop offset="0.06" stop-color="#FCE085"/>
<stop offset="0.96" stop-color="#E988FD"/>
</radialGradient>
<radialGradient id="paint42_radial_10487_11433" cx="0" cy="0" r="1" gradientUnits="userSpaceOnUse" gradientTransform="translate(2251.95 1325.48) rotate(21.6786) scale(9.90199 6.03549)">
<stop offset="0.06" stop-color="#FCE085"/>
<stop offset="0.96" stop-color="#E988FD"/>
</radialGradient>
<radialGradient id="paint43_radial_10487_11433" cx="0" cy="0" r="1" gradientUnits="userSpaceOnUse" gradientTransform="translate(2150.94 1077.84) rotate(21.6792) scale(9.20792 4.29042)">
<stop offset="0.06" stop-color="#FCE085"/>
<stop offset="0.96" stop-color="#E988FD"/>
</radialGradient>
<radialGradient id="paint44_radial_10487_11433" cx="0" cy="0" r="1" gradientUnits="userSpaceOnUse" gradientTransform="translate(-2158.29 935.57) rotate(106.81) scale(6.833 11.2198)">
<stop offset="0.06" stop-color="#FCE085"/>
<stop offset="0.96" stop-color="#E988FD"/>
</radialGradient>
<radialGradient id="paint45_radial_10487_11433" cx="0" cy="0" r="1" gradientUnits="userSpaceOnUse" gradientTransform="translate(-1621.27 406.709) rotate(106.81) scale(3.5695 9.8506)">
<stop offset="0.06" stop-color="#FCE085"/>
<stop offset="0.96" stop-color="#E988FD"/>
</radialGradient>
<radialGradient id="paint46_radial_10487_11433" cx="0" cy="0" r="1" gradientUnits="userSpaceOnUse" gradientTransform="translate(3858.9 -1047.37) rotate(-38.5378) scale(32.0251 27.7984)">
<stop offset="0.06" stop-color="#FCE085"/>
<stop offset="0.96" stop-color="#E988FD"/>
</radialGradient>
<radialGradient id="paint47_radial_10487_11433" cx="0" cy="0" r="1" gradientUnits="userSpaceOnUse" gradientTransform="translate(3249.24 -932.533) rotate(-38.5376) scale(27.276 23.0843)">
<stop offset="0.06" stop-color="#FCE085"/>
<stop offset="0.96" stop-color="#E988FD"/>
</radialGradient>
<radialGradient id="paint48_radial_10487_11433" cx="0" cy="0" r="1" gradientUnits="userSpaceOnUse" gradientTransform="translate(1605.03 -450.679) rotate(-29.8844) scale(30.4321 19.1803)">
<stop offset="0.06" stop-color="#FCE085"/>
<stop offset="0.96" stop-color="#E988FD"/>
</radialGradient>
<radialGradient id="paint49_radial_10487_11433" cx="0" cy="0" r="1" gradientUnits="userSpaceOnUse" gradientTransform="translate(983.31 -233.175) rotate(-29.8841) scale(18.555 11.6166)">
<stop offset="0.06" stop-color="#FCE085"/>
<stop offset="0.96" stop-color="#E988FD"/>
</radialGradient>
<radialGradient id="paint50_radial_10487_11433" cx="0" cy="0" r="1" gradientUnits="userSpaceOnUse" gradientTransform="translate(401.065 783.641) rotate(63.1757) scale(27.9316 31.677)">
<stop offset="0.06" stop-color="#FCE085"/>
<stop offset="0.96" stop-color="#E988FD"/>
</radialGradient>
<radialGradient id="paint51_radial_10487_11433" cx="0" cy="0" r="1" gradientUnits="userSpaceOnUse" gradientTransform="translate(345.36 711.731) rotate(63.1762) scale(9.88309 11.637)">
<stop offset="0.06" stop-color="#FCE085"/>
<stop offset="0.96" stop-color="#E988FD"/>
</radialGradient>
<radialGradient id="paint52_radial_10487_11433" cx="0" cy="0" r="1" gradientUnits="userSpaceOnUse" gradientTransform="translate(105.65 725.369) rotate(83.0879) scale(5.69672 8.28186)">
<stop offset="0.06" stop-color="#FCE085"/>
<stop offset="0.96" stop-color="#E988FD"/>
</radialGradient>
<radialGradient id="paint53_radial_10487_11433" cx="0" cy="0" r="1" gradientUnits="userSpaceOnUse" gradientTransform="translate(151.694 760.025) rotate(83.0884) scale(12.2032 17.637)">
<stop offset="0.06" stop-color="#FCE085"/>
<stop offset="0.96" stop-color="#E988FD"/>
</radialGradient>
<radialGradient id="paint54_radial_10487_11433" cx="0" cy="0" r="1" gradientUnits="userSpaceOnUse" gradientTransform="translate(165.891 760.848) rotate(83.0887) scale(5.26968 7.55675)">
<stop offset="0.06" stop-color="#FCE085"/>
<stop offset="0.96" stop-color="#E988FD"/>
</radialGradient>
<radialGradient id="paint55_radial_10487_11433" cx="0" cy="0" r="1" gradientUnits="userSpaceOnUse" gradientTransform="translate(847.356 756.505) rotate(38.4782) scale(28.7144 21.1966)">
<stop offset="0.06" stop-color="#FCE085"/>
<stop offset="0.96" stop-color="#E988FD"/>
</radialGradient>
<radialGradient id="paint56_radial_10487_11433" cx="0" cy="0" r="1" gradientUnits="userSpaceOnUse" gradientTransform="translate(627.118 627.908) rotate(38.4761) scale(17.2138 12.8708)">
<stop offset="0.06" stop-color="#FCE085"/>
<stop offset="0.96" stop-color="#E988FD"/>
</radialGradient>
<radialGradient id="paint57_radial_10487_11433" cx="0" cy="0" r="1" gradientUnits="userSpaceOnUse" gradientTransform="translate(620.396 619.506) rotate(38.478) scale(17.2134 12.7857)">
<stop offset="0.06" stop-color="#FCE085"/>
<stop offset="0.96" stop-color="#E988FD"/>
</radialGradient>
<radialGradient id="paint58_radial_10487_11433" cx="0" cy="0" r="1" gradientUnits="userSpaceOnUse" gradientTransform="translate(15377.1 904.638) scale(1038.63 316.568)">
<stop offset="0.06" stop-color="#FCE085"/>
<stop offset="0.96" stop-color="#E988FD"/>
</radialGradient>
<linearGradient id="paint59_linear_10487_11433" x1="73.2937" y1="76.6182" x2="61.9898" y2="87.9221" gradientUnits="userSpaceOnUse">
<stop stop-color="#A0D4FF"/>
<stop offset="1" stop-color="#0593FC"/>
</linearGradient>
<linearGradient id="paint60_linear_10487_11433" x1="69.0057" y1="74.8058" x2="57.1997" y2="86.6119" gradientUnits="userSpaceOnUse">
<stop stop-color="#A2E62E"/>
<stop offset="0.1231" stop-color="#97DE30"/>
<stop offset="0.3395" stop-color="#79CB36"/>
<stop offset="0.6234" stop-color="#4AAB3F"/>
<stop offset="0.9609" stop-color="#09804C"/>
<stop offset="1" stop-color="#017B4E"/>
</linearGradient>
<linearGradient id="paint61_linear_10487_11433" x1="74.5547" y1="83.2632" x2="67.0469" y2="90.771" gradientUnits="userSpaceOnUse">
<stop stop-color="#A2E62E"/>
<stop offset="0.1231" stop-color="#97DE30"/>
<stop offset="0.3395" stop-color="#79CB36"/>
<stop offset="0.6234" stop-color="#4AAB3F"/>
<stop offset="0.9609" stop-color="#09804C"/>
<stop offset="1" stop-color="#017B4E"/>
</linearGradient>
<linearGradient id="paint62_linear_10487_11433" x1="62.1889" y1="84.4713" x2="60.23" y2="86.4302" gradientUnits="userSpaceOnUse">
<stop stop-color="#A2E62E"/>
<stop offset="0.1231" stop-color="#97DE30"/>
<stop offset="0.3395" stop-color="#79CB36"/>
<stop offset="0.6234" stop-color="#4AAB3F"/>
<stop offset="0.9609" stop-color="#09804C"/>
<stop offset="1" stop-color="#017B4E"/>
</linearGradient>
<linearGradient id="paint63_linear_10487_11433" x1="70.502" y1="86.9652" x2="70.502" y2="91.1538" gradientUnits="userSpaceOnUse">
<stop stop-color="#017B4E" stop-opacity="0"/>
<stop offset="0.4693" stop-color="#01764A" stop-opacity="0.469"/>
<stop offset="1" stop-color="#026841"/>
</linearGradient>
<linearGradient id="paint64_linear_10487_11433" x1="66.5547" y1="84.601" x2="64.2606" y2="91.8716" gradientUnits="userSpaceOnUse">
<stop stop-color="#2740B0" stop-opacity="0"/>
<stop offset="0.3153" stop-color="#243BA4" stop-opacity="0.315"/>
<stop offset="0.8855" stop-color="#1B2D84" stop-opacity="0.886"/>
<stop offset="1" stop-color="#192A7D"/>
</linearGradient>
<clipPath id="clip0_10487_11433">
<rect width="18" height="18" fill="white" transform="matrix(-1 0 0 1 75.9999 74)"/>
</clipPath>
<clipPath id="clip1_10487_11433">
<rect width="19.648" height="19.648" fill="white" transform="translate(244.216 72.8291)"/>
</clipPath>
<clipPath id="clip2_10487_11433">
<rect width="18.0107" height="18.0107" fill="white" transform="translate(245.035 73.6484)"/>
</clipPath>
<clipPath id="clip3_10487_11433">
<rect width="15.5547" height="15.5547" fill="white" transform="translate(112.41 75.2861)"/>
</clipPath>
<clipPath id="clip4_10487_11433">
<rect width="14.736" height="14.736" fill="white" transform="translate(299.067 75.2861)"/>
</clipPath>
</defs>
</svg>
