<svg width="20" height="21" viewBox="0 0 20 21" fill="none" xmlns="http://www.w3.org/2000/svg">
<g clip-path="url(#clip0_10487_11527)">
<g clip-path="url(#clip1_10487_11527)">
<path d="M7.8938 10.9657H6.37865C5.74209 10.9657 5.11224 10.7538 4.60509 10.369L2.62107 8.86352C1.6982 8.16325 1.3377 6.95896 1.72405 5.86679C2.09331 4.82294 3.08537 4.11275 4.19264 4.09956C5.27458 4.08672 5.8893 4.12091 5.91491 4.12239L5.84716 5.31324C5.84125 5.31292 5.24317 5.28003 4.20682 5.29227C3.59755 5.29952 3.05167 5.69027 2.84852 6.2646C2.63595 6.8655 2.83428 7.5281 3.34206 7.91339L5.32605 9.41887C5.62699 9.64724 6.00082 9.77299 6.37858 9.77299H7.89373V10.9657H7.8938Z" fill="#FFD064"/>
<path d="M4.60556 9.74067L2.62154 8.23519C2.03334 7.78887 1.67408 7.1377 1.59053 6.44141C1.4805 7.36118 1.85855 8.28465 2.62154 8.8636L4.60556 10.3691C5.11268 10.7539 5.74256 10.9658 6.37912 10.9658H7.89427V10.3374H6.37912C5.74256 10.3374 5.11268 10.1255 4.60556 9.74067Z" fill="#ECBE6B"/>
<path d="M12.1919 10.9657H13.707C14.3436 10.9657 14.9735 10.7538 15.4806 10.369L17.4646 8.86352C18.3875 8.16325 18.748 6.95896 18.3616 5.86679C17.9924 4.82294 17.0003 4.11275 15.8931 4.09956C14.8111 4.08672 14.1964 4.12091 14.1708 4.12239L14.2385 5.31324C14.2444 5.31292 14.8425 5.28003 15.8789 5.29227C16.4881 5.29952 17.034 5.69027 17.2372 6.2646C17.4497 6.8655 17.2514 7.5281 16.7436 7.91339L14.7596 9.41887C14.4587 9.64724 14.0849 9.77299 13.7071 9.77299H12.192V10.9657H12.1919Z" fill="#FFD064"/>
<path d="M18.3617 5.86647C18.1888 5.37786 17.8795 4.96239 17.4858 4.65723C17.6556 4.87617 17.793 5.12339 17.8884 5.3932C18.2747 6.48538 17.9142 7.68967 16.9914 8.38994L15.0073 9.89541C14.5002 10.2802 13.8703 10.4922 13.2338 10.4922H12.1919V10.9654H13.707C14.3436 10.9654 14.9735 10.7535 15.4806 10.3687L17.4646 8.86321C18.3875 8.16294 18.748 6.95865 18.3617 5.86647Z" fill="#ECBE6B"/>
<path d="M11.9747 15.3343L11.2691 14.7996C10.9659 14.5697 10.7878 14.2112 10.7878 13.8307V11.457H9.1897V13.8307C9.1897 14.2112 9.01156 14.5697 8.70833 14.7996L8.00275 15.3343C7.78283 15.501 7.9007 15.8517 8.17663 15.8517H11.8008C12.0768 15.8516 12.1946 15.501 11.9747 15.3343Z" fill="#FFD064"/>
<path d="M11.9745 15.3343L11.2689 14.7996C10.9656 14.5697 10.7875 14.2112 10.7875 13.8307V11.457H9.95923V13.8307C9.95923 14.2112 10.1374 14.5697 10.4406 14.7996L11.1462 15.3343C11.3661 15.501 11.2482 15.8517 10.9723 15.8517H11.8006C12.0765 15.8516 12.1944 15.501 11.9745 15.3343Z" fill="#ECBE6B"/>
<path d="M14.524 2.36426H5.56044C5.38871 2.36426 5.24951 2.50345 5.24951 2.67519V5.88492C5.24951 7.25919 5.63217 8.60629 6.35464 9.77533L7.18235 11.1147C8.47961 13.2138 11.5275 13.2281 12.8444 11.1413L13.693 9.79669C14.439 8.61449 14.835 7.24519 14.835 5.84728V2.67519C14.835 2.50349 14.6958 2.36426 14.524 2.36426Z" fill="#FFE07D"/>
<path d="M14.5251 2.36426H13.0884V4.09961C13.0884 5.49752 12.6924 6.86686 11.9464 8.04905L11.0979 9.39366C10.1584 10.8824 8.33818 11.3014 6.90088 10.6575L7.18346 11.1147C8.48072 13.2138 11.5286 13.2282 12.8455 11.1413L13.6941 9.79672C14.4401 8.61453 14.8361 7.24522 14.8361 5.84732V2.67519C14.8361 2.50349 14.6969 2.36426 14.5251 2.36426Z" fill="#FFD064"/>
<path d="M10.0404 17.8201C8.33892 17.8201 6.68781 17.3121 5.2656 16.351C3.88265 15.4164 2.78051 14.102 2.07838 12.5498C2.01664 12.4134 2.07722 12.2529 2.2136 12.1912C2.35001 12.1294 2.51056 12.19 2.57223 12.3264C3.93295 15.3344 6.86443 17.278 10.0404 17.278C13.2164 17.278 16.1479 15.3344 17.5086 12.3264C17.5703 12.1901 17.7309 12.1295 17.8672 12.1912C18.0036 12.2529 18.0642 12.4134 18.0025 12.5498C17.3003 14.102 16.1982 15.4164 14.8152 16.351C13.393 17.3121 11.742 17.8201 10.0404 17.8201Z" fill="#0DC183"/>
<path d="M18.714 11.9139C18.418 12.6145 17.9133 13.0706 17.5868 12.9326C17.2602 12.7947 17.2355 12.1149 17.5315 11.4143C17.7459 10.9067 18.4526 10.0998 18.8257 9.6937C18.9063 9.60596 19.0523 9.66767 19.0455 9.7866C19.0145 10.3372 18.9285 11.4064 18.714 11.9139Z" fill="#AAD880"/>
<path d="M18.8255 9.6937C18.722 9.80634 18.5928 9.9499 18.4556 10.1093C18.4065 10.6494 18.3191 11.2932 18.1668 11.6537C17.9582 12.1473 17.6462 12.5191 17.3658 12.6478C17.4077 12.7872 17.4814 12.8882 17.5866 12.9326C17.9131 13.0706 18.4178 12.6145 18.7138 11.9139C18.9283 11.4064 19.0143 10.3372 19.0454 9.78661C19.0521 9.66764 18.9061 9.60597 18.8255 9.6937Z" fill="#80CB8E"/>
<path d="M16.7309 13.4711C16.7531 14.1891 16.4998 14.7796 16.1651 14.79C15.8305 14.8004 15.5411 14.2266 15.5188 13.5086C15.5027 12.9884 15.791 12.0172 15.9511 11.5215C15.9857 11.4144 16.1353 11.4097 16.1764 11.5145C16.3669 11.9993 16.7148 12.9509 16.7309 13.4711Z" fill="#AAD880"/>
<path d="M14.707 14.89C14.9899 15.5503 14.9698 16.1926 14.662 16.3244C14.3542 16.4563 13.8753 16.0279 13.5924 15.3676C13.3874 14.8892 13.3011 13.8797 13.2691 13.3598C13.2622 13.2475 13.3998 13.1886 13.4763 13.271C13.8307 13.6528 14.502 14.4117 14.707 14.89Z" fill="#AAD880"/>
<path d="M14.707 14.89C14.502 14.4117 13.8307 13.6529 13.4763 13.2711C13.3998 13.1886 13.2622 13.2475 13.2691 13.3598C13.2783 13.5085 13.2919 13.6972 13.3114 13.9019C13.6422 14.2853 14.0119 14.7551 14.1548 15.0887C14.353 15.5512 14.4022 16.0046 14.3083 16.2801C14.4362 16.3496 14.5587 16.3686 14.662 16.3244C14.9698 16.1926 14.9899 15.5504 14.707 14.89Z" fill="#80CB8E"/>
<path d="M16.5112 16.4281C15.8328 16.1916 15.3723 15.7436 15.4826 15.4274C15.5928 15.1112 16.2321 15.0466 16.9104 15.2831C17.4018 15.4545 18.2053 16.0716 18.6107 16.3987C18.6983 16.4693 18.6491 16.6107 18.5365 16.6115C18.0156 16.6157 17.0026 16.5995 16.5112 16.4281Z" fill="#AAD880"/>
<path d="M14.3569 17.9096C13.6786 17.6731 13.2181 17.225 13.3283 16.9088C13.4386 16.5927 14.0778 16.528 14.7562 16.7646C15.2476 16.9359 16.0511 17.5531 16.4565 17.8801C16.5441 17.9508 16.4948 18.0921 16.3823 18.093C15.8614 18.0971 14.8484 18.0809 14.3569 17.9096Z" fill="#AAD880"/>
<path d="M18.6108 16.3994C18.446 16.2665 18.2155 16.0857 17.967 15.9063C17.4194 15.9055 16.5449 15.8778 16.0992 15.7224C15.8645 15.6405 15.6559 15.5333 15.4879 15.415C15.4861 15.4194 15.4841 15.4236 15.4826 15.4281C15.3723 15.7442 15.8328 16.1923 16.5112 16.4288C17.0026 16.6002 18.0156 16.6163 18.5365 16.6123C18.6491 16.6114 18.6984 16.47 18.6108 16.3994Z" fill="#80CB8E"/>
<path d="M16.4565 17.8798C16.2917 17.7469 16.0613 17.5661 15.8127 17.3868C15.2651 17.386 14.3906 17.3582 13.9449 17.2029C13.7102 17.121 13.5016 17.0138 13.3337 16.8955C13.3319 16.8999 13.3299 16.9041 13.3283 16.9085C13.2181 17.2247 13.6786 17.6727 14.3569 17.9093C14.8484 18.0806 15.8614 18.0968 16.3823 18.0927C16.4948 18.0918 16.5441 17.9505 16.4565 17.8798Z" fill="#80CB8E"/>
<path d="M1.36738 11.9139C1.66339 12.6145 2.16808 13.0706 2.49463 12.9326C2.82118 12.7947 2.84594 12.1149 2.54996 11.4143C2.33552 10.9067 1.62885 10.0998 1.25573 9.6937C1.17513 9.60596 1.02915 9.66767 1.03587 9.7866C1.06693 10.3372 1.15294 11.4064 1.36738 11.9139Z" fill="#AAD880"/>
<path d="M2.54899 11.4143C2.33455 10.9067 1.62787 10.0998 1.25475 9.6937C1.17416 9.60596 1.02817 9.66767 1.03489 9.7866C1.04355 9.94001 1.05649 10.1337 1.07528 10.3442C1.43359 10.7601 1.84787 11.2855 2.00339 11.6536C2.20837 12.1387 2.25941 12.6137 2.16302 12.9059C2.28227 12.9616 2.39596 12.9739 2.49365 12.9326C2.82024 12.7947 2.845 12.1149 2.54899 11.4143Z" fill="#80CB8E"/>
<path d="M3.34853 13.4711C3.32629 14.1891 3.57957 14.7796 3.91424 14.79C4.24892 14.8004 4.53829 14.2266 4.56055 13.5086C4.57666 12.9884 4.28839 12.0172 4.1283 11.5215C4.09372 11.4144 3.94411 11.4097 3.90299 11.5145C3.7125 11.9993 3.36464 12.9509 3.34853 13.4711Z" fill="#AAD880"/>
<path d="M16.7309 13.4711C16.7148 12.9509 16.3669 11.9993 16.1764 11.5145C16.1353 11.4097 15.9857 11.4144 15.9511 11.5214C15.904 11.6674 15.8457 11.8547 15.7874 12.0594C15.9553 12.5369 16.1276 13.1086 16.1388 13.4711C16.1541 13.9652 16.0389 14.3989 15.8565 14.6247C15.9491 14.7328 16.0546 14.7934 16.1651 14.79C16.4998 14.7796 16.7531 14.1891 16.7309 13.4711Z" fill="#80CB8E"/>
<path d="M4.12886 11.5214C4.09428 11.4144 3.94467 11.4098 3.90351 11.5145C3.84575 11.6615 3.77353 11.8516 3.70044 12.0594C3.84019 12.5501 3.98037 13.1416 3.96901 13.5086C3.9541 13.9896 3.81926 14.4055 3.63135 14.6248C3.71398 14.7271 3.81043 14.7868 3.9148 14.79C4.24948 14.8004 4.53885 14.2267 4.56111 13.5086C4.57722 12.9884 4.28895 12.0172 4.12886 11.5214Z" fill="#80CB8E"/>
<path d="M5.37315 14.89C5.09022 15.5503 5.11037 16.1926 5.41817 16.3244C5.72597 16.4563 6.20484 16.0279 6.48777 15.3676C6.69274 14.8892 6.77903 13.8797 6.81104 13.3598C6.81794 13.2475 6.68036 13.1886 6.60382 13.271C6.24944 13.6528 5.57812 14.4117 5.37315 14.89Z" fill="#AAD880"/>
<path d="M6.60409 13.2711C6.49352 13.3902 6.35211 13.546 6.20359 13.7186C6.15392 14.2178 6.06911 14.7975 5.92823 15.1263C5.73901 15.5679 5.46224 15.9054 5.20752 16.0414C5.24569 16.18 5.31604 16.2806 5.41841 16.3244C5.72621 16.4563 6.20507 16.0279 6.488 15.3676C6.69298 14.8892 6.77927 13.8797 6.81128 13.3598C6.81821 13.2475 6.68063 13.1886 6.60409 13.2711Z" fill="#80CB8E"/>
<path d="M3.56889 16.4281C4.24722 16.1916 4.70775 15.7436 4.59751 15.4274C4.48726 15.1112 3.84799 15.0466 3.16967 15.2831C2.67825 15.4545 1.87477 16.0716 1.46931 16.3987C1.38176 16.4693 1.43101 16.6107 1.54354 16.6115C2.06448 16.6157 3.07747 16.5995 3.56889 16.4281Z" fill="#AAD880"/>
<path d="M5.72313 17.9096C6.40145 17.6731 6.86199 17.225 6.75174 16.9088C6.6415 16.5927 6.00223 16.528 5.32391 16.7646C4.83248 16.9359 4.029 17.5531 3.62355 17.8801C3.53599 17.9508 3.58524 18.0921 3.69777 18.093C4.21868 18.0971 5.23167 18.0809 5.72313 17.9096Z" fill="#AAD880"/>
<path d="M4.59752 15.4273C4.55239 15.2979 4.41854 15.2107 4.22971 15.1689C4.12559 15.4446 3.73343 15.751 3.21246 15.9326C2.88602 16.0464 2.32952 16.0917 1.83992 16.1081C1.69872 16.2155 1.57138 16.3162 1.46933 16.3986C1.38174 16.4692 1.43102 16.6106 1.54355 16.6115C2.06446 16.6155 3.07745 16.5994 3.56891 16.428C4.24723 16.1915 4.70777 15.7435 4.59752 15.4273Z" fill="#80CB8E"/>
<path d="M6.75174 16.9097C6.70661 16.7803 6.57276 16.6931 6.38393 16.6514C6.27981 16.927 5.88765 17.2334 5.36668 17.415C5.04024 17.5288 4.48374 17.5741 3.99414 17.5906C3.85294 17.6979 3.7256 17.7987 3.62355 17.881C3.53599 17.9517 3.58524 18.093 3.69777 18.0939C4.21868 18.098 5.23167 18.0818 5.72313 17.9105C6.40145 17.6739 6.86199 17.2259 6.75174 16.9097Z" fill="#80CB8E"/>
<path d="M9.95921 8.93148C11.0794 8.93148 11.9875 8.02341 11.9875 6.90324C11.9875 5.78307 11.0794 4.875 9.95921 4.875C8.83904 4.875 7.93097 5.78307 7.93097 6.90324C7.93097 8.02341 8.83904 8.93148 9.95921 8.93148Z" fill="#ECBE6B"/>
<path d="M10.7142 5.01953C10.808 5.253 10.86 5.50768 10.86 5.77468C10.86 6.89486 9.95199 7.80292 8.83181 7.80292C8.56481 7.80292 8.31013 7.75082 8.07666 7.65708C8.37623 8.40315 9.10587 8.93021 9.95906 8.93021C11.0792 8.93021 11.9873 8.02214 11.9873 6.90196C11.9873 6.04874 11.4603 5.31913 10.7142 5.01953Z" fill="#EAB14D"/>
<path d="M10.1072 6.0006L10.3196 6.43085C10.3389 6.46994 10.3762 6.49706 10.4194 6.50332L10.8942 6.5723C11.0028 6.5881 11.0462 6.72163 10.9676 6.79828L10.624 7.1332C10.5928 7.16363 10.5785 7.2075 10.5859 7.25045L10.667 7.72337C10.6856 7.83157 10.572 7.9141 10.4748 7.86302L10.0501 7.63975C10.0116 7.61945 9.96543 7.61945 9.92684 7.63975L9.50215 7.86302C9.40496 7.9141 9.29137 7.83157 9.30994 7.72337L9.39106 7.25045C9.39845 7.20746 9.3842 7.16363 9.35296 7.1332L9.00939 6.79828C8.93077 6.72163 8.97414 6.5881 9.0828 6.5723L9.55762 6.50332C9.60079 6.49706 9.63807 6.46994 9.65739 6.43085L9.86975 6.0006C9.91823 5.90214 10.0587 5.90214 10.1072 6.0006Z" fill="#FFE07D"/>
<path d="M10.9679 6.798C11.0465 6.72135 11.0031 6.58782 10.8945 6.57203L10.7214 6.54688L10.2599 6.99665C10.2137 7.04171 10.1926 7.10665 10.2035 7.17028L10.3071 7.77442L10.4751 7.86271C10.5723 7.91379 10.6859 7.83126 10.6673 7.72306L10.5862 7.25014C10.5788 7.20715 10.5931 7.16332 10.6243 7.13289L10.9679 6.798Z" fill="#FFD064"/>
<path d="M12.6742 18.9419H7.41109C7.24481 18.9419 7.11005 18.8071 7.11005 18.6409V16.1526C7.11005 15.9863 7.24484 15.8516 7.41109 15.8516H12.6742C12.8405 15.8516 12.9752 15.9864 12.9752 16.1526V18.6409C12.9753 18.8071 12.8405 18.9419 12.6742 18.9419Z" fill="#407093"/>
<path d="M12.675 15.8516H12.1048V17.7713C12.1048 17.9371 11.9704 18.0715 11.8046 18.0715H7.11005V18.6417C7.11005 18.8075 7.24446 18.9419 7.41028 18.9419H12.675C12.8408 18.9419 12.9752 18.8075 12.9752 18.6417V16.1518C12.9753 15.986 12.8408 15.8516 12.675 15.8516Z" fill="#365E7D"/>
</g>
</g>
<defs>
<clipPath id="clip0_10487_11527">
<rect width="19.648" height="19.648" fill="white" transform="translate(0.215637 0.829102)"/>
</clipPath>
<clipPath id="clip1_10487_11527">
<rect width="18.0107" height="18.0107" fill="white" transform="translate(1.03467 1.64844)"/>
</clipPath>
</defs>
</svg>
