<svg width="16" height="20" viewBox="0 0 16 20" fill="none" xmlns="http://www.w3.org/2000/svg">
<path fill-rule="evenodd" clip-rule="evenodd" d="M7.99083 10.7172C10.1444 10.7207 12.0879 9.41744 12.9145 7.41539C13.7411 5.41333 13.2879 3.1071 11.7663 1.57275C10.2447 0.0383955 7.95471 -0.421671 5.96472 0.407207C3.97472 1.23609 2.67696 3.19055 2.67696 5.35867C2.67695 8.31466 5.05464 10.7123 7.99083 10.7172ZM7.99082 1.53116C9.53286 1.53116 10.9229 2.4668 11.5122 3.90141C12.1015 5.33602 11.7739 6.98678 10.6822 8.08326C9.59058 9.17974 7.95015 9.50578 6.5265 8.90922C5.10286 8.31266 4.17669 6.91111 4.18022 5.35867C4.18022 4.34202 4.58197 3.36714 5.29685 2.64909C6.01173 1.93104 6.98099 1.52882 7.99082 1.53116ZM12.5356 13.1105C14.1962 13.4448 15.2799 14.1048 15.7344 15.0726C16.0975 15.8768 16.0879 16.8016 15.7082 17.5979C15.245 18.5658 14.1612 19.2257 12.4744 19.5689C11.7093 19.7411 10.932 19.8529 10.1496 19.9032C9.28433 20 8.55018 20 7.86847 20H7.59753C7.21133 19.9581 6.91856 19.63 6.91856 19.2389C6.91856 18.8478 7.21133 18.5197 7.59753 18.4778C8.39286 18.4866 9.19693 18.4602 10.001 18.3898C10.7124 18.3432 11.4194 18.2432 12.1161 18.0906C13.3134 17.8267 14.0651 17.4483 14.301 16.9468C14.4846 16.5631 14.4846 16.1162 14.301 15.7325C14.0651 15.2222 13.3134 14.8263 12.1423 14.5887C11.4348 14.4289 10.7159 14.3259 9.99226 14.2807C8.64034 14.1575 7.28013 14.1575 5.92821 14.2807C5.21388 14.3273 4.50399 14.4273 3.80441 14.5799C2.60704 14.8439 1.86414 15.2222 1.61943 15.7237C1.53272 15.9142 1.488 16.1213 1.48833 16.3309C1.48784 16.5432 1.53254 16.7533 1.61943 16.9468C2.03541 17.5188 2.66832 17.8915 3.36741 17.9763C3.645 18.0312 3.86932 18.2368 3.9497 18.5099C4.03008 18.7829 3.95322 19.0784 3.7502 19.2767C3.54718 19.4751 3.25157 19.5435 2.98285 19.4545C1.85607 19.2695 0.867809 18.5934 0.28222 17.6067C-0.0940735 16.8076 -0.0940735 15.8806 0.28222 15.0814C0.745436 14.0872 1.82919 13.4448 3.49851 13.1017C4.28445 12.9305 5.08201 12.8188 5.88451 12.7673C7.32108 12.6441 8.76545 12.6441 10.202 12.7673C10.9876 12.82 11.7679 12.9347 12.5356 13.1105Z" fill="#FFCD2F"/>
</svg>
