<svg width="24" height="24" viewBox="0 0 24 24" fill="none" xmlns="http://www.w3.org/2000/svg">
<path d="M5.46202 18.6138V15.6938C5.46202 14.7238 6.22202 13.8538 7.30202 13.8538C8.27202 13.8538 9.14201 14.6138 9.14201 15.6938V18.5038C9.14201 20.4538 7.52201 22.0739 5.57201 22.0739C3.62201 22.0739 2.002 20.4438 2.002 18.5038V12.3438C1.892 6.72381 6.33201 2.17383 11.952 2.17383C17.572 2.17383 22.002 6.72383 22.002 12.2338V18.3939C22.002 20.3439 20.382 21.9639 18.432 21.9639C16.482 21.9639 14.862 20.3439 14.862 18.3939V15.5839C14.862 14.6139 15.622 13.7438 16.702 13.7438C17.672 13.7438 18.542 14.5039 18.542 15.5839V18.6138" stroke="#FFCD2F" stroke-width="1.5" stroke-linecap="round" stroke-linejoin="round"/>
</svg>
