<svg width="22" height="22" viewBox="0 0 22 22" fill="none" xmlns="http://www.w3.org/2000/svg">
<path d="M21.3555 1.58783H18.5323C18.5425 1.27513 18.5482 0.960587 18.5482 0.644531C18.5482 0.288528 18.2595 0 17.9037 0H4.0963C3.74046 0 3.45177 0.288528 3.45177 0.644531C3.45177 0.960587 3.45747 1.27513 3.46771 1.58783H0.644531C0.288528 1.58783 0 1.87636 0 2.23236C0 5.12033 0.754807 7.84499 2.12527 9.90463C3.47997 11.9408 5.28448 13.1087 7.23386 13.2223C7.6758 13.7032 8.14291 14.0953 8.6295 14.3944V17.259H7.54823C6.24104 17.259 5.17773 18.3225 5.17773 19.6295V20.7108H5.13191C4.77591 20.7108 4.48738 20.9995 4.48738 21.3553C4.48738 21.7113 4.77591 21.9998 5.13191 21.9998H16.8681C17.2241 21.9998 17.5126 21.7113 17.5126 21.3553C17.5126 20.9995 17.2241 20.7108 16.8681 20.7108H16.8223V19.6295C16.8223 18.3225 15.759 17.259 14.4518 17.259H13.3705V14.3944C13.8571 14.0954 14.3244 13.7032 14.7663 13.2223C16.7155 13.1087 18.52 11.9408 19.8749 9.90463C21.2454 7.84499 22 5.12033 22 2.23236C22 1.87636 21.7115 1.58783 21.3555 1.58783ZM3.19849 9.19061C2.06804 7.49184 1.40387 5.26988 1.30266 2.87689H3.53972C3.77219 5.81857 4.46271 8.53769 5.54196 10.696C5.71384 11.0398 5.8936 11.3646 6.08008 11.6704C5.00804 11.2655 4.0159 10.4193 3.19849 9.19061ZM15.5332 19.6295V20.7109H6.4668V19.6295C6.4668 19.0333 6.95187 18.5481 7.54823 18.5481H14.4518C15.0481 18.5481 15.5332 19.0333 15.5332 19.6295ZM12.0814 17.259H9.91856V14.9545C10.2729 15.0478 10.6339 15.0963 11 15.0963C11.3661 15.0963 11.7271 15.0478 12.0814 14.9545V17.259ZM12.4806 13.421C12.4515 13.4329 12.4237 13.4474 12.397 13.4633C11.9415 13.6899 11.4733 13.8072 11 13.8072C10.5268 13.8072 10.0589 13.6899 9.60352 13.4637C9.57649 13.4474 9.54846 13.4329 9.51909 13.4207C9.0137 13.1535 8.52477 12.75 8.06235 12.2197C8.03801 12.185 8.01065 12.1529 7.98027 12.1237C7.52121 11.5787 7.08934 10.9084 6.6949 10.1195C5.51041 7.75066 4.82626 4.63593 4.74838 1.28906H17.2516C17.1736 4.63593 16.4894 7.75082 15.3051 10.1195C14.9107 10.9084 14.4788 11.5787 14.0199 12.1237C13.9893 12.1529 13.9617 12.1852 13.9375 12.2199C13.4751 12.7503 12.986 13.1536 12.4806 13.421ZM18.8015 9.19061C17.9841 10.4193 16.992 11.2655 15.9199 11.6704C16.1064 11.3646 16.2862 11.0398 16.458 10.696C17.5373 8.53769 18.2276 5.81857 18.4603 2.87689H20.6973C20.5961 5.26988 19.932 7.49184 18.8015 9.19061Z" fill="#9B9B9B"/>
</svg>
