<svg width="373" height="156" viewBox="0 0 373 156" fill="none" xmlns="http://www.w3.org/2000/svg">
<rect x="17" y="0.363281" width="340" height="150" rx="30" fill="#201E23"/>
<g filter="url(#filter0_d_10487_11653)">
<rect x="33" y="63.3965" width="307" height="67.9493" rx="24" fill="url(#paint0_linear_10487_11653)"/>
</g>
<ellipse cx="186.095" cy="76.8542" rx="27.0195" ry="26.5837" fill="url(#paint1_linear_10487_11653)"/>
<g filter="url(#filter1_d_10487_11653)">
<circle cx="204.139" cy="95.3818" r="9.06932" fill="white"/>
<circle cx="204.139" cy="95.3818" r="9.06932" stroke="#920C3B" stroke-width="0.9824"/>
</g>
<path fill-rule="evenodd" clip-rule="evenodd" d="M204.847 91.2335C204.796 90.8551 204.471 90.5635 204.079 90.5635C203.651 90.5635 203.304 90.9105 203.304 91.3387V94.3497H200.289L200.184 94.3568C199.805 94.4081 199.514 94.7324 199.514 95.1249C199.514 95.553 199.861 95.9001 200.289 95.9001H203.304V98.9111L203.311 99.0163C203.362 99.3946 203.687 99.6863 204.079 99.6863C204.507 99.6863 204.854 99.3392 204.854 98.9111V95.9001H207.869L207.974 95.893C208.352 95.8416 208.644 95.5173 208.644 95.1249C208.644 94.6967 208.297 94.3497 207.869 94.3497H204.854V91.3387L204.847 91.2335Z" fill="#292929"/>
<path d="M192.948 66.9411L186.083 76.7338L179.27 66.9423L178.937 67.1741L179.27 66.9423C179.143 66.7602 178.965 66.6384 178.765 66.563C178.584 66.4788 178.393 66.4269 178.197 66.4269C177.86 66.4269 177.557 66.5427 177.314 66.7759L177.305 66.7843L177.297 66.7931C177.083 67.0237 176.97 67.3054 176.97 67.6204V84.3495C176.97 84.6726 177.077 84.9656 177.297 85.2029L177.305 85.2117L177.314 85.2201C177.549 85.445 177.848 85.543 178.17 85.543C178.492 85.543 178.791 85.445 179.026 85.2201C179.27 84.9861 179.398 84.6877 179.398 84.3495V71.2424L185.062 79.5098L185.075 79.5293L185.09 79.5471C185.327 79.8197 185.632 80.0015 185.999 80.0015H186.041C186.435 80.0247 186.759 79.8352 187.001 79.5347L187.01 79.523L187.018 79.5107L192.683 71.2886V84.3495C192.683 84.6877 192.81 84.9861 193.055 85.2201L193.063 85.2284L193.072 85.2361C193.323 85.4498 193.632 85.543 193.965 85.543C194.288 85.543 194.585 85.445 194.831 85.2361L194.84 85.2284L194.849 85.2201C195.093 84.9861 195.22 84.6877 195.22 84.3495V67.6204C195.22 67.2893 195.097 66.9959 194.849 66.7757C194.632 66.5508 194.356 66.433 194.044 66.4271C193.6 66.3823 193.228 66.5743 192.958 66.9273L192.953 66.9341L192.948 66.9411Z" fill="#960C3C" stroke="#960C3C" stroke-width="0.818667"/>
<path d="M246.409 78.1963L248.753 78.1962L249.104 77.248H258.946L259.298 78.1962H261.641C261.524 79.1869 260.915 81.9199 260.352 82.8115C259.649 83.926 259.298 84.669 257.189 85.7836C255.501 86.6752 256.017 86.4027 256.486 86.1551L255.197 87.5696V89.913H255.783H256.954L257.54 90.4988V92.0992V92.8422H250.51V91.3561C250.627 90.9846 250.44 89.8701 251.565 89.8701C252.28 89.8701 252.702 89.8875 252.853 89.9001V87.5696L252.619 86.8981L251.565 85.7836L250.51 85.8121L249.104 85.0405C248.401 83.926 246.409 81.7113 246.409 80.5396V78.1963Z" fill="url(#paint2_linear_10487_11653)"/>
<path d="M261.746 77.6214H259.641C259.649 77.3883 259.653 77.1537 259.653 76.9181C259.653 76.6526 259.438 76.4375 259.172 76.4375H248.878C248.612 76.4375 248.397 76.6526 248.397 76.9181C248.397 77.1537 248.401 77.3883 248.409 77.6214H246.304C246.038 77.6214 245.823 77.8365 245.823 78.102C245.823 80.2553 246.386 82.2868 247.408 83.8225C248.418 85.3407 249.763 86.2115 251.217 86.2962C251.546 86.6548 251.895 86.9471 252.258 87.1702V89.3061H251.451C250.477 89.3061 249.684 90.099 249.684 91.0736V91.8798H249.65C249.384 91.8798 249.169 92.095 249.169 92.3603C249.169 92.6258 249.384 92.8409 249.65 92.8409H258.4C258.666 92.8409 258.881 92.6258 258.881 92.3603C258.881 92.095 258.666 91.8798 258.4 91.8798H258.366V91.0736C258.366 90.099 257.573 89.3061 256.599 89.3061H255.792V87.1702C256.155 86.9473 256.504 86.6548 256.833 86.2962C258.287 86.2115 259.632 85.3407 260.642 83.8225C261.664 82.2868 262.227 80.2553 262.227 78.102C262.227 77.8365 262.012 77.6214 261.746 77.6214ZM248.208 83.2902C247.365 82.0235 246.87 80.3668 246.795 78.5826H248.463C248.636 80.7759 249.151 82.8033 249.955 84.4126C250.084 84.6689 250.218 84.9111 250.357 85.1391C249.557 84.8373 248.818 84.2063 248.208 83.2902ZM257.405 91.0736V91.8799H250.645V91.0736C250.645 90.629 251.007 90.2672 251.451 90.2672H256.599C257.043 90.2672 257.405 90.629 257.405 91.0736ZM254.831 89.3061H253.219V87.5878C253.483 87.6574 253.752 87.6935 254.025 87.6935C254.298 87.6935 254.567 87.6574 254.831 87.5878V89.3061ZM255.129 86.4444C255.107 86.4533 255.087 86.4641 255.067 86.476C254.727 86.6449 254.378 86.7324 254.025 86.7324C253.672 86.7324 253.323 86.6449 252.984 86.4762C252.964 86.4641 252.943 86.4533 252.921 86.4442C252.544 86.2449 252.179 85.9441 251.835 85.5487C251.817 85.5228 251.796 85.4989 251.773 85.4771C251.431 85.0708 251.109 84.5709 250.815 83.9827C249.932 82.2165 249.422 79.8941 249.364 77.3986H258.686C258.628 79.8941 258.118 82.2166 257.235 83.9827C256.941 84.5709 256.619 85.0708 256.277 85.4771C256.254 85.4989 256.233 85.523 256.215 85.5489C255.87 85.9443 255.506 86.2451 255.129 86.4444ZM259.842 83.2902C259.232 84.2063 258.493 84.8373 257.693 85.1391C257.832 84.9111 257.966 84.6689 258.095 84.4126C258.899 82.8033 259.414 80.7759 259.587 78.5826H261.255C261.18 80.3668 260.685 82.0235 259.842 83.2902Z" fill="url(#paint3_linear_10487_11653)"/>
<g filter="url(#filter2_f_10487_11653)">
<circle cx="306.435" cy="83.0171" r="9.00533" fill="white" fill-opacity="0.3"/>
</g>
<path d="M306.435 86.9927C309.543 86.9927 312.165 87.5121 312.165 89.5163C312.165 91.5211 309.525 92.0221 306.435 92.0221C303.327 92.0221 300.704 91.5027 300.704 89.4986C300.704 87.4937 303.344 86.9927 306.435 86.9927ZM306.435 77.2861C308.54 77.2861 310.227 79.0206 310.227 81.1846C310.227 83.3486 308.54 85.0838 306.435 85.0838C304.33 85.0838 302.642 83.3486 302.642 81.1846C302.642 79.0206 304.33 77.2861 306.435 77.2861Z" fill="url(#paint4_linear_10487_11653)"/>
<line opacity="0.5" x1="133.559" y1="122.478" x2="240.26" y2="122.478" stroke="white" stroke-width="3" stroke-linecap="round" stroke-linejoin="round"/>
<path d="M57.2653 103.297H56.5122V97.4352H57.2653V99.9485H60.1962V97.4352H60.9493V103.297H60.1962V100.653H57.2653V103.297ZM61.7643 101.291C61.7643 100.674 61.9581 100.164 62.3456 99.7602C62.7385 99.3564 63.2324 99.1544 63.8273 99.1544C64.4222 99.1544 64.9134 99.3564 65.3009 99.7602C65.6939 100.164 65.8904 100.674 65.8904 101.291C65.8904 101.913 65.6939 102.424 65.3009 102.822C64.9134 103.226 64.4222 103.428 63.8273 103.428C63.2324 103.428 62.7385 103.226 62.3456 102.822C61.9581 102.418 61.7643 101.908 61.7643 101.291ZM62.5175 101.291C62.5175 101.722 62.643 102.072 62.8941 102.339C63.1451 102.606 63.4562 102.74 63.8273 102.74C64.1985 102.74 64.5096 102.606 64.7606 102.339C65.0117 102.072 65.1372 101.722 65.1372 101.291C65.1372 100.865 65.0117 100.519 64.7606 100.251C64.5041 99.9785 64.193 99.8421 63.8273 99.8421C63.4617 99.8421 63.1506 99.9785 62.8941 100.251C62.643 100.519 62.5175 100.865 62.5175 101.291ZM67.2478 103.297H66.4946V99.2854H67.215V99.8421H67.2478C67.3624 99.6456 67.537 99.4819 67.7717 99.3509C68.0119 99.2199 68.2493 99.1544 68.484 99.1544C68.7787 99.1544 69.0379 99.2226 69.2617 99.3591C69.4855 99.4955 69.6492 99.6838 69.7529 99.924C70.0858 99.4109 70.547 99.1544 71.1364 99.1544C71.6003 99.1544 71.9578 99.2963 72.2089 99.5801C72.4599 99.8639 72.5855 100.268 72.5855 100.792V103.297H71.8323V100.906C71.8323 100.53 71.7641 100.26 71.6276 100.096C71.4912 99.9267 71.262 99.8421 70.94 99.8421C70.6507 99.8421 70.4078 99.9649 70.2113 100.211C70.0149 100.456 69.9166 100.745 69.9166 101.078V103.297H69.1634V100.906C69.1634 100.53 69.0952 100.26 68.9588 100.096C68.8223 99.9267 68.5931 99.8421 68.2711 99.8421C67.9818 99.8421 67.739 99.9649 67.5425 100.211C67.346 100.456 67.2478 100.745 67.2478 101.078V103.297ZM75.2671 103.428C74.6777 103.428 74.1919 103.226 73.8099 102.822C73.4278 102.418 73.2368 101.908 73.2368 101.291C73.2368 100.68 73.4224 100.172 73.7935 99.7684C74.1646 99.3591 74.6395 99.1544 75.218 99.1544C75.8129 99.1544 76.285 99.3482 76.6343 99.7357C76.9891 100.118 77.1664 100.655 77.1664 101.348L77.1582 101.43H74.0064C74.0173 101.823 74.1483 102.14 74.3993 102.38C74.6504 102.62 74.9506 102.74 75.2999 102.74C75.7802 102.74 76.1567 102.5 76.4296 102.02L77.1009 102.347C76.9208 102.686 76.6698 102.95 76.3478 103.141C76.0312 103.332 75.671 103.428 75.2671 103.428ZM74.0637 100.808H76.3641C76.3423 100.53 76.2277 100.301 76.0203 100.12C75.8184 99.9349 75.5455 99.8421 75.2016 99.8421C74.9178 99.8421 74.6722 99.9294 74.4648 100.104C74.2629 100.279 74.1292 100.513 74.0637 100.808Z" fill="#EE6293"/>
<path d="M110.691 97.4352V98.1556H108.022V100.014H110.429V100.718H108.022V102.576H110.691V103.297H107.269V97.4352H110.691ZM113.403 101.258L114.835 103.297H113.951L112.961 101.815L111.987 103.297H111.102L112.519 101.258L111.135 99.2854H111.987L112.977 100.702L113.919 99.2854H114.803L113.403 101.258ZM117.322 102.74C117.682 102.74 117.985 102.604 118.23 102.331C118.476 102.063 118.599 101.717 118.599 101.291C118.599 100.871 118.476 100.524 118.23 100.251C117.985 99.9785 117.682 99.8421 117.322 99.8421C116.956 99.8421 116.65 99.9785 116.405 100.251C116.165 100.524 116.044 100.871 116.044 101.291C116.044 101.717 116.165 102.066 116.405 102.339C116.65 102.606 116.956 102.74 117.322 102.74ZM117.444 103.428C117.15 103.428 116.88 103.365 116.634 103.24C116.394 103.114 116.208 102.948 116.077 102.74H116.044L116.077 103.297V105.065H115.324V99.2854H116.044V99.8421H116.077C116.208 99.6347 116.394 99.4682 116.634 99.3427C116.88 99.2172 117.15 99.1544 117.444 99.1544C117.974 99.1544 118.421 99.3618 118.787 99.7766C119.164 100.197 119.352 100.702 119.352 101.291C119.352 101.886 119.164 102.391 118.787 102.806C118.421 103.22 117.974 103.428 117.444 103.428ZM120.715 97.4352V103.297H119.962V97.4352H120.715ZM121.363 101.291C121.363 100.674 121.557 100.164 121.945 99.7602C122.338 99.3564 122.832 99.1544 123.427 99.1544C124.021 99.1544 124.513 99.3564 124.9 99.7602C125.293 100.164 125.49 100.674 125.49 101.291C125.49 101.913 125.293 102.424 124.9 102.822C124.513 103.226 124.021 103.428 123.427 103.428C122.832 103.428 122.338 103.226 121.945 102.822C121.557 102.418 121.363 101.908 121.363 101.291ZM122.117 101.291C122.117 101.722 122.242 102.072 122.493 102.339C122.744 102.606 123.055 102.74 123.427 102.74C123.798 102.74 124.109 102.606 124.36 102.339C124.611 102.072 124.736 101.722 124.736 101.291C124.736 100.865 124.611 100.519 124.36 100.251C124.103 99.9785 123.792 99.8421 123.427 99.8421C123.061 99.8421 122.75 99.9785 122.493 100.251C122.242 100.519 122.117 100.865 122.117 101.291ZM126.847 103.297H126.094V99.2854H126.814V99.9403H126.847C126.923 99.7275 127.079 99.5474 127.314 99.4C127.554 99.2472 127.788 99.1708 128.018 99.1708C128.236 99.1708 128.422 99.2035 128.574 99.269L128.345 99.9976C128.252 99.9594 128.105 99.9403 127.903 99.9403C127.619 99.9403 127.371 100.055 127.158 100.284C126.951 100.513 126.847 100.781 126.847 101.086V103.297ZM130.621 103.428C130.032 103.428 129.546 103.226 129.164 102.822C128.782 102.418 128.591 101.908 128.591 101.291C128.591 100.68 128.776 100.172 129.147 99.7684C129.519 99.3591 129.993 99.1544 130.572 99.1544C131.167 99.1544 131.639 99.3482 131.988 99.7357C132.343 100.118 132.52 100.655 132.52 101.348L132.512 101.43H129.36C129.371 101.823 129.502 102.14 129.753 102.38C130.004 102.62 130.305 102.74 130.654 102.74C131.134 102.74 131.511 102.5 131.784 102.02L132.455 102.347C132.275 102.686 132.024 102.95 131.702 103.141C131.385 103.332 131.025 103.428 130.621 103.428ZM129.418 100.808H131.718C131.696 100.53 131.582 100.301 131.374 100.12C131.172 99.9349 130.899 99.8421 130.556 99.8421C130.272 99.8421 130.026 99.9294 129.819 100.104C129.617 100.279 129.483 100.513 129.418 100.808Z" fill="#EE6293"/>
<path d="M296.316 100.923V103.297H295.563V97.4352H297.561C298.068 97.4352 298.499 97.6044 298.854 97.9428C299.214 98.2812 299.394 98.6932 299.394 99.179C299.394 99.6756 299.214 100.09 298.854 100.423C298.505 100.756 298.074 100.923 297.561 100.923H296.316ZM296.316 98.1556V100.202H297.577C297.877 100.202 298.125 100.101 298.322 99.8994C298.524 99.6975 298.625 99.4573 298.625 99.179C298.625 98.9061 298.524 98.6687 298.322 98.4667C298.125 98.2593 297.877 98.1556 297.577 98.1556H296.316ZM300.806 103.297H300.053V99.2854H300.774V99.9403H300.806C300.883 99.7275 301.038 99.5474 301.273 99.4C301.513 99.2472 301.748 99.1708 301.977 99.1708C302.195 99.1708 302.381 99.2035 302.534 99.269L302.304 99.9976C302.212 99.9594 302.064 99.9403 301.862 99.9403C301.579 99.9403 301.33 100.055 301.117 100.284C300.91 100.513 300.806 100.781 300.806 101.086V103.297ZM302.55 101.291C302.55 100.674 302.744 100.164 303.131 99.7602C303.524 99.3564 304.018 99.1544 304.613 99.1544C305.208 99.1544 305.699 99.3564 306.087 99.7602C306.48 100.164 306.676 100.674 306.676 101.291C306.676 101.913 306.48 102.424 306.087 102.822C305.699 103.226 305.208 103.428 304.613 103.428C304.018 103.428 303.524 103.226 303.131 102.822C302.744 102.418 302.55 101.908 302.55 101.291ZM303.303 101.291C303.303 101.722 303.429 102.072 303.68 102.339C303.931 102.606 304.242 102.74 304.613 102.74C304.984 102.74 305.295 102.606 305.546 102.339C305.797 102.072 305.923 101.722 305.923 101.291C305.923 100.865 305.797 100.519 305.546 100.251C305.29 99.9785 304.979 99.8421 304.613 99.8421C304.247 99.8421 303.936 99.9785 303.68 100.251C303.429 100.519 303.303 100.865 303.303 101.291ZM311.195 97.9019C311.195 98.0492 311.143 98.1747 311.039 98.2784C310.935 98.3821 310.81 98.434 310.662 98.434C310.515 98.434 310.39 98.3821 310.286 98.2784C310.182 98.1747 310.13 98.0492 310.13 97.9019C310.13 97.7545 310.182 97.629 310.286 97.5253C310.39 97.4216 310.515 97.3697 310.662 97.3697C310.81 97.3697 310.935 97.4216 311.039 97.5253C311.143 97.629 311.195 97.7545 311.195 97.9019ZM308.485 99.9731V103.297H307.732V99.9731H306.978V99.2854H307.732V98.7042C307.732 98.5077 307.764 98.3276 307.83 98.1638C307.901 98.0001 307.996 97.8609 308.116 97.7463C308.236 97.6262 308.378 97.5335 308.542 97.468C308.711 97.4025 308.894 97.3697 309.091 97.3697C309.363 97.3697 309.587 97.4161 309.762 97.5089L309.557 98.172C309.426 98.1065 309.279 98.0738 309.115 98.0738C308.93 98.0738 308.777 98.1393 308.657 98.2703C308.542 98.3958 308.485 98.565 308.485 98.7778V99.2854H311.039V103.297H310.286V99.9731H308.485ZM312.774 97.4352V103.297H312.021V97.4352H312.774ZM315.453 103.428C314.864 103.428 314.378 103.226 313.996 102.822C313.614 102.418 313.423 101.908 313.423 101.291C313.423 100.68 313.609 100.172 313.98 99.7684C314.351 99.3591 314.826 99.1544 315.404 99.1544C315.999 99.1544 316.471 99.3482 316.82 99.7357C317.175 100.118 317.353 100.655 317.353 101.348L317.344 101.43H314.193C314.203 101.823 314.334 102.14 314.585 102.38C314.837 102.62 315.137 102.74 315.486 102.74C315.966 102.74 316.343 102.5 316.616 102.02L317.287 102.347C317.107 102.686 316.856 102.95 316.534 103.141C316.217 103.332 315.857 103.428 315.453 103.428ZM314.25 100.808H316.55C316.528 100.53 316.414 100.301 316.206 100.12C316.005 99.9349 315.732 99.8421 315.388 99.8421C315.104 99.8421 314.858 99.9294 314.651 100.104C314.449 100.279 314.315 100.513 314.25 100.808Z" fill="#FFC7DA"/>
<path d="M234.524 98.1556V103.297H233.77V98.1556H232.133V97.4352H236.161V98.1556H234.524ZM235.931 101.291C235.931 100.674 236.125 100.164 236.513 99.7602C236.906 99.3564 237.399 99.1544 237.994 99.1544C238.589 99.1544 239.08 99.3564 239.468 99.7602C239.861 100.164 240.057 100.674 240.057 101.291C240.057 101.913 239.861 102.424 239.468 102.822C239.08 103.226 238.589 103.428 237.994 103.428C237.399 103.428 236.906 103.226 236.513 102.822C236.125 102.418 235.931 101.908 235.931 101.291ZM236.684 101.291C236.684 101.722 236.81 102.072 237.061 102.339C237.312 102.606 237.623 102.74 237.994 102.74C238.365 102.74 238.677 102.606 238.928 102.339C239.179 102.072 239.304 101.722 239.304 101.291C239.304 100.865 239.179 100.519 238.928 100.251C238.671 99.9785 238.36 99.8421 237.994 99.8421C237.629 99.8421 237.318 99.9785 237.061 100.251C236.81 100.519 236.684 100.865 236.684 101.291ZM244.222 103.297H243.501V102.74H243.469C243.354 102.937 243.177 103.1 242.937 103.231C242.702 103.362 242.456 103.428 242.2 103.428C241.709 103.428 241.329 103.289 241.062 103.01C240.8 102.727 240.669 102.325 240.669 101.807V99.2854H241.422V101.758C241.438 102.413 241.769 102.74 242.413 102.74C242.713 102.74 242.964 102.62 243.166 102.38C243.368 102.134 243.469 101.842 243.469 101.504V99.2854H244.222V103.297ZM245.892 103.297H245.139V99.2854H245.859V99.9403H245.892C245.968 99.7275 246.124 99.5474 246.358 99.4C246.599 99.2472 246.833 99.1708 247.063 99.1708C247.281 99.1708 247.466 99.2035 247.619 99.269L247.39 99.9976C247.297 99.9594 247.15 99.9403 246.948 99.9403C246.664 99.9403 246.416 100.055 246.203 100.284C245.996 100.513 245.892 100.781 245.892 101.086V103.297ZM248.113 99.2854H248.833V99.8421H248.866C248.981 99.6456 249.155 99.4819 249.39 99.3509C249.63 99.2199 249.878 99.1544 250.135 99.1544C250.626 99.1544 251.003 99.2963 251.265 99.5801C251.532 99.8585 251.666 100.257 251.666 100.775V103.297H250.913V100.825C250.896 100.17 250.566 99.8421 249.922 99.8421C249.622 99.8421 249.371 99.9649 249.169 100.211C248.967 100.451 248.866 100.74 248.866 101.078V103.297H248.113V99.2854ZM253.058 102.069C253.058 102.265 253.14 102.429 253.304 102.56C253.473 102.691 253.67 102.757 253.893 102.757C254.21 102.757 254.491 102.639 254.737 102.405C254.988 102.17 255.113 101.894 255.113 101.578C254.879 101.392 254.551 101.299 254.131 101.299C253.825 101.299 253.569 101.373 253.361 101.52C253.159 101.668 253.058 101.851 253.058 102.069ZM254.033 99.1544C254.589 99.1544 255.029 99.3045 255.351 99.6047C255.673 99.8994 255.834 100.306 255.834 100.825V103.297H255.113V102.74H255.08C254.769 103.199 254.355 103.428 253.836 103.428C253.394 103.428 253.023 103.297 252.723 103.035C252.428 102.773 252.281 102.445 252.281 102.053C252.281 101.638 252.436 101.308 252.747 101.062C253.064 100.816 253.484 100.694 254.008 100.694C254.456 100.694 254.824 100.775 255.113 100.939V100.767C255.113 100.505 255.01 100.284 254.802 100.104C254.595 99.9185 254.352 99.8257 254.074 99.8257C253.653 99.8257 253.32 100.003 253.075 100.358L252.412 99.9403C252.777 99.4164 253.318 99.1544 254.033 99.1544ZM257.436 103.297H256.683V99.2854H257.404V99.8421H257.436C257.551 99.6456 257.726 99.4819 257.96 99.3509C258.2 99.2199 258.438 99.1544 258.673 99.1544C258.967 99.1544 259.226 99.2226 259.45 99.3591C259.674 99.4955 259.838 99.6838 259.941 99.924C260.274 99.4109 260.736 99.1544 261.325 99.1544C261.789 99.1544 262.146 99.2963 262.397 99.5801C262.649 99.8639 262.774 100.268 262.774 100.792V103.297H262.021V100.906C262.021 100.53 261.953 100.26 261.816 100.096C261.68 99.9267 261.451 99.8421 261.129 99.8421C260.839 99.8421 260.596 99.9649 260.4 100.211C260.203 100.456 260.105 100.745 260.105 101.078V103.297H259.352V100.906C259.352 100.53 259.284 100.26 259.147 100.096C259.011 99.9267 258.782 99.8421 258.46 99.8421C258.17 99.8421 257.928 99.9649 257.731 100.211C257.535 100.456 257.436 100.745 257.436 101.078V103.297ZM265.456 103.428C264.866 103.428 264.38 103.226 263.998 102.822C263.616 102.418 263.425 101.908 263.425 101.291C263.425 100.68 263.611 100.172 263.982 99.7684C264.353 99.3591 264.828 99.1544 265.407 99.1544C266.001 99.1544 266.474 99.3482 266.823 99.7357C267.178 100.118 267.355 100.655 267.355 101.348L267.347 101.43H264.195C264.206 101.823 264.337 102.14 264.588 102.38C264.839 102.62 265.139 102.74 265.488 102.74C265.969 102.74 266.345 102.5 266.618 102.02L267.289 102.347C267.109 102.686 266.858 102.95 266.536 103.141C266.22 103.332 265.86 103.428 265.456 103.428ZM264.252 100.808H266.553C266.531 100.53 266.416 100.301 266.209 100.12C266.007 99.9349 265.734 99.8421 265.39 99.8421C265.106 99.8421 264.861 99.9294 264.653 100.104C264.451 100.279 264.318 100.513 264.252 100.808ZM268.044 99.2854H268.764V99.8421H268.797C268.912 99.6456 269.086 99.4819 269.321 99.3509C269.561 99.2199 269.809 99.1544 270.066 99.1544C270.557 99.1544 270.934 99.2963 271.196 99.5801C271.463 99.8585 271.597 100.257 271.597 100.775V103.297H270.844V100.825C270.827 100.17 270.497 99.8421 269.853 99.8421C269.553 99.8421 269.302 99.9649 269.1 100.211C268.898 100.451 268.797 100.74 268.797 101.078V103.297H268.044V99.2854ZM273.861 103.362C273.534 103.362 273.261 103.261 273.043 103.059C272.83 102.858 272.721 102.576 272.715 102.216V99.9731H272.011V99.2854H272.715V98.0574H273.468V99.2854H274.451V99.9731H273.468V101.971C273.468 102.238 273.52 102.421 273.624 102.519C273.727 102.612 273.845 102.658 273.976 102.658C274.036 102.658 274.093 102.653 274.148 102.642C274.208 102.626 274.262 102.606 274.311 102.585L274.549 103.256C274.352 103.327 274.123 103.362 273.861 103.362Z" fill="#EE6293"/>
<g clip-path="url(#clip0_10487_11653)">
<g clip-path="url(#clip1_10487_11653)">
<g clip-path="url(#clip2_10487_11653)">
<circle cx="120.118" cy="82.6786" r="9.48524" fill="url(#paint5_linear_10487_11653)"/>
<path d="M120.118 73.1934C125.355 73.1934 129.604 77.477 129.604 82.6786C129.604 87.9014 125.341 92.1638 120.118 92.1638C114.895 92.1638 110.633 87.9011 110.633 82.6786C110.633 77.4558 114.896 73.1934 120.118 73.1934ZM120.118 74.3049C119.193 74.3049 118.303 74.456 117.47 74.7343C117.626 74.9648 117.724 75.2696 117.724 75.6627C117.724 76.2631 117.455 76.7997 117.196 77.3187C116.985 77.7408 116.785 78.1396 116.785 78.4775C116.785 78.6729 116.832 78.718 116.992 78.7713C117.297 78.873 117.864 78.861 118.252 78.8597C119.168 78.8566 120.206 78.8533 121.314 79.9611C121.467 80.1141 121.55 80.122 122.08 79.857C122.565 79.6145 123.376 79.2087 124.129 79.9611C124.569 80.4011 124.743 81.0209 124.621 81.6494C125.165 81.4383 125.917 81.3405 126.009 81.1072C126.051 80.9992 126.118 80.5294 125.186 79.0166C124.84 78.4555 124.425 77.6335 124.808 76.9749C124.994 76.6555 125.305 76.4856 125.649 76.397C124.173 75.0957 122.236 74.3049 120.118 74.3049ZM120.118 91.0523C124.736 91.0523 128.492 87.2959 128.492 82.6786C128.492 80.6886 127.794 78.8589 126.63 77.4206C125.99 77.4151 125.817 77.493 125.77 77.5344C125.764 77.5708 125.747 77.8087 126.132 78.4337C127.041 79.9084 127.313 80.8299 127.043 81.515C126.678 82.4405 125.532 82.4418 124.91 82.7338C124.534 82.9104 122.635 83.7853 122.415 84.1113V85.0455C122.415 85.7419 121.758 86.118 121.229 86.4202C121.015 86.5426 120.57 86.7974 120.539 86.922C120.539 89.1391 120.325 90.3597 120.05 91.0515C120.073 91.0516 120.095 91.0523 120.118 91.0523ZM118.673 90.4513C118.669 90.5632 118.786 90.7909 118.887 90.8927C119.028 90.6961 119.427 89.8799 119.427 86.922C119.427 86.1705 120.12 85.7739 120.677 85.4553C120.873 85.3432 121.237 85.1374 121.307 85.024V84.1072C121.307 83.9575 121.331 83.8239 121.379 83.7037C120.456 83.6189 120.006 83.2935 119.664 83.0467C119.425 82.8734 119.305 82.7865 119.044 82.7865C119.037 82.7865 119.033 82.787 119.033 82.7869C118.975 82.8155 118.851 83.0232 118.776 83.1474C118.146 84.2004 117.531 84.5767 116.326 84.8407C116.164 84.8761 115.924 84.9288 115.853 84.9762C115.85 84.9876 115.847 85.0094 115.847 85.0454C115.847 86.1923 116.73 87.0232 117.509 87.7563C118.133 88.3441 118.673 88.8518 118.673 89.4959C118.673 89.5859 118.674 90.4023 118.673 90.4513ZM117.578 90.6579C117.565 90.5775 117.563 90.4982 117.565 90.4214C117.566 90.3462 117.565 89.5016 117.565 89.4961C117.565 89.4953 117.557 89.4151 117.388 89.2111C117.231 89.0213 116.996 88.8 116.747 88.5656C115.898 87.7667 114.736 86.6725 114.736 85.0454C114.736 84.4882 115.017 84.1918 115.252 84.0413C115.499 83.8839 115.785 83.8212 116.088 83.7548C116.988 83.5576 117.351 83.3646 117.822 82.5767C118.05 82.196 118.362 81.6748 119.044 81.6748C119.664 81.6748 120.026 81.936 120.316 82.1458C120.648 82.3861 120.962 82.613 121.859 82.613C122.751 82.613 123.281 82.0966 123.464 81.6544C123.533 81.4872 123.66 81.0641 123.343 80.747C123.19 80.594 123.107 80.5861 122.577 80.8511C122.092 81.0936 121.28 81.4994 120.528 80.747C119.747 79.9663 119.089 79.9685 118.255 79.9712C117.722 79.9729 117.115 79.9839 116.64 79.8257C116.017 79.6179 115.674 79.1391 115.674 78.4774C115.674 77.8771 115.942 77.3404 116.202 76.8215C116.413 76.3993 116.612 76.0005 116.612 75.6626C116.612 75.4018 116.555 75.2559 116.268 75.2442C113.583 76.6406 111.745 79.4488 111.745 82.6786C111.745 86.4106 114.199 89.5797 117.578 90.6579Z" fill="url(#paint6_linear_10487_11653)"/>
</g>
</g>
</g>
<path fill-rule="evenodd" clip-rule="evenodd" d="M63.8292 90.1976V87.687C63.8291 87.0484 64.3498 86.5295 64.9948 86.5252H67.3575C68.0056 86.5252 68.531 87.0454 68.531 87.687V90.2054C68.5309 90.7476 68.968 91.1907 69.5155 91.2034H71.0906C72.6609 91.2034 73.9338 89.9432 73.9338 88.3887V81.2467C73.9254 80.6351 73.6354 80.0608 73.1462 79.6873L67.7592 75.3911C66.8154 74.6431 65.4739 74.6431 64.5301 75.3911L59.1667 79.6951C58.6757 80.0671 58.3852 80.6423 58.3791 81.2545V88.3887C58.3791 89.9432 59.652 91.2034 61.2223 91.2034H62.7974C63.3585 91.2034 63.8134 90.7531 63.8134 90.1976" fill="url(#paint7_linear_10487_11653)"/>
<path opacity="0.5" d="M38.136 35.6193C36.8667 35.6193 35.8427 35.2033 35.064 34.3713C34.2853 33.5499 33.896 32.4619 33.896 31.1073V23.9073H35.368V31.1713C35.368 32.1099 35.6133 32.8513 36.104 33.3953C36.5947 33.9393 37.272 34.2113 38.136 34.2113C39 34.2113 39.6773 33.9393 40.168 33.3953C40.6587 32.8513 40.904 32.1099 40.904 31.1713V23.9073H42.376V31.1073C42.376 32.4939 41.992 33.5926 41.224 34.4033C40.456 35.2139 39.4267 35.6193 38.136 35.6193ZM44.1616 27.5233H45.5696V28.6113H45.6336C45.8576 28.2273 46.199 27.9073 46.6576 27.6513C47.127 27.3953 47.6123 27.2673 48.1136 27.2673C49.0736 27.2673 49.8096 27.5446 50.3216 28.0993C50.8443 28.6433 51.1056 29.4219 51.1056 30.4353V35.3633H49.6336V30.5313C49.6016 29.2513 48.9563 28.6113 47.6976 28.6113C47.111 28.6113 46.6203 28.8513 46.2256 29.3313C45.831 29.8006 45.6336 30.3659 45.6336 31.0273V35.3633H44.1616V27.5233ZM54.7375 24.8193C54.7375 25.1073 54.6362 25.3526 54.4335 25.5553C54.2308 25.7579 53.9855 25.8593 53.6975 25.8593C53.4095 25.8593 53.1642 25.7579 52.9615 25.5553C52.7588 25.3526 52.6575 25.1073 52.6575 24.8193C52.6575 24.5313 52.7588 24.2859 52.9615 24.0833C53.1642 23.8806 53.4095 23.7793 53.6975 23.7793C53.9855 23.7793 54.2308 23.8806 54.4335 24.0833C54.6362 24.2859 54.7375 24.5313 54.7375 24.8193ZM54.4335 27.5233V35.3633H52.9615V27.5233H54.4335ZM59.855 35.6193C58.6923 35.6193 57.727 35.2246 56.959 34.4353C56.2017 33.6246 55.823 32.6273 55.823 31.4433C55.823 30.2379 56.2017 29.2406 56.959 28.4513C57.727 27.6619 58.6923 27.2673 59.855 27.2673C60.655 27.2673 61.3537 27.4699 61.951 27.8753C62.5483 28.2699 62.9963 28.8193 63.295 29.5233L61.951 30.0833C61.535 29.1019 60.8043 28.6113 59.759 28.6113C59.087 28.6113 58.5057 28.8833 58.015 29.4273C57.535 29.9713 57.295 30.6433 57.295 31.4433C57.295 32.2433 57.535 32.9153 58.015 33.4593C58.5057 34.0033 59.087 34.2753 59.759 34.2753C60.8363 34.2753 61.5937 33.7846 62.031 32.8033L63.343 33.3633C63.055 34.0673 62.6017 34.6219 61.983 35.0273C61.375 35.4219 60.6657 35.6193 59.855 35.6193ZM64.1043 31.4433C64.1043 30.2379 64.4829 29.2406 65.2403 28.4513C66.0083 27.6619 66.9736 27.2673 68.1363 27.2673C69.2989 27.2673 70.2589 27.6619 71.0163 28.4513C71.7843 29.2406 72.1683 30.2379 72.1683 31.4433C72.1683 32.6593 71.7843 33.6566 71.0163 34.4353C70.2589 35.2246 69.2989 35.6193 68.1363 35.6193C66.9736 35.6193 66.0083 35.2246 65.2403 34.4353C64.4829 33.6459 64.1043 32.6486 64.1043 31.4433ZM65.5763 31.4433C65.5763 32.2859 65.8216 32.9686 66.3123 33.4913C66.8029 34.0139 67.4109 34.2753 68.1363 34.2753C68.8616 34.2753 69.4696 34.0139 69.9603 33.4913C70.4509 32.9686 70.6963 32.2859 70.6963 31.4433C70.6963 30.6113 70.4509 29.9339 69.9603 29.4113C69.4589 28.8779 68.8509 28.6113 68.1363 28.6113C67.4216 28.6113 66.8136 28.8779 66.3123 29.4113C65.8216 29.9339 65.5763 30.6113 65.5763 31.4433ZM74.8211 35.3633H73.3491V27.5233H74.7571V28.8033H74.8211C74.9705 28.3873 75.2745 28.0353 75.7331 27.7473C76.2025 27.4486 76.6611 27.2993 77.1091 27.2993C77.5358 27.2993 77.8985 27.3633 78.1971 27.4913L77.7491 28.9153C77.5678 28.8406 77.2798 28.8033 76.8851 28.8033C76.3305 28.8033 75.8451 29.0273 75.4291 29.4753C75.0238 29.9233 74.8211 30.4459 74.8211 31.0433V35.3633ZM79.1616 27.5233H80.5696V28.6113H80.6336C80.8576 28.2273 81.199 27.9073 81.6576 27.6513C82.127 27.3953 82.6123 27.2673 83.1136 27.2673C84.0736 27.2673 84.8096 27.5446 85.3216 28.0993C85.8443 28.6433 86.1056 29.4219 86.1056 30.4353V35.3633H84.6336V30.5313C84.6016 29.2513 83.9563 28.6113 82.6976 28.6113C82.111 28.6113 81.6203 28.8513 81.2256 29.3313C80.831 29.8006 80.6336 30.3659 80.6336 31.0273V35.3633H79.1616V27.5233ZM94.8685 25.3153V35.3633H93.3965V25.3153H90.1965V23.9073H98.0685V25.3153H94.8685ZM99.3491 23.9073H100.821V27.5233L100.757 28.6113H100.821C101.045 28.2273 101.386 27.9073 101.845 27.6513C102.314 27.3953 102.8 27.2673 103.301 27.2673C104.261 27.2673 104.997 27.5446 105.509 28.0993C106.032 28.6433 106.293 29.4219 106.293 30.4353V35.3633H104.821V30.7233C104.821 29.3153 104.197 28.6113 102.949 28.6113C102.352 28.6113 101.845 28.8619 101.429 29.3633C101.024 29.8539 100.821 30.4299 100.821 31.0913V35.3633H99.3491V23.9073ZM111.541 35.6193C110.389 35.6193 109.44 35.2246 108.693 34.4353C107.946 33.6459 107.573 32.6486 107.573 31.4433C107.573 30.2486 107.936 29.2566 108.661 28.4673C109.386 27.6673 110.314 27.2673 111.445 27.2673C112.608 27.2673 113.53 27.6459 114.213 28.4033C114.906 29.1499 115.253 30.2006 115.253 31.5553L115.237 31.7153H109.077C109.098 32.4833 109.354 33.1019 109.845 33.5713C110.336 34.0406 110.922 34.2753 111.605 34.2753C112.544 34.2753 113.28 33.8059 113.813 32.8673L115.125 33.5073C114.773 34.1686 114.282 34.6859 113.653 35.0593C113.034 35.4326 112.33 35.6193 111.541 35.6193ZM109.189 30.4993H113.685C113.642 29.9553 113.418 29.5073 113.013 29.1553C112.618 28.7926 112.085 28.6113 111.413 28.6113C110.858 28.6113 110.378 28.7819 109.973 29.1233C109.578 29.4646 109.317 29.9233 109.189 30.4993ZM118.071 35.3633H116.599V27.5233H118.007V28.6113H118.071C118.295 28.2273 118.636 27.9073 119.095 27.6513C119.564 27.3953 120.028 27.2673 120.487 27.2673C121.063 27.2673 121.57 27.4006 122.007 27.6673C122.444 27.9339 122.764 28.3019 122.967 28.7713C123.618 27.7686 124.519 27.2673 125.671 27.2673C126.578 27.2673 127.276 27.5446 127.767 28.0993C128.258 28.6539 128.503 29.4433 128.503 30.4673V35.3633H127.031V30.6913C127.031 29.9553 126.898 29.4273 126.631 29.1073C126.364 28.7766 125.916 28.6113 125.287 28.6113C124.722 28.6113 124.247 28.8513 123.863 29.3313C123.479 29.8113 123.287 30.3766 123.287 31.0273V35.3633H121.815V30.6913C121.815 29.9553 121.682 29.4273 121.415 29.1073C121.148 28.7766 120.7 28.6113 120.071 28.6113C119.506 28.6113 119.031 28.8513 118.647 29.3313C118.263 29.8113 118.071 30.3766 118.071 31.0273V35.3633ZM133.744 35.6193C132.592 35.6193 131.643 35.2246 130.896 34.4353C130.149 33.6459 129.776 32.6486 129.776 31.4433C129.776 30.2486 130.139 29.2566 130.864 28.4673C131.589 27.6673 132.517 27.2673 133.648 27.2673C134.811 27.2673 135.733 27.6459 136.416 28.4033C137.109 29.1499 137.456 30.2006 137.456 31.5553L137.44 31.7153H131.28C131.301 32.4833 131.557 33.1019 132.048 33.5713C132.539 34.0406 133.125 34.2753 133.808 34.2753C134.747 34.2753 135.483 33.8059 136.016 32.8673L137.328 33.5073C136.976 34.1686 136.485 34.6859 135.856 35.0593C135.237 35.4326 134.533 35.6193 133.744 35.6193ZM131.392 30.4993H135.888C135.845 29.9553 135.621 29.5073 135.216 29.1553C134.821 28.7926 134.288 28.6113 133.616 28.6113C133.061 28.6113 132.581 28.7819 132.176 29.1233C131.781 29.4646 131.52 29.9233 131.392 30.4993Z" fill="white"/>
<defs>
<filter id="filter0_d_10487_11653" x="0.253333" y="22.4631" width="372.493" height="133.443" filterUnits="userSpaceOnUse" color-interpolation-filters="sRGB">
<feFlood flood-opacity="0" result="BackgroundImageFix"/>
<feColorMatrix in="SourceAlpha" type="matrix" values="0 0 0 0 0 0 0 0 0 0 0 0 0 0 0 0 0 0 127 0" result="hardAlpha"/>
<feMorphology radius="4.09333" operator="dilate" in="SourceAlpha" result="effect1_dropShadow_10487_11653"/>
<feOffset dy="-8.18667"/>
<feGaussianBlur stdDeviation="14.3267"/>
<feColorMatrix type="matrix" values="0 0 0 0 0 0 0 0 0 0 0 0 0 0 0 0 0 0 0.2 0"/>
<feBlend mode="normal" in2="BackgroundImageFix" result="effect1_dropShadow_10487_11653"/>
<feBlend mode="normal" in="SourceGraphic" in2="effect1_dropShadow_10487_11653" result="shape"/>
</filter>
<filter id="filter1_d_10487_11653" x="184.754" y="82.5466" width="38.769" height="38.7691" filterUnits="userSpaceOnUse" color-interpolation-filters="sRGB">
<feFlood flood-opacity="0" result="BackgroundImageFix"/>
<feColorMatrix in="SourceAlpha" type="matrix" values="0 0 0 0 0 0 0 0 0 0 0 0 0 0 0 0 0 0 127 0" result="hardAlpha"/>
<feOffset dy="6.54933"/>
<feGaussianBlur stdDeviation="4.912"/>
<feColorMatrix type="matrix" values="0 0 0 0 0 0 0 0 0 0 0 0 0 0 0 0 0 0 0.25 0"/>
<feBlend mode="normal" in2="BackgroundImageFix" result="effect1_dropShadow_10487_11653"/>
<feBlend mode="normal" in="SourceGraphic" in2="effect1_dropShadow_10487_11653" result="shape"/>
</filter>
<filter id="filter2_f_10487_11653" x="281.875" y="58.4571" width="49.12" height="49.1201" filterUnits="userSpaceOnUse" color-interpolation-filters="sRGB">
<feFlood flood-opacity="0" result="BackgroundImageFix"/>
<feBlend mode="normal" in="SourceGraphic" in2="BackgroundImageFix" result="shape"/>
<feGaussianBlur stdDeviation="7.77733" result="effect1_foregroundBlur_10487_11653"/>
</filter>
<linearGradient id="paint0_linear_10487_11653" x1="186.5" y1="63.3965" x2="186.5" y2="131.346" gradientUnits="userSpaceOnUse">
<stop stop-color="#C83A6B"/>
<stop offset="1" stop-color="#8D0E3A"/>
</linearGradient>
<linearGradient id="paint1_linear_10487_11653" x1="171.234" y1="50.2705" x2="198.727" y2="100.271" gradientUnits="userSpaceOnUse">
<stop stop-color="#FFC6DA"/>
<stop offset="0.541419" stop-color="#FFA6C4"/>
<stop offset="1" stop-color="#FF8AB2"/>
</linearGradient>
<linearGradient id="paint2_linear_10487_11653" x1="254.025" y1="77.248" x2="254.025" y2="92.8422" gradientUnits="userSpaceOnUse">
<stop stop-color="#FFC9DC"/>
<stop offset="1" stop-color="#FF659A"/>
</linearGradient>
<linearGradient id="paint3_linear_10487_11653" x1="254.025" y1="76.4375" x2="254.025" y2="92.8409" gradientUnits="userSpaceOnUse">
<stop stop-color="#BD3262"/>
<stop offset="1" stop-color="#AF2756"/>
</linearGradient>
<linearGradient id="paint4_linear_10487_11653" x1="306.435" y1="77.2861" x2="306.435" y2="92.0221" gradientUnits="userSpaceOnUse">
<stop stop-color="#FFC8DB"/>
<stop offset="1" stop-color="#FF84AE"/>
</linearGradient>
<linearGradient id="paint5_linear_10487_11653" x1="120.118" y1="73.1934" x2="120.118" y2="92.1638" gradientUnits="userSpaceOnUse">
<stop stop-color="#FFC1D7"/>
<stop offset="1" stop-color="#E05E8B"/>
</linearGradient>
<linearGradient id="paint6_linear_10487_11653" x1="120.118" y1="73.1934" x2="120.118" y2="92.1638" gradientUnits="userSpaceOnUse">
<stop stop-color="#BE3363"/>
<stop offset="1" stop-color="#AC2655"/>
</linearGradient>
<linearGradient id="paint7_linear_10487_11653" x1="66.1565" y1="74.8301" x2="66.1565" y2="91.2034" gradientUnits="userSpaceOnUse">
<stop stop-color="#FFBDD4"/>
<stop offset="1" stop-color="#FF89B2"/>
</linearGradient>
<clipPath id="clip0_10487_11653">
<rect width="19.648" height="19.648" fill="white" transform="translate(109.955 73.1934)"/>
</clipPath>
<clipPath id="clip1_10487_11653">
<rect width="18.9705" height="18.9705" fill="white" transform="matrix(-1 0 0 1 129.604 73.1934)"/>
</clipPath>
<clipPath id="clip2_10487_11653">
<rect width="18.9705" height="18.9705" fill="white" transform="matrix(-1 0 0 1 129.604 73.1934)"/>
</clipPath>
</defs>
</svg>
