<svg width="65" height="72" viewBox="0 0 65 72" fill="none" xmlns="http://www.w3.org/2000/svg">
<ellipse cx="27.0942" cy="27.4909" rx="27.0195" ry="26.5837" fill="url(#paint0_linear_513_3103)"/>
<g filter="url(#filter0_d_513_3103)">
<circle cx="45.1387" cy="46.0181" r="9.06932" fill="white"/>
<circle cx="45.1387" cy="46.0181" r="9.06932" stroke="#920C3B" stroke-width="0.9824"/>
</g>
<path fill-rule="evenodd" clip-rule="evenodd" d="M45.8469 41.8702C45.7956 41.4918 45.4712 41.2002 45.0788 41.2002C44.6507 41.2002 44.3036 41.5473 44.3036 41.9754V44.9864H41.2884L41.1832 44.9935C40.8048 45.0448 40.5132 45.3691 40.5132 45.7616C40.5132 46.1897 40.8602 46.5368 41.2884 46.5368H44.3036V49.5478L44.3107 49.653C44.362 50.0314 44.6863 50.323 45.0788 50.323C45.5069 50.323 45.854 49.9759 45.854 49.5478V46.5368H48.868L48.9732 46.5297C49.3516 46.4784 49.6432 46.154 49.6432 45.7616C49.6432 45.3335 49.2961 44.9864 48.868 44.9864H45.854V41.9754L45.8469 41.8702Z" fill="#292929"/>
<path d="M33.9473 17.5784L27.0818 27.3712L20.2691 17.5796L19.9359 17.8114L20.2691 17.5796C20.1425 17.3975 19.9642 17.2757 19.7643 17.2003C19.5833 17.1161 19.3926 17.0642 19.1966 17.0642C18.8596 17.0642 18.5566 17.18 18.3132 17.4133L18.3045 17.4216L18.2963 17.4304C18.0824 17.661 17.9688 17.9428 17.9688 18.2577V34.9868C17.9688 35.3099 18.0762 35.6029 18.2963 35.8402L18.3045 35.8491L18.3132 35.8574C18.548 36.0823 18.8469 36.1803 19.1693 36.1803C19.4917 36.1803 19.7906 36.0823 20.0254 35.8574C20.2696 35.6234 20.397 35.325 20.397 34.9868V21.8797L26.0608 30.1471L26.0742 30.1666L26.0896 30.1844C26.3267 30.457 26.6315 30.6388 26.9987 30.6388H27.0398C27.4341 30.662 27.7586 30.4725 27.9999 30.172L28.0093 30.1604L28.0178 30.148L33.6821 21.9259V34.9868C33.6821 35.325 33.8096 35.6234 34.0538 35.8574L34.0625 35.8657L34.0716 35.8735C34.3225 36.0872 34.6314 36.1803 34.9644 36.1803C35.2877 36.1803 35.5847 36.0824 35.83 35.8735L35.8391 35.8657L35.8478 35.8574C36.092 35.6234 36.2195 35.325 36.2195 34.9868V18.2577C36.2195 17.9266 36.0965 17.6332 35.8483 17.413C35.6315 17.1881 35.355 17.0703 35.0434 17.0645C34.5994 17.0196 34.2275 17.2117 33.9574 17.5646L33.9522 17.5714L33.9473 17.5784Z" fill="#960C3C" stroke="#960C3C" stroke-width="0.818667"/>
<defs>
<filter id="filter0_d_513_3103" x="25.7541" y="33.1829" width="38.7691" height="38.7691" filterUnits="userSpaceOnUse" color-interpolation-filters="sRGB">
<feFlood flood-opacity="0" result="BackgroundImageFix"/>
<feColorMatrix in="SourceAlpha" type="matrix" values="0 0 0 0 0 0 0 0 0 0 0 0 0 0 0 0 0 0 127 0" result="hardAlpha"/>
<feOffset dy="6.54933"/>
<feGaussianBlur stdDeviation="4.912"/>
<feColorMatrix type="matrix" values="0 0 0 0 0 0 0 0 0 0 0 0 0 0 0 0 0 0 0.25 0"/>
<feBlend mode="normal" in2="BackgroundImageFix" result="effect1_dropShadow_513_3103"/>
<feBlend mode="normal" in="SourceGraphic" in2="effect1_dropShadow_513_3103" result="shape"/>
</filter>
<linearGradient id="paint0_linear_513_3103" x1="12.2335" y1="0.907227" x2="39.7264" y2="50.908" gradientUnits="userSpaceOnUse">
<stop stop-color="#FFC6DA"/>
<stop offset="0.541419" stop-color="#FFA6C4"/>
<stop offset="1" stop-color="#FF8AB2"/>
</linearGradient>
</defs>
</svg>
