<svg width="17" height="17" viewBox="0 0 17 17" fill="none" xmlns="http://www.w3.org/2000/svg">
<circle cx="8.5" cy="8.5" r="8.5" fill="white"/>
<path fill-rule="evenodd" clip-rule="evenodd" d="M9.25776 4.6252C9.20716 4.27213 8.88745 4 8.5006 4C8.07858 4 7.73646 4.32386 7.73646 4.72336V7.53349H4.76415L4.66046 7.54009C4.28748 7.58799 4 7.89064 4 8.25685C4 8.65635 4.34212 8.9802 4.76415 8.9802H7.73646V11.7895L7.74344 11.8876C7.79404 12.2407 8.11375 12.5128 8.5006 12.5128C8.92262 12.5128 9.26473 12.189 9.26473 11.7895V8.9802H12.2358L12.3395 8.9736C12.7125 8.9257 13 8.62305 13 8.25685C13 7.85735 12.6579 7.53349 12.2358 7.53349H9.26473V4.72336L9.25776 4.6252Z" fill="black"/>
</svg>
