<svg width="25" height="25" viewBox="0 0 25 25" fill="none" xmlns="http://www.w3.org/2000/svg">
<path d="M12.9297 0.0334473C19.5548 0.0334473 24.9297 5.45276 24.9297 12.0334C24.9297 18.6409 19.5368 24.0334 12.9297 24.0334C6.32219 24.0334 0.929688 18.6405 0.929688 12.0334C0.929688 5.42595 6.32261 0.0334473 12.9297 0.0334473ZM12.9297 1.4397C11.7593 1.4397 10.6328 1.6309 9.57934 1.98298C9.77678 2.27459 9.90025 2.66009 9.90025 3.15748C9.90025 3.91699 9.56078 4.59588 9.23252 5.25246C8.96547 5.78656 8.71323 6.29103 8.71323 6.71857C8.71323 6.96579 8.77206 7.02274 8.97433 7.0902C9.36044 7.21892 10.0774 7.20368 10.5682 7.20209C11.7269 7.1982 13.0409 7.19398 14.4424 8.59545C14.636 8.78909 14.7408 8.79898 15.4113 8.46373C16.0247 8.15698 17.0516 7.6436 18.0034 8.59545C18.5602 9.15218 18.7801 9.93621 18.6261 10.7314C19.3141 10.4643 20.2654 10.3406 20.3818 10.0454C20.4357 9.90884 20.5198 9.31446 19.3409 7.40056C18.9037 6.69073 18.3784 5.65071 18.863 4.8176C19.0981 4.41354 19.4918 4.19848 19.9266 4.0864C18.059 2.44015 15.6092 1.4397 12.9297 1.4397ZM12.9297 22.6272C18.7711 22.6272 23.5234 17.8749 23.5234 12.0334C23.5234 9.51588 22.6401 7.20106 21.1679 5.38137C20.3575 5.37443 20.1387 5.47301 20.0801 5.52542C20.0726 5.57149 20.0512 5.87243 20.5382 6.66307C21.6874 8.52874 22.0319 9.69457 21.6901 10.5613C21.2283 11.7322 19.779 11.7339 18.9921 12.1032C18.516 12.3267 16.1131 13.4336 15.8354 13.846V15.0278C15.8354 15.9088 15.0035 16.3847 14.3351 16.767C14.0643 16.9219 13.5009 17.2443 13.4613 17.4019C13.4613 20.2068 13.1913 21.751 12.8433 22.6262C12.8721 22.6264 12.9008 22.6272 12.9297 22.6272ZM11.1006 21.8669C11.0962 22.0084 11.244 22.2965 11.3715 22.4253C11.5508 22.1766 12.055 21.144 12.055 17.4019C12.055 16.4511 12.9321 15.9494 13.6368 15.5464C13.8849 15.4045 14.3446 15.1442 14.4338 15.0006V13.8408C14.4338 13.6514 14.4643 13.4824 14.5251 13.3304C13.3566 13.223 12.7873 12.8113 12.3556 12.4992C12.0524 12.2799 11.9003 12.1699 11.5712 12.1699C11.5617 12.1699 11.5569 12.1706 11.557 12.1705C11.483 12.2067 11.3259 12.4694 11.2319 12.6265C10.4346 13.9587 9.65683 14.4348 8.13194 14.7688C7.92752 14.8136 7.62349 14.8802 7.5333 14.9402C7.53025 14.9546 7.52617 14.9822 7.52617 15.0278C7.52617 16.4787 8.64301 17.5299 9.62842 18.4573C10.4185 19.201 11.101 19.8433 11.101 20.6582C11.101 20.7721 11.1025 21.8049 11.1006 21.8669ZM9.71589 22.1283C9.69981 22.0266 9.69695 21.9262 9.69958 21.8291C9.70061 21.7339 9.69939 20.6654 9.69939 20.6584C9.69934 20.6574 9.6888 20.5559 9.47552 20.2979C9.27709 20.0577 8.97958 19.7778 8.66458 19.4813C7.59067 18.4705 6.11992 17.0862 6.11992 15.0277C6.11992 14.3228 6.47547 13.9478 6.77374 13.7574C7.08555 13.5583 7.44766 13.479 7.83109 13.395C8.96997 13.1455 9.42869 12.9013 10.0251 11.9045C10.3131 11.4229 10.7076 10.7635 11.5712 10.7635C12.3554 10.7635 12.8124 11.0939 13.1796 11.3594C13.5999 11.6634 13.997 11.9505 15.1322 11.9505C16.2598 11.9505 16.9305 11.2971 17.1623 10.7377C17.2499 10.5262 17.4103 9.99096 17.0091 9.58971C16.8154 9.39612 16.7107 9.38618 16.0402 9.72143C15.4267 10.0282 14.3999 10.5416 13.448 9.58971C12.4603 8.60201 11.6271 8.60478 10.5728 8.6082C9.898 8.61035 9.12991 8.62428 8.52962 8.42412C7.74119 8.16129 7.30694 7.55553 7.30694 6.71843C7.30694 5.95892 7.64641 5.28003 7.97467 4.62345C8.24172 4.08935 8.49395 3.58488 8.49395 3.15734C8.49395 2.82743 8.42228 2.64284 8.05834 2.62803C4.66155 4.39465 2.33594 7.9474 2.33594 12.0334C2.33594 16.7549 5.44089 20.7642 9.71589 22.1283Z" fill="white"/>
</svg>
