<svg width="21" height="22" viewBox="0 0 21 22" fill="none" xmlns="http://www.w3.org/2000/svg">
<path d="M7.5869 19.8048V16.7381C7.58688 15.9581 8.22281 15.3243 9.0107 15.319H11.8968C12.6884 15.319 13.3302 15.9544 13.3302 16.7381V16.7381V19.8144C13.33 20.4766 13.8639 21.0179 14.5327 21.0334H16.4568C18.3748 21.0334 19.9297 19.4941 19.9297 17.5953V17.5953V8.87128C19.9194 8.12427 19.5652 7.4228 18.9677 6.96648L12.3874 1.71875C11.2346 0.805014 9.59589 0.805014 8.44311 1.71875L1.89171 6.976C1.29195 7.43047 0.937074 8.13311 0.929688 8.88081V17.5953C0.929688 19.4941 2.48456 21.0334 4.4026 21.0334H6.32665C7.01204 21.0334 7.56766 20.4834 7.56766 19.8048V19.8048" stroke="#CEC54C" stroke-linecap="round" stroke-linejoin="round"/>
</svg>
