<svg width="23" height="23" viewBox="0 0 23 23" fill="none" xmlns="http://www.w3.org/2000/svg">
<path d="M22.2852 1.62128H19.462C19.4722 1.30858 19.4779 0.994034 19.4779 0.677979C19.4779 0.321976 19.1892 0.0334473 18.8334 0.0334473H5.02599C4.67015 0.0334473 4.38145 0.321976 4.38145 0.677979C4.38145 0.994034 4.38716 1.30858 4.3974 1.62128H1.57422C1.21822 1.62128 0.929688 1.90981 0.929688 2.26581C0.929688 5.15378 1.68449 7.87843 3.05496 9.93808C4.40965 11.9742 6.21417 13.1421 8.16354 13.2557C8.60548 13.7366 9.0726 14.1287 9.55919 14.4278V17.2924H8.47792C7.17073 17.2924 6.10742 18.3559 6.10742 19.6629V20.7442H6.0616C5.7056 20.7442 5.41707 21.0329 5.41707 21.3887C5.41707 21.7448 5.7056 22.0333 6.0616 22.0333H17.7978C18.1538 22.0333 18.4423 21.7448 18.4423 21.3887C18.4423 21.0329 18.1538 20.7442 17.7978 20.7442H17.752V19.6629C17.752 18.3559 16.6886 17.2924 15.3815 17.2924H14.3002V14.4278C14.7868 14.1289 15.2541 13.7366 15.696 13.2557C17.6452 13.1421 19.4497 11.9742 20.8046 9.93808C22.175 7.87843 22.9297 5.15378 22.9297 2.26581C22.9297 1.90981 22.6412 1.62128 22.2852 1.62128ZM4.12817 9.22406C2.99773 7.52528 2.33356 5.30333 2.23235 2.91034H4.46941C4.70187 5.85202 5.3924 8.57114 6.47165 10.7295C6.64352 11.0732 6.82329 11.398 7.00977 11.7038C5.93773 11.299 4.94559 10.4527 4.12817 9.22406ZM16.4629 19.6629V20.7444H7.39648V19.6629C7.39648 19.0668 7.88156 18.5815 8.47792 18.5815H15.3815C15.9778 18.5815 16.4629 19.0668 16.4629 19.6629ZM13.0111 17.2924H10.8483V14.9879C11.2026 15.0812 11.5636 15.1297 11.9297 15.1297C12.2958 15.1297 12.6568 15.0812 13.0111 14.9879V17.2924ZM13.4103 13.4545C13.3812 13.4664 13.3534 13.4808 13.3267 13.4968C12.8711 13.7234 12.403 13.8407 11.9297 13.8407C11.4565 13.8407 10.9886 13.7234 10.5332 13.4971C10.5062 13.4808 10.4781 13.4664 10.4488 13.4541C9.94339 13.1869 9.45445 12.7834 8.99203 12.2532C8.9677 12.2184 8.94034 12.1864 8.90996 12.1572C8.4509 11.6122 8.01903 10.9418 7.62459 10.1529C6.44009 7.7841 5.75595 4.66937 5.67807 1.32251H18.1813C18.1033 4.66937 17.4191 7.78427 16.2348 10.1529C15.8403 10.9418 15.4085 11.6122 14.9496 12.1572C14.919 12.1864 14.8913 12.2186 14.8672 12.2534C14.4048 12.7838 13.9156 13.1871 13.4103 13.4545ZM19.7312 9.22406C18.9138 10.4527 17.9216 11.299 16.8496 11.7038C17.0361 11.398 17.2159 11.0732 17.3877 10.7295C18.467 8.57114 19.1573 5.85202 19.39 2.91034H21.627C21.5258 5.30333 20.8616 7.52528 19.7312 9.22406Z" fill="#CEC54C"/>
</svg>
